<?xml version="1.0" encoding="utf-8"?>
<!-- Generator: Adobe Illustrator 26.3.1, SVG Export Plug-In . SVG Version: 6.00 Build 0)  -->
<svg version="1.1" id="Layer_1" xmlns="http://www.w3.org/2000/svg" xmlns:xlink="http://www.w3.org/1999/xlink" x="0px" y="0px"
	 viewBox="0 0 176.29 180.84" style="enable-background:new 0 0 176.29 180.84;" xml:space="preserve">
<g>
	<rect x="125.98" y="25.62" class="st0" width="36.69" height="7.7"/>
	<path class="st0" d="M3.65,33.32h28.4c1.52,0,2.75-1.23,2.75-2.75V10.9c0-1.52-1.23-2.75-2.75-2.75H3.65
		c-1.52,0-2.75,1.23-2.75,2.75v19.67C0.9,32.09,2.14,33.32,3.65,33.32z M6.4,13.65h15.33v14.17H6.4V13.65z"/>
	<path class="st0" d="M170.1,91.15V68.98l-7.15-8.8V38.82h-7.7v52.33H138.7v-7.7h-27.14v7.7h-9.85v-7.7H74.58v7.7h-9.85v-7.7H37.59
		v7.7H21.05V38.82h-7.7v21.36l-7.15,8.8v22.17H0v28.7h176.29v-28.7H170.1z M23.76,110.86c-2.96,0-5.36-2.4-5.36-5.36
		c0-2.96,2.4-5.36,5.36-5.36s5.36,2.4,5.36,5.36C29.12,108.46,26.72,110.86,23.76,110.86z M40.3,110.86c-2.96,0-5.36-2.4-5.36-5.36
		c0-2.96,2.4-5.36,5.36-5.36c2.96,0,5.36,2.4,5.36,5.36C45.66,108.46,43.26,110.86,40.3,110.86z M56.85,110.86
		c-2.96,0-5.36-2.4-5.36-5.36c0-2.96,2.4-5.36,5.36-5.36c2.96,0,5.36,2.4,5.36,5.36C62.21,108.46,59.81,110.86,56.85,110.86z"/>
	<rect x="28.75" y="54.23" class="st0" width="62.25" height="7.7"/>
	<rect x="120.6" y="54.23" class="st0" width="26.94" height="7.7"/>
	<rect x="28.75" y="38.82" class="st0" width="62.25" height="7.7"/>
	<rect x="120.6" y="38.82" class="st0" width="26.94" height="7.7"/>
	<path class="st0" d="M72.37,33.32h13.26v-7.7H72.37c-2.72,0-4.93-2.21-4.93-4.93c0-2.72,2.21-4.93,4.93-4.93h13.26
		c0.02-2.88,0.97-5.54,2.55-7.7H72.37c-6.97,0-12.63,5.67-12.63,12.63S65.41,33.32,72.37,33.32z"/>
	<path class="st0" d="M96.51,61.93h5.44v6.25h-2.7v3.43l2.81,3.41h7.49l2.81-3.41v-3.43h-2.7v-6.25h5.44V33.32h5.38V15.85
		c0-3.48-2.31-6.42-5.49-7.38V5.18L111.17,0h-10.72l-3.82,5.18v3.29c-3.17,0.95-5.49,3.89-5.49,7.38v17.47h5.38V61.93z
		 M108.56,16.62h5.5v10.56h-5.5V16.62z M97.55,16.62h5.5v10.56h-5.5V16.62z"/>
	<path class="st0" d="M170.1,127.55H6.19v31.23L0,165.81v15.03h38.92l8.41-10.97h81.63l8.41,10.97h38.92v-15.03l-6.19-7.03V127.55z
		 M23.52,156.3h-5.5v-15.75h5.5V156.3z M34.52,156.3h-5.5v-15.75h5.5V156.3z M45.53,156.3h-5.5v-15.75h5.5V156.3z M131.41,152.36
		c-2.55,2.55-6.67,2.55-9.22,0c-2.55-2.55-2.55-6.67,0-9.22c1.85-1.85,4.53-2.35,6.84-1.51l3.78-3.78l3.89,3.89l-3.78,3.78
		C133.76,147.83,133.26,150.51,131.41,152.36z M154.94,152.36c-2.55,2.55-6.67,2.55-9.22,0c-2.55-2.55-2.55-6.67,0-9.22
		c1.85-1.85,4.53-2.35,6.84-1.51l3.78-3.78l3.89,3.89l-3.78,3.78C157.29,147.83,156.79,150.51,154.94,152.36z"/>
</g>
</svg>
