<?xml version="1.0" encoding="utf-8"?>
<!-- Generator: Adobe Illustrator 26.3.1, SVG Export Plug-In . SVG Version: 6.00 Build 0)  -->
<svg version="1.1" id="Layer_1" xmlns="http://www.w3.org/2000/svg" xmlns:xlink="http://www.w3.org/1999/xlink" x="0px" y="0px"
	 viewBox="0 0 156.18 161.33" style="enable-background:new 0 0 156.18 161.33;" xml:space="preserve">
<g>
	<path class="st0" d="M126.29,92.74L109.72,66.9c-4.61-7.19-14.18-9.28-21.38-4.67c-7.19,4.61-9.28,14.18-4.67,21.38l5.86,9.13
		H126.29z M92.5,68.71c3.61-2.32,8.42-1.27,10.73,2.35c2.32,3.61,1.27,8.42-2.34,10.74c-3.61,2.32-8.42,1.27-10.74-2.35
		C87.84,75.84,88.89,71.03,92.5,68.71z"/>
	<polygon class="st0" points="77.03,129.29 79.65,129.29 83.5,134.79 139.61,134.79 143.46,129.29 146.08,129.29 146.08,123.78 
		77.03,123.78 	"/>
	<polygon class="st0" points="141.39,142.49 12.89,142.49 6.29,153.63 0,153.63 0,161.33 154.28,161.33 154.28,153.63 
		147.99,153.63 	"/>
	<path class="st0" d="M48.58,50.6l4.32-5.61l6.19-1.21L64,37.4l-0.64-1.88l3.17-4.12c-4.23-1.26-7.84-3.98-10.26-7.56l-3.01,3.92
		l-1.98-0.13L46.37,34l0.42,6.29l-4.32,5.61l-1.27,5.18l2.69,2.07L48.58,50.6z"/>
	<path class="st0" d="M71.92,26.68c3.93,0,7.46-1.7,9.9-4.4h33.33c-1.43-3.32-2.23-6.98-2.23-10.81c0-2.42,0.32-4.78,0.93-7.07
		H81.82C79.38,1.7,75.85,0,71.92,0c-7.37,0-13.34,5.97-13.34,13.34C58.58,20.71,64.55,26.68,71.92,26.68z M71.92,7.7
		c3.11,0,5.64,2.53,5.64,5.64c0,3.11-2.53,5.64-5.64,5.64c-3.11,0-5.64-2.53-5.64-5.64C66.28,10.23,68.81,7.7,71.92,7.7z"/>
	<path class="st0" d="M118.03,27.37L97.53,54.3c6.86,0.27,13.1,3.82,16.83,9.63l2.81,4.38l22.42-29.44
		C130.71,38.62,122.87,34.14,118.03,27.37z"/>
	<path class="st0" d="M147.78,1.65h-27.03c-1.48,2.95-2.32,6.29-2.32,9.82c0,12.1,9.81,21.91,21.91,21.91
		c6.23,0,11.85-2.6,15.84-6.78V12.68L147.78,1.65z"/>
	<path class="st0" d="M132.84,98.32H86.97v19.96h54.12v-9.4l-8.25-5.83V98.32z M105.15,111.05H94.94v-5.5h10.21V111.05z
		 M123.42,111.05h-10.21v-5.5h10.21V111.05z"/>
	<polygon class="st0" points="31.39,96.96 56.57,96.96 59.55,105.28 68.56,96.27 68.56,82.42 57.9,82.42 56.89,86.12 31.07,86.12 
		30.06,82.42 19.4,82.42 19.4,96.27 28.41,105.28 	"/>
	<path class="st0" d="M35.27,102.46l-11.55,32.33h40.54L52.7,102.46H35.27z M43.98,122.7c-2.96,0-5.36-2.4-5.36-5.36
		c0-2.96,2.4-5.36,5.36-5.36c2.96,0,5.36,2.4,5.36,5.36C49.34,120.3,46.94,122.7,43.98,122.7z"/>
</g>
</svg>
