<?xml version="1.0" encoding="utf-8"?>
<!-- Generator: Adobe Illustrator 26.0.1, SVG Export Plug-In . SVG Version: 6.00 Build 0)  -->
<svg version="1.1" id="Layer_1" xmlns="http://www.w3.org/2000/svg" xmlns:xlink="http://www.w3.org/1999/xlink" x="0px" y="0px"
	 viewBox="0 0 1024 1024" enable-background="new 0 0 1024 1024" xml:space="preserve">
<circle fill="#BFBFBF" cx="512" cy="512" r="489"/>
<g>
	<path fill="#FFFFFF" d="M202,590.4V667h28c11.2,0,19.3,2.2,24.1,6.5s7.2,10,7.2,17c0,6.8-2.4,12.4-7.2,16.8s-12.8,6.5-24.1,6.5
		h-82.8c-11.3,0-19.3-2.2-24.1-6.5s-7.2-9.9-7.2-16.8c0-7,2.4-12.7,7.3-17c4.9-4.3,12.8-6.5,23.9-6.5h8V455.9h-8
		c-11.3,0-19.3-2.2-24.1-6.5c-4.8-4.3-7.2-10-7.2-17c0-6.8,2.4-12.4,7.2-16.8c4.8-4.3,12.8-6.5,24.1-6.5H202v16
		c10.9-7.4,22.3-13,34-16.6c11.7-3.6,23.7-5.5,36-5.5c31.9,0,59.1,10.8,81.6,32.5c22.5,21.7,33.7,46.5,33.7,74.4
		c0,30.9-13.3,56.3-39.9,76.4c-22.2,16.7-47.2,25.1-75,25.1c-12,0-23.9-1.7-35.6-5.2C225.1,602.6,213.5,597.4,202,590.4z
		 M340.6,510.1c0-6.5-2.6-14.9-7.8-25c-5.2-10.1-13.1-18.5-23.8-25.3c-10.7-6.8-23.3-10.1-37.7-10.1c-23.3,0-41.7,8.7-55.4,26.2
		c-9.3,12-13.9,23.6-13.9,34.7c0,12.5,6.6,24.6,20,36.4c13.3,11.8,29.8,17.7,49.4,17.7c19.8,0,36.3-5.8,49.5-17.6
		C334,535.3,340.6,523,340.6,510.1z"/>
	<path fill="#FFFFFF" d="M647.5,320.4v249h8c11.1,0,19.1,2.2,23.9,6.5c4.9,4.3,7.3,10,7.3,17c0,6.8-2.4,12.4-7.2,16.8
		c-4.8,4.3-12.8,6.5-24.1,6.5h-54.7v-11.4c-10.6,6.2-21.8,10.9-33.4,14.1c-11.6,3.2-23.7,4.8-36.1,4.8c-35.1,0-63.4-10.1-84.8-30.4
		c-21.4-20.3-32.1-45.6-32.1-75.8c0-31.6,11.2-58.6,33.7-80.9c22.5-22.3,49.9-33.5,82.3-33.5c12.2,0,24.1,1.9,35.8,5.6
		c11.7,3.7,23.3,9.3,34.7,16.8v-58.1h-8c-11.2,0-19.3-2.2-24.1-6.5s-7.2-9.9-7.2-16.8c0-7,2.4-12.7,7.2-17s12.8-6.5,24.1-6.5H647.5z
		 M600.8,518.8c0-19.3-6.8-35.6-20.3-49c-13.5-13.4-30.1-20.1-49.7-20.1c-19.5,0-36,6.7-49.5,20.1c-13.5,13.4-20.3,29.5-20.3,48.3
		c0,17.2,6.1,31.3,18.2,42.3c12.2,11,29.3,16.5,51.5,16.5c22,0,39.2-5.5,51.5-16.5C594.6,549.4,600.8,535.5,600.8,518.8z"/>
	<path fill="#FFFFFF" d="M941.9,516.5c0,17.9-5,35.3-14.9,52.1c-10,16.8-24.8,30.2-44.5,40.1c-19.7,10-40.2,14.9-61.7,14.9
		c-21.3,0-41.7-4.9-61.1-14.7c-19.5-9.8-34.3-23.1-44.5-40c-10.2-16.9-15.3-34.5-15.3-52.9c0-18.7,5.2-37.1,15.5-55.1
		c10.3-18,25.2-32.2,44.6-42.5c19.4-10.3,39.6-15.5,60.8-15.5c21.3,0,41.8,5.3,61.4,15.8c19.7,10.6,34.5,24.8,44.6,42.6
		C936.8,479.3,941.9,497.7,941.9,516.5z M895.1,516.7c0-15-5.4-28.9-16.2-41.5c-14.7-17-34.1-25.5-58.1-25.5
		c-21.1,0-38.8,6.8-52.9,20.3c-14.1,13.5-21.2,29.2-21.2,47c0,14.6,7.1,28.2,21.4,40.9c14.3,12.7,31.8,19,52.7,19
		c21,0,38.6-6.3,52.9-19C888,545.2,895.1,531.5,895.1,516.7z"/>
</g>
</svg>
