<?xml version="1.0" encoding="utf-8"?>
<!-- Generator: Adobe Illustrator 26.0.1, SVG Export Plug-In . SVG Version: 6.00 Build 0)  -->
<svg version="1.1" id="Layer_1" xmlns="http://www.w3.org/2000/svg" xmlns:xlink="http://www.w3.org/1999/xlink" x="0px" y="0px"
	 viewBox="0 0 1024 1024" enable-background="new 0 0 1024 1024" xml:space="preserve">
<circle fill="#BFBFBF" cx="512" cy="512" r="489"/>
<g>
	<path fill="#FFFFFF" d="M271.4,489.5c-7.9-4.9-16.2-8.6-24.9-11c-8.7-2.5-17.8-3.7-27.3-3.7c-18.8,0-33.8,3.1-44.9,9.3
		c-4.9,2.7-7.4,5.6-7.4,8.8c0,3.6,3.3,7.2,10,10.7c5.1,2.5,16.4,5,33.9,7.4c32.3,4.4,54.7,8.9,67.4,13.3
		c16.6,5.9,29.4,14.6,38.4,26.1c9,11.5,13.5,23.7,13.5,36.5c0,17.4-7.7,32-23,43.7c-22,16.9-50.5,25.4-85.7,25.4
		c-14.1,0-27.1-1.2-39-3.7c-11.9-2.5-22.9-6.1-32.9-10.8c-2.4,2.1-4.9,3.6-7.6,4.7c-2.7,1.1-5.5,1.7-8.3,1.7
		c-7.6,0-13.6-2.5-18.2-7.5s-6.8-13.3-6.8-25v-16.4c0-11.7,2.3-20.1,6.8-25s10.4-7.5,17.7-7.5c5.9,0,10.8,1.6,14.7,4.9
		c4,3.2,7,8.8,9.3,16.7c7.4,6.3,16.4,11.1,26.8,14.4c10.4,3.2,22.5,4.9,36.1,4.9c22.3,0,39.6-3.5,52-10.4c5.9-3.5,8.8-7.1,8.8-10.9
		c0-6.3-4.2-11.5-12.6-15.7c-8.4-4.1-25.7-7.6-52-10.4c-39.1-4.1-65.2-12-78.3-23.7c-13.1-11.5-19.7-25.8-19.7-42.7
		c0-17.4,7.4-31.9,22.1-43.4c19.9-15.8,46-23.7,78.3-23.7c11.2,0,22,1.1,32.4,3.2c10.4,2.1,20.3,5.4,29.8,9.8c3-2.2,5.8-3.9,8.4-5
		c2.6-1.1,5-1.7,7.2-1.7c6.6,0,12.2,2.5,16.6,7.5c4.4,5,6.6,13.3,6.6,25v11.9c0,10.6-1.3,17.8-3.8,21.6
		c-5.1,7.3-11.9,10.9-20.6,10.9c-5.9,0-11-1.8-15.4-5.5C275.6,500.4,272.7,495.5,271.4,489.5z"/>
	<path fill="#FFFFFF" d="M622.2,340.3v259.1h8.3c11.5,0,19.9,2.3,24.9,6.8c5.1,4.5,7.6,10.4,7.6,17.7c0,7.1-2.5,12.9-7.5,17.4
		c-5,4.5-13.3,6.8-25,6.8h-57v-11.9c-11.1,6.5-22.7,11.4-34.8,14.7s-24.6,5-37.6,5c-36.5,0-66-10.6-88.3-31.7s-33.5-47.4-33.5-78.9
		c0-32.9,11.7-61,35.1-84.2c23.4-23.3,52-34.9,85.7-34.9c12.7,0,25.1,1.9,37.3,5.8c12.2,3.9,24.2,9.7,36.1,17.4v-60.5h-8.3
		c-11.7,0-20.1-2.3-25-6.8c-5-4.5-7.5-10.3-7.5-17.4c0-7.3,2.5-13.2,7.5-17.7c5-4.5,13.3-6.8,25-6.8H622.2z M573.5,546.7
		c0-20.1-7-37.1-21.1-51c-14.1-13.9-31.3-20.9-51.7-20.9c-20.3,0-37.4,7-51.5,20.9c-14.1,13.9-21.1,30.7-21.1,50.3
		c0,17.9,6.3,32.6,19,44c12.7,11.5,30.5,17.2,53.6,17.2c22.9,0,40.8-5.7,53.6-17.2C567.1,578.6,573.5,564.1,573.5,546.7z"/>
	<path fill="#FFFFFF" d="M928.5,544.3c0,18.7-5.2,36.7-15.5,54.2c-10.4,17.5-25.8,31.4-46.3,41.8c-20.5,10.4-41.9,15.5-64.2,15.5
		c-22.2,0-43.3-5.1-63.6-15.3c-20.3-10.2-35.7-24.1-46.3-41.6c-10.6-17.6-15.9-35.9-15.9-55.1c0-19.5,5.4-38.6,16.1-57.3
		c10.8-18.7,26.2-33.5,46.4-44.3c20.2-10.8,41.3-16.1,63.2-16.1c22.1,0,43.5,5.5,64,16.5c20.5,11,36,25.8,46.4,44.4
		C923.3,505.6,928.5,524.7,928.5,544.3z M879.9,544.6c0-15.7-5.6-30.1-16.8-43.2c-15.3-17.7-35.5-26.6-60.5-26.6
		c-22,0-40.3,7-55.1,21.1c-14.7,14.1-22.1,30.4-22.1,48.9c0,15.2,7.4,29.4,22.3,42.6c14.9,13.2,33.1,19.8,54.8,19.8
		c21.8,0,40.2-6.6,55.1-19.8C872.5,574.2,879.9,559.9,879.9,544.6z"/>
</g>
</svg>
