<?xml version="1.0" encoding="utf-8"?>
<!-- Generator: Adobe Illustrator 24.1.1, SVG Export Plug-In . SVG Version: 6.00 Build 0)  -->
<svg version="1.1" id="Layer_1" xmlns="http://www.w3.org/2000/svg" xmlns:xlink="http://www.w3.org/1999/xlink" x="0px" y="0px"
	 viewBox="0 0 512 512" style="enable-background:new 0 0 512 512;" xml:space="preserve">
<g>
	<path d="M89,356.2v-22.3c-49.2,0-89,39.9-89,89c0,49.2,39.9,89,89,89c49.2,0,89-39.9,89-89c0-49.2-39.9-89-89-89V356.2v22.3
		c24.6,0,44.5,19.9,44.5,44.5c0,24.6-19.9,44.5-44.5,44.5c-24.6,0-44.5-19.9-44.5-44.5c0-24.6,19.9-44.5,44.5-44.5V356.2z M89,44.5
		c104.4,0,198.8,42.4,267.5,111c68.6,68.6,111,163.1,111,267.5H512C512,189.7,322.3,0,89,0V44.5L89,44.5z M400.7,423
		c0-171.9-139.7-311.6-311.7-311.7v44.5c73.7,0,140.3,29.9,188.8,78.3c48.4,48.5,78.3,115.1,78.3,188.8H400.7L400.7,423z M289.4,423
		c0-110.5-89.8-200.3-200.3-200.3v44.5c43,0,81.8,17.4,110.1,45.7c28.3,28.3,45.7,67.1,45.7,110.1H289.4L289.4,423z M0,244.9V423
		h44.5V244.9H0z"/>
</g>
</svg>
