<?xml version="1.0" encoding="utf-8"?>
<!-- Generator: Adobe Illustrator 26.0.1, SVG Export Plug-In . SVG Version: 6.00 Build 0)  -->
<svg version="1.1" id="Layer_1" xmlns="http://www.w3.org/2000/svg" xmlns:xlink="http://www.w3.org/1999/xlink" x="0px" y="0px"
	 viewBox="0 0 454 356" style="enable-background:new 0 0 454 356;" xml:space="preserve">
<style type="text/css">
	.st0{fill:#563A96;}
	.st1{fill-rule:evenodd;clip-rule:evenodd;fill:#FFFFFF;}
</style>
<path class="st0" d="M225.6-31.9c57.9,0,110.2,23.5,148.2,61.4c37.9,37.9,61.4,90.3,61.4,148.2s-23.4,110.2-61.4,148.2
	c-37.9,37.9-90.3,61.4-148.2,61.4s-110.2-23.4-148.2-61.4C39.5,288,16,235.6,16,177.7S39.5,67.5,77.4,29.5
	C115.4-8.4,167.8-31.9,225.6-31.9L225.6-31.9z"/>
<path class="st1" d="M252.7,87.9l-45.1,52.5l0,0c-13.2,15.4-28.3,35-42.3,49.3l-10.4,12.1l16.9,16.9c5.5-7,11.5-13.8,17.9-20.2
	c14.3-14.3,30.9-27,49.7-37.4c0.7-0.4,1.6-0.4,2.4,0c1.2,0.7,1.6,2.1,0.9,3.3c-10.5,18.8-23.2,35.4-37.5,49.7
	c-6.4,6.4-13.2,12.4-20.2,17.9l16.9,16.9l113.9-97.8c11.7-11.7,20.2-24.4,25.8-38.3l-50.7-50.7C277.1,67.7,264.4,76.2,252.7,87.9
	L252.7,87.9z M271.2,132.5c-4-4-6-9.3-6-14.5v-0.2c0-5.2,2-10.4,6-14.3c4-4,9.3-6,14.5-6h0.2c5.2,0.1,10.3,2.1,14.3,6
	c4,4,6,9.2,6,14.5s-2,10.5-6,14.5s-9.3,6-14.5,6S275.2,136.5,271.2,132.5L271.2,132.5z"/>
<path class="st1" d="M295.9,60.2l47.7,47.6l0.5-1.4c5.4-15.9,7.3-33.5,6.5-53.2c-19.7-0.9-37.3,1.1-53.2,6.5L295.9,60.2z"/>
<polygon class="st1" points="161.7,186.3 200.5,141.2 153.2,141 120.3,173.9 "/>
<path class="st1" d="M193.2,201.9c-6.9,6.9-13.3,14.2-19.1,21.9l0,0l0,0l0,0l0,0c-4.6,6.1-8.9,12.3-12.8,18.7
	c6.4-3.9,12.7-8.2,18.7-12.8l0,0l0,0l0,0h0.1c7.6-5.8,14.9-12.2,21.8-19.1c12-12,22.8-25.5,32-40.7
	C218.7,179.1,205.1,189.9,193.2,201.9L193.2,201.9z"/>
<polygon class="st1" points="229,232 217.4,242 229.8,283.3 262.6,250.5 262.4,203.3 "/>
<path class="st1" d="M105,266.7l39.2-39.2c1-1,1-2.5,0-3.4c-1-1-2.5-1-3.4,0l-39.2,39.2c-1,1-1,2.5,0,3.4
	C102.5,267.7,104.1,267.7,105,266.7L105,266.7z"/>
<path class="st1" d="M137,263.3l-31.4,31.4c-1,1-1,2.5,0,3.4c0.9,1,2.5,1,3.4,0l31.4-31.4c1-0.9,1-2.5,0-3.4
	C139.5,262.4,137.9,262.4,137,263.3L137,263.3z"/>
<path class="st1" d="M176.2,259.5L137,298.7c-0.9,0.9-0.9,2.5,0,3.4c1,0.9,2.5,0.9,3.4,0l39.2-39.2c0.9-0.9,0.9-2.5,0-3.4
	S177.1,258.6,176.2,259.5L176.2,259.5z"/>
</svg>
