<?xml version="1.0" encoding="utf-8"?>
<!-- Generator: Adobe Illustrator 26.0.0, SVG Export Plug-In . SVG Version: 6.00 Build 0)  -->
<svg version="1.1" id="Layer_1" xmlns="http://www.w3.org/2000/svg" xmlns:xlink="http://www.w3.org/1999/xlink" x="0px" y="0px"
	 viewBox="0 0 63.6 64.1" style="enable-background:new 0 0 63.6 64.1;" xml:space="preserve">
<g id="outline">
	<path d="M58.5,33c-1.1,0.2-2.1,1.1-2.4,2.2c-1.3-0.6-2.9-0.1-3.7,1.2C52,36.1,51.5,36,51,36c-1.7,0-3,1.3-3,3v3.7
		c-0.2,0.2-0.4,0.3-0.6,0.5l-6,5C39.9,49.4,39,51.1,39,53v8c0,0.6,0.4,1,1,1h9c0.6,0,1-0.4,1-1v-2.5l6.6-4.7
		c0.1-0.1,0.2-0.2,0.3-0.4l5-10C62,43.3,62,43.2,62,43v-7c0-1.7-1.3-3-3-3C58.8,33,58.7,33,58.5,33z M54,38c0-0.6,0.4-1,1-1
		s1,0.4,1,1v2.6l-2,2V38z M50,39c0-0.6,0.4-1,1-1s1,0.4,1,1v3.7c-0.6-0.4-1.3-0.6-2-0.6V39z M60,42.8l-4.8,9.6l-6.8,4.9
		C48.2,57.4,48,57.7,48,58v2h-7v-7c0-1.3,0.6-2.5,1.6-3.2l6.1-5.1c0.6-0.7,1.7-0.8,2.4-0.2c0.1,0.1,0.1,0.1,0.2,0.2l0.3,0.3
		l-4.3,4.3l1.4,1.4l9-9c0.2-0.2,0.3-0.4,0.3-0.7v-4.9c0-0.5,0.3-1,0.8-1.1c0.3-0.1,0.6,0,0.8,0.2c0.2,0.2,0.4,0.5,0.4,0.8V42.8z"/>
	<path d="M7.1,53.4c0.1,0.1,0.2,0.3,0.3,0.4l6.6,4.7V61c0,0.6,0.4,1,1,1h9c0.6,0,1-0.4,1-1v-8c0-1.9-0.9-3.6-2.4-4.8l-5.9-4.9
		c-0.2-0.2-0.5-0.4-0.7-0.6V39c0-1.7-1.3-3-3-3c-0.5,0-1,0.1-1.5,0.4c-0.8-1.2-2.3-1.7-3.7-1.2c-0.3-1.1-1.2-2-2.4-2.2
		c-1.6-0.3-3.2,0.8-3.5,2.5c0,0.2,0,0.3,0,0.5v7c0,0.2,0,0.3,0.1,0.4L7.1,53.4z M12,39c0-0.6,0.4-1,1-1s1,0.4,1,1v3.1
		c-0.7,0-1.4,0.2-2,0.6V39z M8,38c0-0.6,0.4-1,1-1s1,0.4,1,1v4.6l-2-2V38z M4,36c0-0.3,0.1-0.6,0.4-0.8C4.6,35,4.9,35,5.2,35
		C5.7,35.1,6,35.6,6,36.1V41c0,0.3,0.1,0.5,0.3,0.7l9,9l1.4-1.4L12.4,45l0.3-0.3c0.6-0.7,1.7-0.8,2.5-0.1c0.1,0.1,0.1,0.1,0.2,0.2
		l6,5c1.1,0.7,1.7,2,1.7,3.2v7h-7v-2c0-0.3-0.2-0.6-0.4-0.8l-6.8-4.9L4,42.8V36z"/>
	<path d="M18,31c4.4,0,8-3.6,8-8s-3.6-8-8-8s-8,3.6-8,8C10,27.4,13.6,31,18,31z M18,17c3.3,0,6,2.7,6,6s-2.7,6-6,6s-6-2.7-6-6
		C12,19.7,14.7,17,18,17z"/>
	<path d="M24,10c0,4.4,3.6,8,8,8s8-3.6,8-8s-3.6-8-8-8C27.6,2,24,5.6,24,10z M38,10c0,3.3-2.7,6-6,6s-6-2.7-6-6s2.7-6,6-6
		C35.3,4,38,6.7,38,10z"/>
	<path d="M53,28c0-4.4-3.6-8-8-8s-8,3.6-8,8s3.6,8,8,8C49.4,36,53,32.4,53,28z M39,28c0-3.3,2.7-6,6-6s6,2.7,6,6s-2.7,6-6,6
		C41.7,34,39,31.3,39,28z"/>
	<path d="M6,22h2c0-4.4,2.5-6.1,2.6-6.2l-1.1-1.7C9.3,14.3,6,16.5,6,22z"/>
	<path d="M8.5,12.9l-0.9-1.8C4.7,12.7,3,15.7,3,19h2C5,16.5,6.3,14.1,8.5,12.9z"/>
	<path d="M43,37c-3.3,0-5.1-3.4-5.1-3.5l-1.8,0.9c0.1,0.2,2.3,4.5,6.9,4.5V37z"/>
	<path d="M42,41c-2,0-3.9-0.9-5.2-2.6l-1.7,1.1c1.6,2.2,4.1,3.4,6.8,3.4V41z"/>
	<path d="M47,16l0,2c2,0.2,3.9,1.2,5.3,2.7l1.4-1.4C52,17.4,49.6,16.2,47,16z"/>
	<path d="M55.2,18.6l1.7-1.1c-2.2-3.3-6.4-4.4-6.6-4.4L49.8,15C49.8,15,53.4,15.9,55.2,18.6z"/>
	<rect x="19" y="24" width="2" height="2"/>
	<rect x="15" y="22" width="2" height="2"/>
	<rect x="32" y="6" width="2" height="2"/>
</g>
</svg>
