<?xml version="1.0" encoding="utf-8"?>
<!-- Generator: Adobe Illustrator 26.0.0, SVG Export Plug-In . SVG Version: 6.00 Build 0)  -->
<svg version="1.1" id="Layer_1" xmlns="http://www.w3.org/2000/svg" xmlns:xlink="http://www.w3.org/1999/xlink" x="0px" y="0px"
	 viewBox="0 0 512 512" style="enable-background:new 0 0 512 512;" xml:space="preserve">
<g>
	<path d="M378,238.8h78.4c3.9,9.8,14.9,14.5,24.7,10.7c9.8-3.9,14.5-14.9,10.7-24.7c-3.9-9.8-14.9-14.5-24.7-10.7
		c-4.9,1.9-8.7,5.8-10.7,10.7H378v-34.4h50.5c3.9,0,7-3.1,7-7v-46.1h20.9c3.9,9.8,14.9,14.5,24.7,10.7c9.8-3.9,14.5-14.9,10.7-24.7
		c-3.9-9.8-14.9-14.5-24.7-10.7c-4.9,1.9-8.7,5.8-10.7,10.7h-27.9c-3.9,0-7,3.1-7,7v46.1H378V141c0-3.9-3.1-7-7-7h-35.5V90.5h46.1
		c3.9,0,7-3.1,7-7V55.6c9.8-3.9,14.5-14.9,10.7-24.7s-14.9-14.5-24.7-10.7S360.1,35.2,364,45c1.9,4.9,5.8,8.7,10.7,10.7v20.9h-46.1
		c-3.9,0-7,3.1-7,7V134h-34.4V55.6c9.8-3.9,14.5-14.9,10.7-24.7s-14.9-14.5-24.7-10.7S258.6,35.2,262.5,45
		c1.9,4.9,5.8,8.7,10.7,10.7V134h-34.3V55.6c9.8-3.9,14.5-14.9,10.7-24.7c-3.9-9.8-14.9-14.5-24.7-10.7S210.3,35.2,214.2,45
		c1.9,4.9,5.8,8.7,10.7,10.7V134h-34.4V83.5c0-3.9-3.1-7-7-7h-46.1V55.6c9.8-3.9,14.5-14.9,10.7-24.7c-3.9-9.8-14.9-14.5-24.7-10.7
		S108.8,35.2,112.7,45c1.9,4.9,5.8,8.7,10.7,10.7v27.9c0,3.9,3.1,7,7,7h46.1V134H141c-3.9,0-7,3.1-7,7v35.5H90.5v-46.1
		c0-3.9-3.1-7-7-7H55.6c-3.9-9.8-14.9-14.5-24.7-10.7c-9.8,3.9-14.5,14.9-10.7,24.7S35.2,151.9,45,148c4.9-1.9,8.7-5.8,10.7-10.7
		h20.9v46.1c0,3.9,3.1,7,7,7H134v34.4H55.6c-3.9-9.8-14.9-14.5-24.7-10.7c-9.8,3.9-14.5,14.9-10.7,24.7s14.9,14.5,24.7,10.7
		c4.9-1.9,8.7-5.8,10.7-10.7H134v34.3H55.6c-3.9-9.8-14.9-14.5-24.7-10.7s-14.5,14.9-10.7,24.7s14.9,14.5,24.7,10.7
		c4.9-1.9,8.7-5.8,10.7-10.7H134v34.4H83.5c-3.9,0-7,3.1-7,7v46.1H55.6c-3.9-9.8-14.9-14.5-24.7-10.7s-14.5,14.9-10.7,24.7
		s14.9,14.5,24.7,10.7c4.9-1.9,8.7-5.8,10.7-10.7h27.9c3.9,0,7-3.1,7-7v-46.1H134V371c0,3.9,3.1,7,7,7h35.5v43.5h-46.1
		c-3.9,0-7,3.1-7,7v27.9c-9.8,3.9-14.5,14.9-10.7,24.7c3.9,9.8,14.9,14.5,24.7,10.7c9.8-3.9,14.5-14.9,10.7-24.7
		c-1.9-4.9-5.8-8.7-10.7-10.7v-20.9h46.1c3.9,0,7-3.1,7-7V378h34.4v78.4c-9.8,3.9-14.5,14.9-10.7,24.7c3.9,9.8,14.9,14.5,24.7,10.7
		c9.8-3.9,14.5-14.9,10.7-24.7c-1.9-4.9-5.8-8.7-10.7-10.7V378h34.3v78.4c-9.8,3.9-14.5,14.9-10.7,24.7c3.9,9.8,14.9,14.5,24.7,10.7
		c9.8-3.9,14.5-14.9,10.7-24.7c-1.9-4.9-5.8-8.7-10.7-10.7V378h34.4v50.5c0,3.9,3.1,7,7,7h46.1v20.9c-9.8,3.9-14.5,14.9-10.7,24.7
		c3.9,9.8,14.9,14.5,24.7,10.7c9.8-3.9,14.5-14.9,10.7-24.7c-1.9-4.9-5.8-8.7-10.7-10.7v-27.9c0-3.9-3.1-7-7-7h-46.1V378H371
		c3.9,0,7-3.1,7-7v-35.5h43.5v46.1c0,3.9,3.1,7,7,7h27.9c3.9,9.8,14.9,14.5,24.7,10.7c9.8-3.9,14.5-14.9,10.7-24.7
		c-3.9-9.8-14.9-14.5-24.7-10.7c-4.9,1.9-8.7,5.8-10.7,10.7h-20.9v-46.1c0-3.9-3.1-7-7-7H378v-34.4h78.4
		c3.9,9.8,14.9,14.5,24.7,10.7c9.8-3.9,14.5-14.9,10.7-24.7c-3.9-9.8-14.9-14.5-24.7-10.7c-4.9,1.9-8.7,5.8-10.7,10.7H378V238.8z
		 M474,226.8c2.8,0,5,2.2,5,5s-2.2,5-5,5s-5-2.2-5-5C469,229.1,471.2,226.8,474,226.8L474,226.8z M474,125.4c2.8,0,5,2.2,5,5
		c0,2.8-2.2,5-5,5s-5-2.2-5-5C469,127.6,471.2,125.4,474,125.4L474,125.4z M381.6,33c2.8,0,5,2.2,5,5s-2.2,5-5,5s-5-2.2-5-5
		C376.6,35.2,378.9,33,381.6,33z M280.2,33c2.8,0,5,2.2,5,5s-2.2,5-5,5s-5-2.2-5-5C275.2,35.2,277.4,33,280.2,33L280.2,33z
		 M231.8,33c2.8,0,5,2.2,5,5s-2.2,5-5,5s-5-2.2-5-5C226.8,35.2,229.1,33,231.8,33L231.8,33z M130.4,33c2.8,0,5,2.2,5,5s-2.2,5-5,5
		c-2.8,0-5-2.2-5-5C125.4,35.2,127.6,33,130.4,33L130.4,33z M38,135.4c-2.8,0-5-2.2-5-5c0-2.8,2.2-5,5-5s5,2.2,5,5
		C43,133.1,40.8,135.4,38,135.4z M38,236.8c-2.8,0-5-2.2-5-5s2.2-5,5-5s5,2.2,5,5C43,234.6,40.8,236.8,38,236.8z M38,285.2
		c-2.8,0-5-2.2-5-5s2.2-5,5-5s5,2.2,5,5C43,282.9,40.8,285.2,38,285.2z M38,386.6c-2.8,0-5-2.2-5-5s2.2-5,5-5s5,2.2,5,5
		C43,384.4,40.8,386.6,38,386.6L38,386.6z M130.4,479c-2.8,0-5-2.2-5-5s2.2-5,5-5c2.8,0,5,2.2,5,5C135.4,476.8,133.1,479,130.4,479z
		 M231.8,479c-2.8,0-5-2.2-5-5s2.2-5,5-5s5,2.2,5,5C236.8,476.8,234.6,479,231.8,479z M280.2,479c-2.8,0-5-2.2-5-5s2.2-5,5-5
		s5,2.2,5,5C285.2,476.8,282.9,479,280.2,479z M381.6,479c-2.8,0-5-2.2-5-5s2.2-5,5-5s5,2.2,5,5C386.6,476.8,384.4,479,381.6,479
		L381.6,479z M474,376.6c2.8,0,5,2.2,5,5s-2.2,5-5,5s-5-2.2-5-5C469,378.9,471.2,376.6,474,376.6z M474,275.2c2.8,0,5,2.2,5,5
		s-2.2,5-5,5s-5-2.2-5-5C469,277.4,471.2,275.2,474,275.2L474,275.2z M364,364H148V148h216V364z"/>
	<path d="M335,170H177c-3.9,0-7,3.1-7,7v158c0,3.9,3.1,7,7,7h158c3.9,0,7-3.1,7-7V177C342,173.1,338.9,170,335,170z M328,328H184
		V184h144V328z"/>
	<path d="M311,266.3c3.9,0,7-3.1,7-7v-39.5c0-3.9-3.1-7-7-7s-7,3.1-7,7v39.5C304,263.2,307.1,266.3,311,266.3z"/>
</g>
</svg>
