<?xml version="1.0" encoding="utf-8"?>
<!-- Generator: Adobe Illustrator 26.0.0, SVG Export Plug-In . SVG Version: 6.00 Build 0)  -->
<svg version="1.1" id="Layer_1" xmlns="http://www.w3.org/2000/svg" xmlns:xlink="http://www.w3.org/1999/xlink" x="0px" y="0px"
	 viewBox="0 0 411 413" style="enable-background:new 0 0 411 413;" xml:space="preserve">
<path d="M390.7,169.4l-40.4-8.2c-3-10.1-7-19.9-12.1-29.1L361,97.8c1.8-2.8,1.5-6.4-0.9-8.8l-38-38c-2.4-2.3-6-2.7-8.8-0.9L279,72.9
	c-9.2-5.1-19-9.1-29.1-12.1l-8.2-40.4c-0.7-3.3-3.5-5.6-6.9-5.6h-53.7c-3.3,0-6.2,2.3-6.9,5.6l-8.2,40.4c-10.1,3-19.9,7-29.1,12.1
	l-34.4-22.8c-2.8-1.8-6.4-1.5-8.8,0.9l-38,38c-2.3,2.4-2.7,6-0.9,8.8l22.8,34.4c-5.1,9.2-9.1,19-12.1,29.1l-40.4,8.2
	c-3.3,0.7-5.6,3.5-5.6,6.9V230c0,3.3,2.3,6.2,5.6,6.9l40.4,8.2c3,10.1,7,19.9,12.1,29.1L55,308.5c-1.8,2.8-1.5,6.4,0.9,8.8l38,38
	c2.4,2.3,6,2.7,8.8,0.9l34.4-22.8c9.2,5.1,19,9.1,29.1,12.1l8.2,40.4c0.7,3.3,3.5,5.6,6.9,5.6h53.7c3.3,0,6.2-2.3,6.9-5.6l8.2-40.4
	c10.1-3,19.9-7,29.1-12.1l34.4,22.8c2.8,1.8,6.4,1.5,8.8-0.9l38-38c2.3-2.4,2.7-6,0.9-8.8l-22.8-34.4c5.1-9.2,9.1-19,12.1-29.1
	l40.4-8.2c3.3-0.7,5.6-3.5,5.6-6.9v-53.7C396.3,172.9,394,170.1,390.7,169.4z M382.3,224.2l-39,7.9c-2.6,0.5-4.7,2.5-5.4,5.1
	c-3.1,11.8-7.8,23.1-14,33.7c-1.4,2.3-1.3,5.2,0.2,7.4l22,33.2l-29.9,29.9l-33.2-22c-2.2-1.5-5.1-1.6-7.4-0.2
	c-10.5,6.2-21.9,10.9-33.7,14c-2.6,0.7-4.6,2.8-5.1,5.4l-7.9,39h-42.2l-7.9-39c-0.5-2.6-2.5-4.7-5.1-5.4c-11.8-3.1-23.1-7.8-33.7-14
	c-2.3-1.3-5.2-1.3-7.4,0.2l-33.2,22l-29.9-29.9l22-33.2c1.5-2.2,1.6-5.1,0.2-7.4c-6.2-10.5-10.9-21.9-14-33.7
	c-0.7-2.6-2.8-4.6-5.4-5.1l-39-7.9V182l39-7.9c2.6-0.5,4.7-2.5,5.4-5.1c3.1-11.8,7.8-23.1,14-33.7c1.4-2.3,1.3-5.2-0.2-7.4l-22-33.2
	l29.9-29.9l33.2,22c2.2,1.5,5.1,1.6,7.4,0.2c10.5-6.2,21.9-10.9,33.7-14c2.6-0.7,4.6-2.8,5.1-5.4l7.9-39h42.2l7.9,39
	c0.5,2.6,2.5,4.7,5.1,5.4c11.8,3.1,23.1,7.8,33.7,14c2.3,1.4,5.2,1.3,7.4-0.2l33.2-22l29.9,29.9l-22,33.2c-1.5,2.2-1.6,5.1-0.2,7.4
	c6.2,10.5,10.9,21.9,14,33.7c0.7,2.6,2.8,4.6,5.4,5.1l39,7.9L382.3,224.2z"/>
<path d="M208,106.6c-53.3,0-96.5,43.2-96.5,96.5s43.2,96.5,96.5,96.5s96.5-43.2,96.5-96.5C304.4,149.8,261.3,106.7,208,106.6z
	 M208,285.6c-45.6,0-82.5-36.9-82.5-82.5s36.9-82.5,82.5-82.5s82.5,36.9,82.5,82.5C290.4,248.6,253.5,285.5,208,285.6z"/>
<path d="M208,136c-37.1,0-67.1,30.1-67.1,67.1s30.1,67.1,67.1,67.1s67.1-30.1,67.1-67.1C275.1,166,245.1,136,208,136z M208,256.2
	c-29.3,0-53.1-23.8-53.1-53.1c0-29.3,23.8-53.1,53.1-53.1c29.3,0,53.1,23.8,53.1,53.1C261.1,232.4,237.3,256.2,208,256.2z"/>
</svg>
