<?xml version="1.0" encoding="utf-8"?>
<!-- Generator: Adobe Illustrator 26.0.0, SVG Export Plug-In . SVG Version: 6.00 Build 0)  -->
<svg version="1.1" id="Layer_1" xmlns="http://www.w3.org/2000/svg" xmlns:xlink="http://www.w3.org/1999/xlink" x="0px" y="0px"
	 viewBox="0 0 473 484" style="enable-background:new 0 0 473 484;" xml:space="preserve">
<path d="M38.9,10.1c-14.2,0-25.5,12.6-23.8,26.7l43.4,359.3c1.9,15.9,13.3,29.1,28.7,33.5l139.2,39.5c7,2,14.4,2,21.5,0.1
	l146.4-39.7c15.9-4.3,27.7-18,29.3-34.4l36.1-358.8c1.6-13.9-9.7-26.2-23.7-26.2H38.9z M38.9,26H436c5,0,8.5,4,8,8.8l-1.1,11.4
	c-1.4-2.7-4.2-4.4-7.2-4.4c-4.4,0.1-7.9,3.7-7.8,8v15.9c-0.1,4.4,3.5,8,7.8,8c1.6,0,3.2-0.5,4.6-1.4L408,393.5l0,0
	c-1,9.9-7.9,18.1-17.6,20.7l0,0L244,453.9c-4.3,1.2-8.7,1.1-13-0.1L91.8,414.3c-9.4-2.7-16.2-10.6-17.3-20.1l-39-321.1
	c4,1.8,8.7,0,10.5-4c0.5-1.1,0.7-2.2,0.7-3.4V49.8c0.1-4.4-3.4-8-7.8-8c-0.1,0-0.2,0-0.2,0c-2.6,0-5.1,1.4-6.5,3.6L30.9,35l0,0
	C30.3,30.1,33.9,26,38.9,26z M78.4,41.8c-4.4,0.1-7.9,3.7-7.8,8v15.9c-0.1,4.4,3.4,8,7.8,8.1s8-3.4,8.1-7.8c0-0.1,0-0.1,0-0.2v-16
	c0.1-4.4-3.4-8-7.8-8C78.5,41.8,78.4,41.8,78.4,41.8z M118.1,41.8c-4.4,0.1-7.9,3.7-7.8,8v15.9c-0.1,4.4,3.4,8,7.8,8.1
	c4.4,0.1,8-3.4,8.1-7.8c0-0.1,0-0.1,0-0.2v-16c0.1-4.4-3.4-8-7.8-8C118.2,41.8,118.1,41.8,118.1,41.8z M157.8,41.8
	c-4.4,0.1-7.9,3.7-7.8,8v15.9c-0.1,4.4,3.4,8,7.8,8.1c4.4,0.1,8-3.4,8.1-7.8c0-0.1,0-0.1,0-0.2v-16c0.1-4.4-3.4-8-7.8-8
	C157.9,41.8,157.8,41.8,157.8,41.8z M197.5,41.8c-4.4,0.1-7.9,3.7-7.8,8v15.9c-0.1,4.4,3.4,8,7.8,8.1c4.4,0.1,8-3.4,8.1-7.8
	c0-0.1,0-0.1,0-0.2v-16c0.1-4.4-3.4-8-7.8-8C197.6,41.8,197.5,41.8,197.5,41.8z M237.2,41.8c-4.4,0.1-7.9,3.7-7.8,8v15.9
	c-0.1,4.4,3.4,8,7.8,8.1s8-3.4,8.1-7.8c0-0.1,0-0.1,0-0.2v-16c0.1-4.4-3.4-8-7.8-8C237.3,41.8,237.2,41.8,237.2,41.8z M276.9,41.8
	c-4.4,0.1-7.9,3.7-7.8,8v15.9c-0.1,4.4,3.4,8,7.8,8.1s8-3.4,8.1-7.8c0-0.1,0-0.1,0-0.2v-16c0.1-4.4-3.4-8-7.8-8
	C277,41.8,277,41.8,276.9,41.8z M316.6,41.8c-4.4,0.1-7.9,3.7-7.8,8v15.9c-0.1,4.4,3.4,8,7.8,8.1s8-3.4,8.1-7.8c0-0.1,0-0.1,0-0.2
	v-16c0.1-4.4-3.4-8-7.8-8C316.7,41.8,316.7,41.8,316.6,41.8z M356.3,41.8c-4.4,0.1-7.9,3.7-7.8,8v15.9c-0.1,4.4,3.4,8,7.8,8.1
	s8-3.4,8.1-7.8c0-0.1,0-0.1,0-0.2v-16c0.1-4.4-3.4-8-7.8-8C356.4,41.8,356.4,41.8,356.3,41.8z M396,41.8c-4.4,0.1-7.9,3.7-7.8,8
	v15.9c-0.1,4.4,3.4,8,7.8,8.1s8-3.4,8.1-7.8c0-0.1,0-0.1,0-0.2v-16c0.1-4.4-3.4-8-7.8-8C396.1,41.8,396.1,41.8,396,41.8z
	 M118.2,105.4c-9.6,0-17.2,8.9-15.7,18.3l20,127.1c1.2,7.7,7.9,13.4,15.7,13.4h153.3l-5.5,46.5l-47.9,14.6l-41.8-14.2l-2.8-17.6l0,0
	c-1.2-7.7-7.9-13.4-15.7-13.4h-32.2c-9.6,0-17.2,8.9-15.7,18.3l0,0l8,51.1c0.9,5.8,5,10.6,10.5,12.5l83.8,28.4l0,0
	c1.6,0.5,3.3,0.8,5,0.8c1.5,0,3.1-0.2,4.5-0.7l92.5-28.2c6-1.8,10.3-7,11.1-13.3l15.4-130.7c1.1-9.3-6.4-17.8-15.8-17.8h-166
	l-5-31.8h178.7c8,0,14.8-6.1,15.8-14l0,0l3.8-31.9c1.1-9.2-6.4-17.6-15.6-17.6H118.2V105.4z M118.2,121.3h238.2l-3.8,31.8H173.9
	c-9.6,0-17.2,8.9-15.7,18.4l5,31.8c1.2,7.7,7.9,13.4,15.7,13.4h166.2l-15.4,130.7l-92.3,28.1l-83.7-28.4l-8-51l0,0h32.2l3.5,22.4
	c0.5,2.9,2.5,5.3,5.3,6.3l48.8,16.5c1.6,0.5,3.3,0.6,4.9,0.1l55.3-16.8c3-0.9,5.2-3.5,5.6-6.7l6.1-51.7c1.1-9.3-6.4-17.7-15.8-17.7
	H138.2L118.2,121.3z M316.7,393.4c-0.7,0-1.4,0.1-2.1,0.3l-15.9,4.3c-4.3,1-6.9,5.3-5.9,9.6c1,4.3,5.3,6.9,9.6,5.9
	c0.1,0,0.3-0.1,0.4-0.1l15.9-4.3c4.2-1.1,6.8-5.4,5.7-9.7C323.6,395.8,320.4,393.3,316.7,393.4z M197.4,403.5
	c-4.4,0.1-7.9,3.7-7.8,8c0,3.5,2.4,6.6,5.9,7.6l42.1,11.9l33.7-9.1c4.3-1,6.9-5.3,5.9-9.6c-1-4.3-5.3-6.9-9.6-5.9
	c-0.1,0-0.3,0.1-0.4,0.1l-29.4,8L200,403.8C199,403.6,198.2,403.5,197.4,403.5z"/>
</svg>
