<?xml version="1.0" encoding="utf-8"?>
<!-- Generator: Adobe Illustrator 25.4.1, SVG Export Plug-In . SVG Version: 6.00 Build 0)  -->
<svg version="1.1" id="Layer_1" xmlns="http://www.w3.org/2000/svg" xmlns:xlink="http://www.w3.org/1999/xlink" x="0px" y="0px"
	 viewBox="0 0 512 512" style="enable-background:new 0 0 512 512;" xml:space="preserve">
<path d="M56.9,25c-14.2,0-25.5,12.6-23.8,26.7L76.5,411c1.9,15.9,13.3,29.1,28.7,33.5l139.2,39.5c7,2,14.4,2,21.5,0.1l146.4-39.7
	c15.9-4.3,27.7-18,29.3-34.4l36.1-358.8C479.3,37.3,468,25,454,25H56.9z M56.9,40.9H454c5,0,8.5,4,8,8.8l-1.1,11.4
	c-1.4-2.7-4.2-4.4-7.2-4.4c-4.4,0.1-7.9,3.7-7.8,8v15.9c-0.1,4.4,3.5,8,7.8,8c1.6,0,3.2-0.5,4.6-1.4l-32.3,321.2c0,0,0,0,0,0
	c-1,9.9-7.9,18.1-17.6,20.7c0,0,0,0,0,0l-146.4,39.7c-4.3,1.2-8.7,1.1-13-0.1l-139.2-39.5c-9.4-2.7-16.2-10.6-17.3-20.1L53.5,88
	c4,1.8,8.7,0,10.5-4c0.5-1.1,0.7-2.2,0.7-3.4V64.7c0.1-4.4-3.4-8-7.8-8c-0.1,0-0.2,0-0.2,0c-2.6,0-5.1,1.4-6.5,3.6l-1.3-10.4
	c0,0,0,0,0,0C48.3,45,51.9,40.9,56.9,40.9z M96.4,56.7c-4.4,0.1-7.9,3.7-7.8,8v15.9c-0.1,4.4,3.4,8,7.8,8.1c4.4,0.1,8-3.4,8.1-7.8
	c0-0.1,0-0.1,0-0.2V64.7c0.1-4.4-3.4-8-7.8-8C96.5,56.7,96.4,56.7,96.4,56.7z M136.1,56.7c-4.4,0.1-7.9,3.7-7.8,8v15.9
	c-0.1,4.4,3.4,8,7.8,8.1c4.4,0.1,8-3.4,8.1-7.8c0-0.1,0-0.1,0-0.2V64.7c0.1-4.4-3.4-8-7.8-8C136.2,56.7,136.1,56.7,136.1,56.7z
	 M175.8,56.7c-4.4,0.1-7.9,3.7-7.8,8v15.9c-0.1,4.4,3.4,8,7.8,8.1c4.4,0.1,8-3.4,8.1-7.8c0-0.1,0-0.1,0-0.2V64.7
	c0.1-4.4-3.4-8-7.8-8C175.9,56.7,175.8,56.7,175.8,56.7z M215.5,56.7c-4.4,0.1-7.9,3.7-7.8,8v15.9c-0.1,4.4,3.4,8,7.8,8.1
	c4.4,0.1,8-3.4,8.1-7.8c0-0.1,0-0.1,0-0.2V64.7c0.1-4.4-3.4-8-7.8-8C215.6,56.7,215.5,56.7,215.5,56.7z M255.2,56.7
	c-4.4,0.1-7.9,3.7-7.8,8v15.9c-0.1,4.4,3.4,8,7.8,8.1c4.4,0.1,8-3.4,8.1-7.8c0-0.1,0-0.1,0-0.2V64.7c0.1-4.4-3.4-8-7.8-8
	C255.3,56.7,255.2,56.7,255.2,56.7z M294.9,56.7c-4.4,0.1-7.9,3.7-7.8,8v15.9c-0.1,4.4,3.4,8,7.8,8.1s8-3.4,8.1-7.8
	c0-0.1,0-0.1,0-0.2V64.7c0.1-4.4-3.4-8-7.8-8C295,56.7,295,56.7,294.9,56.7z M334.6,56.7c-4.4,0.1-7.9,3.7-7.8,8v15.9
	c-0.1,4.4,3.4,8,7.8,8.1c4.4,0.1,8-3.4,8.1-7.8c0-0.1,0-0.1,0-0.2V64.7c0.1-4.4-3.4-8-7.8-8C334.7,56.7,334.7,56.7,334.6,56.7z
	 M374.3,56.7c-4.4,0.1-7.9,3.7-7.8,8v15.9c-0.1,4.4,3.4,8,7.8,8.1c4.4,0.1,8-3.4,8.1-7.8c0-0.1,0-0.1,0-0.2V64.7
	c0.1-4.4-3.4-8-7.8-8C374.4,56.7,374.4,56.7,374.3,56.7z M414,56.7c-4.4,0.1-7.9,3.7-7.8,8v15.9c-0.1,4.4,3.4,8,7.8,8.1
	c4.4,0.1,8-3.4,8.1-7.8c0-0.1,0-0.1,0-0.2V64.7c0.1-4.4-3.4-8-7.8-8C414.1,56.7,414.1,56.7,414,56.7z M136.2,120.3
	c-9.6,0-17.2,8.9-15.7,18.3l20,127.1c1.2,7.7,7.9,13.4,15.7,13.4h153.3l-5.5,46.5l-47.9,14.6l-41.8-14.2l-2.8-17.6c0,0,0,0,0,0
	c-1.2-7.7-7.9-13.4-15.7-13.4h-32.2c-9.6,0-17.2,8.9-15.7,18.3c0,0,0,0,0,0l8,51.1c0.9,5.8,5,10.6,10.5,12.5l83.8,28.4c0,0,0,0,0,0
	c1.6,0.5,3.3,0.8,5,0.8c1.5,0,3.1-0.2,4.5-0.7l92.5-28.2c6-1.8,10.3-7,11.1-13.3l15.4-130.7c1.1-9.3-6.4-17.8-15.8-17.8H196.9
	l-5-31.8h178.7c8,0,14.8-6.1,15.8-14v0l3.8-31.9c1.1-9.2-6.4-17.6-15.6-17.6H136.2z M136.2,136.2h238.2l-3.8,31.8H191.9
	c-9.6,0-17.2,8.9-15.7,18.4l5,31.8c1.2,7.7,7.9,13.4,15.7,13.4h166.2l-15.4,130.7l-92.3,28.1L171.7,362l-8-51v0h32.2l3.5,22.4
	c0.5,2.9,2.5,5.3,5.3,6.3l48.8,16.5c1.6,0.5,3.3,0.6,4.9,0.1l55.3-16.8c3-0.9,5.2-3.5,5.6-6.7l6.1-51.7c1.1-9.3-6.4-17.7-15.8-17.7
	H156.2L136.2,136.2z M334.7,408.3c-0.7,0-1.4,0.1-2.1,0.3l-15.9,4.3c-4.3,1-6.9,5.3-5.9,9.6c1,4.3,5.3,6.9,9.6,5.9
	c0.1,0,0.3-0.1,0.4-0.1l15.9-4.3c4.2-1.1,6.8-5.4,5.7-9.7C341.6,410.7,338.4,408.2,334.7,408.3z M215.4,418.4
	c-4.4,0.1-7.9,3.7-7.8,8c0,3.5,2.4,6.6,5.9,7.6l42.1,11.9l33.7-9.1c4.3-1,6.9-5.3,5.9-9.6c-1-4.3-5.3-6.9-9.6-5.9
	c-0.1,0-0.3,0.1-0.4,0.1l-29.4,8l-37.8-10.7C217,418.5,216.2,418.4,215.4,418.4z"/>
</svg>
