<?xml version="1.0" encoding="utf-8"?>
<!-- Generator: Adobe Illustrator 25.4.1, SVG Export Plug-In . SVG Version: 6.00 Build 0)  -->
<svg version="1.1" xmlns="http://www.w3.org/2000/svg" xmlns:xlink="http://www.w3.org/1999/xlink" x="0px" y="0px"
	 viewBox="0 0 512 512" style="enable-background:new 0 0 512 512;" xml:space="preserve">
<g id="Capa_1">
	<g>
		<path d="M166,353c-31.7,0-59.3-22.5-65.7-53.6L99,293H15c-3.9,0-7-3.1-7-7v-60c0-3.9,3.1-7,7-7h84l1.3-6.4
			c6.3-31.1,33.9-53.6,65.7-53.6h79.6c2.8,0,4.6,1.5,5.3,2.5c0.8,0.9,2,2.9,1.6,5.7l-10,60c-0.6,3.4-3.5,5.8-6.9,5.8H173v46h42.6
			c2.8,0,4.6,1.5,5.3,2.5c0.8,0.9,2,2.9,1.6,5.7l-10,60c-0.6,3.4-3.5,5.8-6.9,5.8H166z M116,303.7c7.5,21.1,27.6,35.3,50,35.3h33.7
			l7.7-46h-95.1L116,303.7z M22,279h137v-46H22V279z M166,173c-22.4,0-42.5,14.2-50,35.3l-3.8,10.7h117.4l7.7-46H166z"/>
		<path d="M266.4,353c-2.8,0-4.6-1.5-5.3-2.5c-0.8-0.9-2-2.9-1.6-5.7l10-60c0.6-3.4,3.5-5.8,6.9-5.8H339v-46h-42.6
			c-2.8,0-4.6-1.5-5.3-2.5c-0.8-0.9-2-2.9-1.6-5.7l10-60c0.6-3.4,3.5-5.8,6.9-5.8H346c31.7,0,59.3,22.5,65.7,53.6l1.3,6.4h84
			c3.9,0,7,3.1,7,7v60c0,3.9-3.1,7-7,7h-84l-1.3,6.4c-6.3,31.1-33.9,53.6-65.7,53.6H266.4z M274.7,339H346c22.4,0,42.5-14.2,50-35.3
			l3.8-10.7H282.3L274.7,339z M353,279h137v-46H353V279z M304.7,219h95.1l-3.8-10.7c-7.5-21.1-27.6-35.3-50-35.3h-33.7L304.7,219z"
			/>
		<path d="M361,474.9c-2.5,0-4.8-1.3-6.1-3.5l-30-52c-1.9-3.3-0.8-7.6,2.6-9.6c1.1-0.6,2.3-0.9,3.5-0.9c2.5,0,4.8,1.3,6.1,3.5l30,52
			c1.9,3.3,0.8,7.6-2.6,9.6C363.4,474.6,362.2,474.9,361,474.9L361,474.9z"/>
		<path d="M181,103.1c-2.5,0-4.8-1.3-6.1-3.5l-30-52c-1.9-3.3-0.8-7.6,2.6-9.6c1.1-0.6,2.3-0.9,3.5-0.9c2.5,0,4.8,1.3,6.1,3.5l30,52
			c1.9,3.3,0.8,7.6-2.6,9.6C183.4,102.8,182.2,103.1,181,103.1L181,103.1z"/>
		<path d="M151,474.9c-1.2,0-2.4-0.3-3.5-0.9c-3.3-1.9-4.5-6.2-2.6-9.6l30-52c1.2-2.2,3.6-3.5,6.1-3.5c1.2,0,2.4,0.3,3.5,0.9
			c1.6,0.9,2.8,2.4,3.3,4.2c0.5,1.8,0.2,3.7-0.7,5.3l-30,52C155.8,473.6,153.5,474.9,151,474.9L151,474.9z"/>
		<path d="M331,103.1c-1.2,0-2.4-0.3-3.5-0.9c-3.3-1.9-4.5-6.2-2.6-9.6l30-52c1.2-2.2,3.6-3.5,6.1-3.5c1.2,0,2.4,0.3,3.5,0.9
			c3.3,1.9,4.5,6.2,2.6,9.6l-30,52C335.8,101.8,333.5,103.1,331,103.1L331,103.1z"/>
		<path d="M256,504c-3.9,0-7-3.1-7-7v-61c0-3.9,3.1-7,7-7c3.9,0,7,3.1,7,7v61C263,500.9,259.9,504,256,504z"/>
		<path d="M256,83c-3.9,0-7-3.1-7-7V15c0-3.9,3.1-7,7-7c3.9,0,7,3.1,7,7v61C263,79.9,259.9,83,256,83z"/>
	</g>
</g>
<g id="Layer_2">
</g>
</svg>
