<?xml version="1.0" encoding="utf-8"?>
<!-- Generator: Adobe Illustrator 26.0.0, SVG Export Plug-In . SVG Version: 6.00 Build 0)  -->
<svg version="1.1" id="Capa_1" xmlns="http://www.w3.org/2000/svg" xmlns:xlink="http://www.w3.org/1999/xlink" x="0px" y="0px"
	 viewBox="0 0 512 512" style="enable-background:new 0 0 512 512;" xml:space="preserve">
<path d="M357,320.7l-18.4-18.4c3.1-5.5,5.6-11.2,7.5-17.1h27c4.1,0,7.5-3.4,7.5-7.5v-43.4c0-4.1-3.4-7.5-7.5-7.5h-27
	c-1.9-5.9-4.4-11.7-7.5-17.1l18.4-18.4c2.9-2.9,2.9-7.7,0-10.6l-28.2-28.2c-1.4-1.4-3.3-2.2-5.3-2.2s-3.9,0.8-5.3,2.2l-19.1,19.1
	c-4.5-2.3-9.2-4.3-14.1-5.8v-27c0-4.1-3.4-7.5-7.5-7.5h-39.9c-4.1,0-7.5,3.4-7.5,7.5v26c-6,1.7-11.8,4-17.4,6.8l-19.1-19.1
	c-1.4-1.4-3.3-2.2-5.3-2.2s-3.9,0.8-5.3,2.2L155,180.7c-2.9,2.9-2.9,7.7,0,10.6l18.4,18.4c-3.1,5.5-5.6,11.2-7.5,17.1h-27
	c-4.1,0-7.5,3.4-7.5,7.5v43.4c0,4.1,3.4,7.5,7.5,7.5h27c1.9,5.9,4.4,11.7,7.5,17.1L155,320.7c-2.9,2.9-2.9,7.7,0,10.6l28.2,28.2
	c2.9,2.9,7.7,2.9,10.6,0l19.1-19.1c5.6,2.9,11.4,5.1,17.4,6.8v26c0,4.1,3.4,7.5,7.5,7.5h39.9c4.1,0,7.5-3.4,7.5-7.5v-27
	c4.8-1.6,9.5-3.5,14.1-5.8l19.1,19.1c2.9,2.9,7.7,2.9,10.6,0l28.2-28.2C359.9,328.3,359.9,323.6,357,320.7L357,320.7z M323.5,343.5
	l-17.8-17.8c-2.4-2.4-6.2-2.9-9.1-1.1c-6.5,3.9-13.6,6.8-20.9,8.7c-3.3,0.8-5.6,3.8-5.6,7.3v25.1h-24.9v-24.3c0-3.5-2.5-6.6-5.9-7.3
	c-8.4-1.8-16.5-5-23.9-9.4c-2.9-1.8-6.7-1.3-9.1,1.1l-17.8,17.8L170.9,326l17.2-17.2c2.5-2.5,2.9-6.4,1-9.4
	c-4.7-7.3-8.2-15.2-10.3-23.6c-0.8-3.3-3.8-5.6-7.3-5.6h-25.1v-28.4h25.1c3.4,0,6.4-2.3,7.3-5.6c2.1-8.4,5.6-16.3,10.3-23.6
	c1.9-3,1.5-6.9-1-9.4L170.9,186l17.6-17.6l17.8,17.8c2.4,2.4,6.2,2.9,9.1,1.1c7.4-4.4,15.5-7.6,23.9-9.4c3.5-0.7,5.9-3.8,5.9-7.3
	v-24.3h24.9v25.1c0,3.4,2.3,6.4,5.6,7.3c7.3,1.9,14.4,4.8,20.9,8.7c2.9,1.8,6.7,1.3,9.1-1.1l17.8-17.8l17.6,17.6l-17.2,17.2
	c-2.5,2.5-2.9,6.4-1,9.4c4.7,7.3,8.2,15.2,10.3,23.6c0.8,3.3,3.8,5.6,7.3,5.6h25.1v28.4h-25.1c-3.4,0-6.4,2.3-7.3,5.6
	c-2.1,8.4-5.6,16.3-10.3,23.6c-1.9,3-1.5,6.9,1,9.4l17.2,17.2L323.5,343.5z"/>
<path d="M256,218.2c-1.9,0-3.9,0.1-5.7,0.4c-4.1,0.6-6.9,4.5-6.3,8.5c0.6,4.1,4.5,6.9,8.5,6.3c1.1-0.2,2.3-0.3,3.5-0.3
	c12.6,0,22.8,10.2,22.8,22.8c0,12.6-10.2,22.8-22.8,22.8s-22.8-10.2-22.8-22.8c0-1.2,0.1-2.4,0.3-3.5c0.6-4.1-2.2-7.9-6.3-8.6
	c-4.1-0.6-7.9,2.2-8.6,6.3c-0.3,1.9-0.4,3.8-0.4,5.8c0,20.8,17,37.8,37.8,37.8s37.8-17,37.8-37.8S276.8,218.2,256,218.2L256,218.2z"
	/>
<path d="M443.9,45.5c-12.5,0-22.7,10.2-22.7,22.7s10.2,22.7,22.7,22.7s22.7-10.2,22.7-22.7S456.4,45.5,443.9,45.5z M443.9,75.8
	c-4.2,0-7.7-3.4-7.7-7.7s3.4-7.7,7.7-7.7s7.7,3.4,7.7,7.7S448.1,75.8,443.9,75.8z"/>
<path d="M504.5,45.5h-12.7c-5.2-11.1-14.1-20-25.2-25.2V7.5c0-4.1-3.4-7.5-7.5-7.5h-30.3c-4.1,0-7.5,3.4-7.5,7.5v12.7
	c-11.1,5.2-20,14.1-25.2,25.2h-12.7c-4.1,0-7.5,3.4-7.5,7.5v30.3c0,4.1,3.4,7.5,7.5,7.5H396c5.2,11.1,14.1,20,25.2,25.2v12.7
	c0,4.1,3.4,7.5,7.5,7.5H459c4.1,0,7.5-3.4,7.5-7.5V116c11.1-5.2,20-14.1,25.2-25.2h12.7c4.1,0,7.5-3.4,7.5-7.5V53
	C512,48.8,508.6,45.5,504.5,45.5L504.5,45.5z M497,75.8h-10.3c-3.2,0-6,2-7.1,5c-3.8,10.7-12.4,19.3-23.1,23.1c-3,1.1-5,3.9-5,7.1
	v10.3h-15.3V111c0-3.2-2-6-5-7.1c-10.7-3.8-19.3-12.4-23.1-23.1c-1.1-3-3.9-5-7.1-5h-10.3V60.5H401c3.2,0,6-2,7.1-5
	c3.8-10.7,12.4-19.3,23.1-23.1c3-1.1,5-3.9,5-7.1V15h15.3v10.3c0,3.2,2,6,5,7.1c10.7,3.8,19.3,12.4,23.1,23.1c1.1,3,3.9,5,7.1,5H497
	V75.8z"/>
<path d="M466.5,443.9c0-12.5-10.2-22.7-22.7-22.7s-22.7,10.2-22.7,22.7s10.2,22.7,22.7,22.7S466.5,456.4,466.5,443.9z M436.2,443.9
	c0-4.2,3.4-7.7,7.7-7.7s7.7,3.4,7.7,7.7s-3.4,7.7-7.7,7.7S436.2,448.1,436.2,443.9z"/>
<path d="M504.5,421.2h-12.7c-5.2-11.1-14.1-20-25.2-25.2v-12.7c0-4.1-3.4-7.5-7.5-7.5h-30.3c-4.1,0-7.5,3.4-7.5,7.5v13.3
	c-2,2.1-2.7,5.2-1.6,8.1c1.6,3.8,6,5.6,9.8,4.1c0.6-0.2,1.2-0.5,1.8-0.7c3-1.1,5-3.9,5-7.1v-10.3h15.3V401c0,3.2,2,6,5,7.1
	c10.7,3.8,19.3,12.4,23.1,23.1c1.1,3,3.9,5,7.1,5H497v15.3h-10.3c-3.2,0-6,2-7.1,5c-3.8,10.7-12.4,19.3-23.1,23.1
	c-3,1.1-5,3.9-5,7.1V497h-15.3v-10.3c0-3.2-2-6-5-7.1c-10.7-3.8-19.3-12.4-23.1-23.1c-1.1-3-3.9-5-7.1-5h-10.3v-15.3H401
	c3.2,0,6-2,7.1-5c0.2-0.6,0.5-1.3,0.7-1.9c1.6-3.8-0.2-8.2-4.1-9.8c-2.9-1.2-6.1-0.4-8.2,1.7h-13.3c-4.1,0-7.5,3.4-7.5,7.5V459
	c0,4.1,3.4,7.5,7.5,7.5H396c5.2,11.1,14.1,20,25.2,25.2v12.7c0,4.1,3.4,7.5,7.5,7.5H459c4.1,0,7.5-3.4,7.5-7.5v-12.7
	c11.1-5.2,20-14.1,25.2-25.2h12.7c4.1,0,7.5-3.4,7.5-7.5v-30.3C512,424.6,508.6,421.2,504.5,421.2z"/>
<path d="M90.8,68.1c0-12.5-10.2-22.7-22.7-22.7S45.5,55.6,45.5,68.1s10.2,22.7,22.7,22.7S90.8,80.6,90.8,68.1z M60.5,68.1
	c0-4.2,3.4-7.7,7.7-7.7s7.7,3.4,7.7,7.7s-3.4,7.7-7.7,7.7S60.5,72.3,60.5,68.1z"/>
<path d="M7.5,90.8h12.7c5.2,11.1,14.1,20,25.2,25.2v12.7c0,4.1,3.4,7.5,7.5,7.5h30.3c4.1,0,7.5-3.4,7.5-7.5V116
	c11.1-5.2,20-14.1,25.2-25.2h12.7c4.1,0,7.5-3.4,7.5-7.5V53c0-4.1-3.4-7.5-7.5-7.5H116c-5.2-11.1-14.1-20-25.2-25.2V7.5
	c0-4.1-3.4-7.5-7.5-7.5H53c-4.1,0-7.5,3.4-7.5,7.5v13.3c-2,2.1-2.7,5.2-1.6,8.1c1.6,3.8,6,5.6,9.8,4.1c0.6-0.2,1.2-0.5,1.8-0.7
	c3-1.1,5-3.9,5-7.1V15h15.3v10.3c0,3.2,2,6,5,7.1c10.7,3.8,19.3,12.4,23.1,23.1c1.1,3,3.9,5,7.1,5h10.3v15.3H111c-3.2,0-6,2-7.1,5
	c-3.8,10.7-12.4,19.3-23.1,23.1c-3,1.1-5,3.9-5,7.1v10.3H60.5V111c0-3.2-2-6-5-7.1c-10.7-3.8-19.3-12.4-23.1-23.1
	c-1.1-3-3.9-5-7.1-5H15V60.5h10.3c3.2,0,6-2,7.1-5c0.2-0.6,0.5-1.2,0.7-1.9c1.6-3.8-0.2-8.2-4-9.8c-2.9-1.2-6.1-0.5-8.2,1.7H7.5
	C3.4,45.5,0,48.8,0,53v30.3C0,87.4,3.4,90.8,7.5,90.8z"/>
<path d="M128.7,421.2H116c-5.2-11.1-14.1-20-25.2-25.2v-12.7c0-4.1-3.4-7.5-7.5-7.5H53c-4.1,0-7.5,3.4-7.5,7.5V396
	c-11.1,5.2-20,14.1-25.2,25.2H7.5c-4.1,0-7.5,3.4-7.5,7.5V459c0,4.1,3.4,7.5,7.5,7.5h12.7c5.2,11.1,14.1,20,25.2,25.2v12.7
	c0,4.1,3.4,7.5,7.5,7.5h30.3c4.1,0,7.5-3.4,7.5-7.5v-12.7c11.1-5.2,20-14.1,25.2-25.2h12.7c4.1,0,7.5-3.4,7.5-7.5v-30.3
	C136.2,424.6,132.9,421.2,128.7,421.2L128.7,421.2z M121.2,451.5H111c-3.2,0-6,2-7.1,5c-3.8,10.7-12.4,19.3-23.1,23.1
	c-3,1.1-5,3.9-5,7.1V497H60.5v-10.3c0-3.2-2-6-5-7.1c-10.7-3.8-19.3-12.4-23.1-23.1c-1.1-3-3.9-5-7.1-5H15v-15.3h10.3
	c3.2,0,6-2,7.1-5c3.8-10.7,12.4-19.3,23.1-23.1c3-1.1,5-3.9,5-7.1v-10.3h15.3V401c0,3.2,2,6,5,7.1c10.7,3.8,19.3,12.4,23.1,23.1
	c1.1,3,3.9,5,7.1,5h10.3L121.2,451.5z"/>
<path d="M68.1,421.2c-12.5,0-22.7,10.2-22.7,22.7s10.2,22.7,22.7,22.7s22.7-10.2,22.7-22.7S80.6,421.2,68.1,421.2z M68.1,451.5
	c-4.2,0-7.7-3.4-7.7-7.7s3.4-7.7,7.7-7.7s7.7,3.4,7.7,7.7S72.3,451.5,68.1,451.5z"/>
<path d="M123.9,113.3c-2.9-2.9-7.7-2.9-10.6,0c-2.9,2.9-2.9,7.7,0,10.6l21.5,21.5h-6.1c-4.1,0-7.5,3.4-7.5,7.5s3.4,7.5,7.5,7.5H153
	c4.1,0,7.5-3.4,7.5-7.5v-24.2c0-4.1-3.4-7.5-7.5-7.5s-7.5,3.4-7.5,7.5v6.1L123.9,113.3z"/>
<path d="M351.6,153.7c0.4,3.8,3.7,6.8,7.5,6.8h24.2c4.1,0,7.5-3.4,7.5-7.5s-3.4-7.5-7.5-7.5h-6.1l21.5-21.5c2.9-2.9,2.9-7.7,0-10.6
	c-2.9-2.9-7.7-2.9-10.6,0l-21.5,21.5v-6.1c0-4.1-3.4-7.5-7.5-7.5s-7.5,3.4-7.5,7.5V153C351.5,153.2,351.5,153.5,351.6,153.7z"/>
<path d="M160.4,356.3c-0.4-3.8-3.7-6.8-7.5-6.8h-24.2c-4.1,0-7.5,3.4-7.5,7.5s3.4,7.5,7.5,7.5h6.1l-21.5,21.5
	c-2.9,2.9-2.9,7.7,0,10.6c1.5,1.5,3.4,2.2,5.3,2.2c1.9,0,3.8-0.7,5.3-2.2l21.5-21.5v6.1c0,4.1,3.4,7.5,7.5,7.5s7.5-3.4,7.5-7.5V357
	C160.5,356.8,160.5,356.5,160.4,356.3L160.4,356.3z"/>
<path d="M388.1,396.7c1.5,1.5,3.4,2.2,5.3,2.2s3.8-0.7,5.3-2.2c2.9-2.9,2.9-7.7,0-10.6l-21.5-21.5h6.1c4.1,0,7.5-3.4,7.5-7.5
	s-3.4-7.5-7.5-7.5H359c-4.1,0-7.5,3.4-7.5,7.5v24.2c0,4.1,3.4,7.5,7.5,7.5s7.5-3.4,7.5-7.5v-6.1L388.1,396.7z"/>
</svg>
