<?xml version="1.0" encoding="utf-8"?>
<!-- Generator: Adobe Illustrator 26.0.0, SVG Export Plug-In . SVG Version: 6.00 Build 0)  -->
<svg version="1.1" id="Capa_1" xmlns="http://www.w3.org/2000/svg" xmlns:xlink="http://www.w3.org/1999/xlink" x="0px" y="0px"
	 viewBox="0 0 512 512" style="enable-background:new 0 0 512 512;" xml:space="preserve">
<path d="M454.7,156.4l10.5-12.2l10.2,8.8c1.4,1.2,3.1,1.8,4.9,1.8c0.2,0,0.4,0,0.6,0c2-0.2,3.9-1.1,5.2-2.6l16.2-18.9
	c2.7-3.2,2.4-7.9-0.8-10.6l-55.8-47.9c-1.5-1.3-3.5-2-5.5-1.8c-2,0.1-3.9,1.1-5.2,2.6l-16.2,18.9c-2.7,3.2-2.4,7.9,0.8,10.6
	l10.2,8.8l-11.3,13.1c-23.1-14.7-49.4-24.9-77.5-29.3V74.9h26c12.1,0,22-9.9,22-22V35.3c0-12.1-9.9-22-22-22H253.6
	c-12.1,0-22,9.9-22,22v17.6c0,12.1,9.9,22,22,22h26v22.8c-28.7,4.4-55.5,14.9-78.9,30.1l-12-14l10.2-8.8c1.5-1.3,2.5-3.2,2.6-5.2
	c0.1-2-0.5-4-1.8-5.5l-16.2-18.9c-2.7-3.2-7.5-3.5-10.6-0.8l-55.7,47.9c-1.5,1.3-2.5,3.2-2.6,5.2c-0.1,2,0.5,4,1.8,5.5l16.2,18.9
	c1.5,1.7,3.6,2.6,5.7,2.6c1.7,0,3.5-0.6,4.9-1.8l10.2-8.8l11.5,13.3c-9.9,10.3-18.7,21.7-26.3,34c-0.3,0-0.5,0-0.8,0H90
	c-4.2,0-7.5,3.4-7.5,7.5s3.4,7.5,7.5,7.5h40c-4,7.9-7.4,16.1-10.4,24.5H43.4c-4.2,0-7.5,3.4-7.5,7.5c0,4.2,3.4,7.5,7.5,7.5h71.7
	c-2.7,10.5-4.6,21.3-5.6,32.3H7.5c-4.2,0-7.5,3.4-7.5,7.5c0,4.2,3.4,7.5,7.5,7.5h101.1c0,1.1,0,2.3,0,3.4c0,9.8,0.7,19.5,2.1,28.9
	H36.4c-4.2,0-7.5,3.4-7.5,7.5c0,4.2,3.4,7.5,7.5,7.5h77.1c1.9,8.4,4.3,16.6,7.1,24.5H83c-4.2,0-7.5,3.4-7.5,7.5
	c0,4.2,3.4,7.5,7.5,7.5h43.8c31.8,69.6,102.1,118,183.5,118c42.5,0,83.2-13.1,117.6-37.8c3.4-2.4,4.2-7.2,1.7-10.5
	c-2.4-3.4-7.2-4.2-10.5-1.7c-31.8,22.9-69.4,35-108.8,35c-102.9,0-186.6-83.7-186.6-186.6c0-102.9,83.7-186.6,186.6-186.6
	c49.8,0,95.1,19.6,128.6,51.5c0.1,0.1,0.1,0.1,0.2,0.2c35.6,34,57.8,81.9,57.8,134.8c0,49.9-19.4,96.8-54.8,132c-3,2.9-3,7.7,0,10.7
	c2.9,3,7.7,3,10.7,0C491,401.7,512,351,512,297C512,242.4,490.1,192.8,454.7,156.4L454.7,156.4z M441.6,91.1l44.3,38.1l-6.4,7.4
	l-44.3-38.1L441.6,91.1z M441.3,123.7l12.4,10.7l-10,11.6c-4.1-3.6-8.3-7.1-12.7-10.4L441.3,123.7z M276.9,59.8V28.4h12.2v31.4
	H276.9z M304.2,28.4h12.2v31.4h-12.2V28.4z M331.5,59.8V28.4h12.2v31.4H331.5z M374,35.3v17.6c0,3.8-3.1,6.9-6.9,6.9h-8.2V28.4h8.2
	C370.9,28.4,374,31.5,374,35.3z M246.7,52.9V35.3c0-3.8,3.1-6.9,6.9-6.9h8.2v31.4h-8.2C249.8,59.8,246.7,56.7,246.7,52.9L246.7,52.9
	z M139,136.6l-6.4-7.4L177,91.1l6.4,7.4l-10.2,8.8c0,0,0,0,0,0l-23.9,20.5c0,0,0,0,0,0L139,136.6z M165,134.2l12.2-10.5l11.1,12.9
	c-4.4,3.3-8.6,6.8-12.6,10.5l-10.9-12.7L165,134.2z M294.7,96V74.9h31.2V96c-5.2-0.4-10.4-0.6-15.6-0.6
	C305.1,95.4,299.9,95.6,294.7,96L294.7,96z"/>
<path d="M247.1,159.5c-1.9-3.7-6.5-5.1-10.2-3.2c-45.9,24-77.3,68.9-84,120.2c-11.3,86.8,50.1,166.6,136.9,177.9
	c6.9,0.9,13.8,1.3,20.6,1.3c78.5,0,146.9-58.4,157.3-138.2c5.5-42-5.7-83.7-31.6-117.3c-25.9-33.6-63.2-55.1-105.3-60.6
	c-20.5-2.7-41-1.4-60.8,3.8c-4,1.1-6.4,5.2-5.4,9.2c1.1,4,5.2,6.4,9.2,5.4c9.5-2.5,19.2-4,28.9-4.5v19.8c0,4.2,3.4,7.5,7.5,7.5
	s7.5-3.4,7.5-7.5v-19.8c3.7,0.2,7.3,0.5,11,1c29.4,3.8,56.3,16.3,77.8,35.9L393,204.1c-2.9,2.9-2.9,7.7,0,10.7
	c1.5,1.5,3.4,2.2,5.3,2.2c1.9,0,3.9-0.7,5.3-2.2l13.6-13.6c2.4,2.7,4.7,5.4,6.9,8.3c18.1,23.5,28.2,51.3,29.6,80.2h-18.7
	c-4.2,0-7.5,3.4-7.5,7.5c0,4.2,3.4,7.5,7.5,7.5h18.7c-0.2,3.6-0.5,7.2-1,10.8c-3.9,29.8-16.7,56.4-35.5,77.2l-12.9-12.9
	c-2.9-2.9-7.7-2.9-10.7,0s-2.9,7.7,0,10.7l12.9,12.9c-23.8,21.5-54.6,34.9-87.8,36.9v-18.5c0-4.2-3.4-7.5-7.5-7.5
	c-4.2,0-7.5,3.4-7.5,7.5v18.5c-4-0.2-7.9-0.5-12-1c-29.5-3.8-55.8-16.5-76.5-34.9l13.4-13.4c2.9-2.9,2.9-7.7,0-10.7s-7.7-2.9-10.7,0
	L204.5,394c-21.8-23.8-35.5-54.8-37.5-88.3h19.6c4.2,0,7.5-3.4,7.5-7.5c0-4.2-3.4-7.5-7.5-7.5h-19.7c0.2-4,0.5-8.1,1.1-12.1
	c3.8-29,16.3-55.8,35.3-77.1l14.1,14.1c1.5,1.5,3.4,2.2,5.3,2.2c1.9,0,3.9-0.7,5.3-2.2c2.9-2.9,2.9-7.7,0-10.7l-14.1-14.1
	c9-8.2,19.1-15.3,30.1-21C247.6,167.7,249,163.2,247.1,159.5L247.1,159.5z"/>
<path d="M310.3,227.8c-4.2,0-7.5,3.4-7.5,7.5v44.8c-6.4,2.9-10.9,9.4-10.9,16.9c0,10.2,8.3,18.5,18.5,18.5c2.8,0,5.4-0.6,7.8-1.8
	l50.4,50.4c1.5,1.5,3.4,2.2,5.3,2.2c1.9,0,3.9-0.7,5.3-2.2c2.9-2.9,2.9-7.7,0-10.7L328,302.3c0.5-1.7,0.8-3.4,0.8-5.3
	c0-7.5-4.5-14-10.9-16.9v-44.8C317.9,231.2,314.5,227.8,310.3,227.8L310.3,227.8z M306.9,297c0-1.9,1.5-3.4,3.4-3.4
	c1.9,0,3.4,1.5,3.4,3.4s-1.5,3.4-3.4,3.4C308.5,300.4,306.9,298.9,306.9,297z"/>
</svg>
