<?xml version="1.0" encoding="utf-8"?>
<!-- Generator: Adobe Illustrator 27.0.1, SVG Export Plug-In . SVG Version: 6.00 Build 0)  -->
<svg version="1.1" id="Layer_1" xmlns="http://www.w3.org/2000/svg" xmlns:xlink="http://www.w3.org/1999/xlink" x="0px" y="0px"
	 viewBox="0 0 147 138" style="enable-background:new 0 0 147 138;" xml:space="preserve">
<style type="text/css">
	.st0{fill:#7E5DA7;}
</style>
<g id="svg_3">
	<path id="svg_4" class="st0" d="M92.21,42.96l-6.13,25.53c7.15-6.13,12.77-9.19,15.32-9.19c0.51,0,1.53,0.51,2.04,1.02
		c0.51,0.51,1.02,1.53,1.02,2.55s-1.02,2.04-2.55,3.06c-8.17,4.6-14.3,7.66-17.36,10.21c-2.55,11.74-5.62,19.4-8.68,22.98
		c-4.09,4.6-8.68,7.15-13.28,7.15c-6.13,0-8.68-2.55-8.68-7.15c0-1.53,0-2.55,0.51-3.57c0-0.51,0.51-1.02,0.51-1.53
		s0.51-1.02,1.02-1.53c0.51-0.51,0.51-1.02,1.02-1.53c0-0.51,0.51-1.02,1.02-1.53c0.51-0.51,1.53-1.02,1.53-1.53
		s0.51-0.51,1.02-1.02s1.53-1.53,2.55-2.55s3.06-3.06,6.13-5.11c1.02-1.02,2.55-2.04,4.6-3.57s3.06-2.55,4.09-3.06l1.02-5.11
		c-1.02,1.53-2.55,2.55-4.09,3.57c-2.04,1.02-3.57,1.53-5.62,1.53c-3.06,0-5.62-1.02-7.15-3.06c-1.53-2.55-2.55-5.11-2.55-7.66
		c0-6.64,2.04-12.26,6.64-17.36s9.7-7.66,15.32-7.66h0.51c1.02,0,2.04,0.51,2.55,1.02c0.51,0.51,1.02,1.02,1.02,1.53
		c0.51-0.51,1.53-0.51,2.55-0.51s2.04,0.51,2.55,1.02C91.18,40.4,91.69,41.43,92.21,42.96L92.21,42.96z M62.59,100.15
		c3.57,0,6.64-2.55,9.7-7.15c2.55-4.6,4.6-9.7,5.62-14.3c-0.51,0.51-2.04,1.53-3.57,3.06s-2.55,2.04-3.57,3.06
		c-1.02,0.51-2.04,1.53-3.06,2.55c-1.02,1.02-2.04,2.04-3.06,2.55c-0.51,0.51-1.53,2.04-2.55,3.06c-1.02,1.02-1.53,3.06-1.53,4.6
		C61.06,99.13,61.57,100.15,62.59,100.15z M71.78,64.91c4.09,0,7.15-3.57,9.19-10.21l3.06-10.72c-4.09,0-8.17,2.04-11.23,5.62
		c-3.06,3.57-4.6,7.15-4.6,10.72C68.21,63.89,69.23,64.91,71.78,64.91z"/>
</g>
<g id="svg_5">
</g>
<g id="svg_6">
</g>
<g id="svg_7">
</g>
<g id="svg_8">
</g>
<g id="svg_9">
</g>
<g id="svg_10">
</g>
<g>
</g>
<g>
</g>
<g>
</g>
<g>
</g>
<g>
</g>
<g>
</g>
</svg>
