<?xml version="1.0" encoding="utf-8"?>
<!-- Generator: Adobe Illustrator 26.3.1, SVG Export Plug-In . SVG Version: 6.00 Build 0)  -->
<svg version="1.1" xmlns="http://www.w3.org/2000/svg" xmlns:xlink="http://www.w3.org/1999/xlink" x="0px" y="0px"
	 viewBox="0 0 176.71 413.11" style="enable-background:new 0 0 176.71 413.11;" xml:space="preserve">
<style type="text/css">
	.st0{fill:#E5E5E5;}
	.st1{fill:#6D4493;}
	.st2{fill:none;stroke:#6D4493;stroke-width:5.0561;stroke-miterlimit:10;}
	.st3{fill:#FFFFFF;}
	.st4{fill:#12110B;}
	.st5{fill:none;stroke:#000000;stroke-width:2;stroke-miterlimit:10;}
</style>
<symbol  id="Callout" viewBox="-185.15 -81 370.3 162.01">
	<path class="st0" d="M149.04-80.62h-298.07c-19.95,0-36.11,16.17-36.11,36.11v89.2c0,19.95,16.17,36.11,36.11,36.11h298.07
		c19.95,0,36.11-16.17,36.11-36.11v-89.2C185.15-64.45,168.98-80.62,149.04-80.62z"/>
	<path class="st1" d="M-7.61-80.82h-143.54c-18.78,0-34,15.22-34,34V47c0,18.78,15.22,34,34,34H-7.61V-80.82z"/>
	<path class="st2" d="M11.44,78.14h136.45c19.02,0,34.44-15.37,34.44-34.32v-87.97c0-18.96-15.42-34.32-34.44-34.32H11.44"/>
	<path class="st3" d="M144.41-62.81h-293.92c-9.94,0-18,8.06-18,18v89.79c0,9.94,8.06,18,18,18h293.92c10.49,0,19-8.51,19-19v-87.79
		C163.41-54.3,154.9-62.81,144.41-62.81z"/>
</symbol>
<symbol  id="New_Symbol" viewBox="-185.15 -81 370.3 162.01">
	<use xlink:href="#Callout"  width="370.3" height="162.01" x="-185.15" y="-81" style="overflow:visible;"/>
</symbol>
<g id="Layer_1">
</g>
<g id="Layer_2">
	<g>
		
			<use xlink:href="#New_Symbol"  width="370.3" height="162.01" x="-185.15" y="-81" transform="matrix(-0.4642 0 0 -0.4642 87.2914 264.4465)" style="overflow:visible;"/>
		<g>
			<path class="st4" d="M28.6,263.75h-1v2.23h-1.26v-6.1h2.27c0.72,0,1.28,0.16,1.67,0.48c0.39,0.32,0.59,0.77,0.59,1.36
				c0,0.42-0.09,0.76-0.27,1.04c-0.18,0.28-0.45,0.5-0.82,0.66l1.32,2.49v0.06h-1.35L28.6,263.75z M27.6,262.73h1.01
				c0.32,0,0.56-0.08,0.73-0.24c0.17-0.16,0.26-0.38,0.26-0.66c0-0.29-0.08-0.51-0.25-0.68c-0.16-0.17-0.41-0.25-0.75-0.25H27.6
				V262.73z"/>
			<path class="st4" d="M36.34,263.33h-2.41v1.64h2.83v1.01h-4.09v-6.1h4.08v1.02h-2.82v1.45h2.41V263.33z"/>
			<path class="st4" d="M41.79,264.72h-2.2l-0.42,1.26h-1.34l2.27-6.1h1.16l2.28,6.1h-1.34L41.79,264.72z M39.93,263.71h1.52
				l-0.77-2.28L39.93,263.71z"/>
			<path class="st4" d="M46.22,264.97h2.67v1.01h-3.93v-6.1h1.26V264.97z"/>
			<path class="st4" d="M52.74,263.86h-2.36v-0.98h2.36V263.86z"/>
			<path class="st4" d="M59.23,260.9h-1.87v5.08H56.1v-5.08h-1.84v-1.02h4.97V260.9z"/>
			<path class="st4" d="M62.13,265.98h-1.26v-6.1h1.26V265.98z"/>
			<path class="st4" d="M65.79,259.88l1.57,4.42l1.56-4.42h1.65v6.1H69.3v-1.67l0.13-2.88l-1.65,4.54h-0.86l-1.64-4.54l0.13,2.87
				v1.67h-1.26v-6.1H65.79z"/>
			<path class="st4" d="M76.18,263.33h-2.41v1.64h2.83v1.01h-4.09v-6.1h4.08v1.02h-2.82v1.45h2.41V263.33z"/>
			<path class="st4" d="M85.96,263.95c-0.05,0.66-0.29,1.17-0.73,1.55c-0.44,0.38-1.01,0.57-1.73,0.57c-0.78,0-1.4-0.26-1.85-0.79
				s-0.67-1.25-0.67-2.17v-0.37c0-0.59,0.1-1.1,0.31-1.55c0.21-0.45,0.5-0.79,0.89-1.03c0.38-0.24,0.83-0.36,1.34-0.36
				c0.7,0,1.27,0.19,1.7,0.57c0.43,0.38,0.68,0.91,0.75,1.59h-1.26c-0.03-0.39-0.14-0.68-0.33-0.86s-0.48-0.27-0.86-0.27
				c-0.42,0-0.73,0.15-0.94,0.45c-0.21,0.3-0.31,0.77-0.32,1.4v0.46c0,0.66,0.1,1.14,0.3,1.45s0.51,0.46,0.94,0.46
				c0.39,0,0.68-0.09,0.87-0.27c0.19-0.18,0.3-0.45,0.33-0.82H85.96z"/>
			<path class="st4" d="M92.64,263.07c0,0.6-0.11,1.13-0.32,1.58c-0.21,0.45-0.52,0.8-0.91,1.05c-0.4,0.25-0.85,0.37-1.36,0.37
				c-0.51,0-0.96-0.12-1.35-0.37c-0.4-0.24-0.7-0.59-0.92-1.04c-0.22-0.45-0.33-0.97-0.33-1.56v-0.3c0-0.6,0.11-1.13,0.32-1.59
				c0.22-0.46,0.52-0.81,0.92-1.05c0.4-0.24,0.85-0.37,1.36-0.37s0.96,0.12,1.35,0.37s0.7,0.59,0.92,1.05
				c0.22,0.46,0.32,0.98,0.32,1.58V263.07z M91.37,262.79c0-0.64-0.11-1.12-0.34-1.46c-0.23-0.33-0.56-0.5-0.98-0.5
				c-0.42,0-0.75,0.16-0.98,0.49s-0.35,0.81-0.35,1.44v0.3c0,0.62,0.11,1.11,0.34,1.45c0.23,0.34,0.56,0.51,0.99,0.51
				c0.42,0,0.75-0.17,0.97-0.5c0.23-0.33,0.34-0.81,0.34-1.45V262.79z"/>
			<path class="st4" d="M99.36,265.98h-1.26l-2.45-4.01v4.01H94.4v-6.1h1.26l2.45,4.02v-4.02h1.25V265.98z"/>
			<path class="st4" d="M105.78,260.9h-1.87v5.08h-1.26v-5.08h-1.84v-1.02h4.97V260.9z"/>
			<path class="st4" d="M109.61,263.75h-1v2.23h-1.26v-6.1h2.27c0.72,0,1.28,0.16,1.67,0.48c0.39,0.32,0.59,0.77,0.59,1.36
				c0,0.42-0.09,0.76-0.27,1.04c-0.18,0.28-0.45,0.5-0.82,0.66l1.32,2.49v0.06h-1.35L109.61,263.75z M108.6,262.73h1.01
				c0.32,0,0.56-0.08,0.73-0.24c0.17-0.16,0.26-0.38,0.26-0.66c0-0.29-0.08-0.51-0.25-0.68c-0.16-0.17-0.41-0.25-0.75-0.25h-1.01
				V262.73z"/>
			<path class="st4" d="M118.68,263.07c0,0.6-0.11,1.13-0.32,1.58c-0.21,0.45-0.52,0.8-0.91,1.05s-0.85,0.37-1.36,0.37
				c-0.51,0-0.96-0.12-1.35-0.37c-0.4-0.24-0.7-0.59-0.92-1.04c-0.22-0.45-0.33-0.97-0.33-1.56v-0.3c0-0.6,0.11-1.13,0.32-1.59
				c0.22-0.46,0.52-0.81,0.92-1.05c0.39-0.24,0.85-0.37,1.35-0.37c0.51,0,0.96,0.12,1.36,0.37s0.7,0.59,0.92,1.05
				c0.22,0.46,0.33,0.98,0.33,1.58V263.07z M117.41,262.79c0-0.64-0.11-1.12-0.34-1.46c-0.23-0.33-0.56-0.5-0.98-0.5
				c-0.42,0-0.75,0.16-0.98,0.49c-0.23,0.33-0.34,0.81-0.35,1.44v0.3c0,0.62,0.11,1.11,0.34,1.45c0.23,0.34,0.56,0.51,0.99,0.51
				c0.42,0,0.75-0.17,0.97-0.5s0.34-0.81,0.34-1.45V262.79z"/>
			<path class="st4" d="M121.7,264.97h2.67v1.01h-3.92v-6.1h1.26V264.97z"/>
			<path class="st4" d="M128.9,263.5c0-0.64,0.08-1.25,0.26-1.83c0.17-0.58,0.42-1.09,0.75-1.54c0.33-0.45,0.69-0.75,1.08-0.93
				l0.24,0.65c-0.41,0.3-0.73,0.77-0.96,1.4c-0.23,0.63-0.34,1.37-0.34,2.21v0.13c0,0.85,0.11,1.59,0.34,2.22
				c0.23,0.63,0.55,1.11,0.96,1.42l-0.24,0.64c-0.38-0.17-0.73-0.47-1.06-0.9s-0.58-0.93-0.75-1.49c-0.17-0.56-0.27-1.15-0.28-1.77
				V263.5z"/>
			<path class="st4" d="M137.61,265.21c-0.23,0.27-0.55,0.48-0.96,0.63s-0.87,0.22-1.37,0.22c-0.53,0-0.99-0.12-1.39-0.35
				c-0.4-0.23-0.71-0.57-0.92-1c-0.22-0.44-0.33-0.95-0.33-1.54v-0.42c0-0.61,0.1-1.14,0.31-1.58c0.21-0.45,0.5-0.79,0.89-1.02
				s0.84-0.35,1.36-0.35c0.72,0,1.29,0.17,1.7,0.52s0.65,0.85,0.72,1.51h-1.22c-0.06-0.35-0.18-0.6-0.37-0.77s-0.45-0.24-0.79-0.24
				c-0.43,0-0.75,0.16-0.98,0.48s-0.34,0.8-0.34,1.43v0.39c0,0.64,0.12,1.12,0.36,1.45c0.24,0.33,0.6,0.49,1.07,0.49
				c0.47,0,0.81-0.1,1.01-0.3v-1.05h-1.14v-0.93h2.4V265.21z"/>
			<path class="st4" d="M139.48,265.98v-6.1h2.14c0.74,0,1.3,0.14,1.68,0.43c0.38,0.28,0.57,0.7,0.57,1.25
				c0,0.3-0.08,0.56-0.23,0.79c-0.15,0.23-0.37,0.39-0.64,0.5c0.31,0.08,0.56,0.24,0.74,0.47c0.18,0.24,0.27,0.53,0.27,0.87
				c0,0.59-0.19,1.03-0.56,1.33s-0.91,0.46-1.6,0.46H139.48z M140.73,262.44h0.93c0.63-0.01,0.95-0.26,0.95-0.76
				c0-0.28-0.08-0.47-0.24-0.6c-0.16-0.12-0.41-0.18-0.76-0.18h-0.88V262.44z M140.73,263.33v1.65h1.08c0.3,0,0.53-0.07,0.69-0.21
				c0.17-0.14,0.25-0.33,0.25-0.58c0-0.56-0.29-0.84-0.87-0.85H140.73z"/>
			<path class="st4" d="M150.59,263.95c-0.05,0.66-0.29,1.17-0.73,1.55c-0.44,0.38-1.01,0.57-1.73,0.57c-0.78,0-1.4-0.26-1.85-0.79
				s-0.67-1.25-0.67-2.17v-0.37c0-0.59,0.1-1.1,0.31-1.55c0.21-0.45,0.5-0.79,0.89-1.03c0.38-0.24,0.83-0.36,1.34-0.36
				c0.7,0,1.27,0.19,1.7,0.57c0.43,0.38,0.68,0.91,0.75,1.59h-1.26c-0.03-0.39-0.14-0.68-0.33-0.86s-0.48-0.27-0.86-0.27
				c-0.42,0-0.73,0.15-0.94,0.45c-0.21,0.3-0.31,0.77-0.32,1.4v0.46c0,0.66,0.1,1.14,0.3,1.45c0.2,0.3,0.51,0.46,0.94,0.46
				c0.39,0,0.68-0.09,0.87-0.27c0.19-0.18,0.3-0.45,0.33-0.82H150.59z"/>
			<path class="st4" d="M154.16,263.6c0,0.63-0.09,1.24-0.27,1.82c-0.18,0.58-0.44,1.1-0.78,1.55c-0.34,0.45-0.71,0.75-1.09,0.92
				l-0.23-0.64c0.4-0.3,0.71-0.76,0.94-1.38c0.23-0.62,0.35-1.34,0.36-2.15v-0.22c0-0.83-0.11-1.57-0.34-2.21s-0.54-1.11-0.95-1.43
				l0.23-0.64c0.38,0.17,0.74,0.46,1.07,0.9s0.6,0.94,0.78,1.51c0.19,0.58,0.28,1.17,0.29,1.79V263.6z"/>
		</g>
	</g>
	<g>
		
			<use xlink:href="#New_Symbol"  width="370.3" height="162.01" x="-185.15" y="-81" transform="matrix(-0.4642 0 0 -0.4642 87.1676 374.1555)" style="overflow:visible;"/>
		<g>
			<path class="st4" d="M28.48,373.46h-1v2.23h-1.26v-6.1h2.27c0.72,0,1.28,0.16,1.67,0.48c0.39,0.32,0.59,0.77,0.59,1.36
				c0,0.42-0.09,0.76-0.27,1.04c-0.18,0.28-0.45,0.5-0.82,0.66l1.32,2.49v0.06h-1.35L28.48,373.46z M27.48,372.44h1.01
				c0.32,0,0.56-0.08,0.73-0.24c0.17-0.16,0.26-0.38,0.26-0.66c0-0.29-0.08-0.51-0.25-0.68c-0.16-0.17-0.41-0.25-0.75-0.25h-1.01
				V372.44z"/>
			<path class="st4" d="M36.22,373.04H33.8v1.64h2.83v1.01h-4.09v-6.1h4.08v1.02H33.8v1.45h2.41V373.04z"/>
			<path class="st4" d="M41.67,374.43h-2.2l-0.42,1.26h-1.34l2.27-6.1h1.16l2.28,6.1h-1.34L41.67,374.43z M39.8,373.42h1.52
				l-0.77-2.28L39.8,373.42z"/>
			<path class="st4" d="M49.54,373.66c-0.05,0.66-0.29,1.17-0.73,1.55c-0.44,0.38-1.01,0.57-1.73,0.57c-0.78,0-1.4-0.26-1.85-0.79
				s-0.67-1.25-0.67-2.17v-0.37c0-0.59,0.1-1.1,0.31-1.55c0.21-0.45,0.5-0.79,0.89-1.03c0.38-0.24,0.83-0.36,1.34-0.36
				c0.7,0,1.27,0.19,1.7,0.57c0.43,0.38,0.68,0.91,0.75,1.59H48.3c-0.03-0.39-0.14-0.68-0.33-0.86s-0.48-0.27-0.86-0.27
				c-0.42,0-0.73,0.15-0.94,0.45c-0.21,0.3-0.31,0.77-0.32,1.4v0.46c0,0.66,0.1,1.14,0.3,1.45s0.51,0.46,0.94,0.46
				c0.39,0,0.68-0.09,0.87-0.27c0.19-0.18,0.3-0.45,0.33-0.82H49.54z"/>
			<path class="st4" d="M55.69,370.61h-1.87v5.08h-1.26v-5.08h-1.84v-1.02h4.97V370.61z"/>
			<path class="st4" d="M64.78,373.66c-0.05,0.66-0.29,1.17-0.73,1.55c-0.44,0.38-1.01,0.57-1.73,0.57c-0.78,0-1.4-0.26-1.85-0.79
				s-0.67-1.25-0.67-2.17v-0.37c0-0.59,0.1-1.1,0.31-1.55c0.21-0.45,0.5-0.79,0.89-1.03c0.38-0.24,0.83-0.36,1.34-0.36
				c0.7,0,1.27,0.19,1.7,0.57c0.43,0.38,0.68,0.91,0.75,1.59h-1.26c-0.03-0.39-0.14-0.68-0.33-0.86s-0.48-0.27-0.86-0.27
				c-0.42,0-0.73,0.15-0.94,0.45c-0.21,0.3-0.31,0.77-0.32,1.4v0.46c0,0.66,0.1,1.14,0.3,1.45s0.51,0.46,0.94,0.46
				c0.39,0,0.68-0.09,0.87-0.27c0.19-0.18,0.3-0.45,0.33-0.82H64.78z"/>
			<path class="st4" d="M71.46,372.78c0,0.6-0.11,1.13-0.32,1.58c-0.21,0.45-0.52,0.8-0.91,1.05c-0.4,0.25-0.85,0.37-1.36,0.37
				c-0.51,0-0.96-0.12-1.35-0.37c-0.4-0.24-0.7-0.59-0.92-1.04c-0.22-0.45-0.33-0.97-0.33-1.56v-0.3c0-0.6,0.11-1.13,0.32-1.59
				c0.22-0.46,0.52-0.81,0.92-1.05c0.4-0.24,0.85-0.37,1.36-0.37s0.96,0.12,1.35,0.37s0.7,0.59,0.92,1.05
				c0.22,0.46,0.32,0.98,0.32,1.58V372.78z M70.19,372.5c0-0.64-0.11-1.12-0.34-1.46c-0.23-0.33-0.56-0.5-0.98-0.5
				c-0.42,0-0.75,0.16-0.98,0.49s-0.35,0.81-0.35,1.44v0.3c0,0.62,0.11,1.11,0.34,1.45c0.23,0.34,0.56,0.51,0.99,0.51
				c0.42,0,0.75-0.17,0.97-0.5c0.23-0.33,0.34-0.81,0.34-1.45V372.5z"/>
			<path class="st4" d="M74.87,369.59l1.57,4.42l1.56-4.42h1.65v6.1h-1.26v-1.67l0.13-2.88l-1.65,4.54H76l-1.64-4.54l0.13,2.87v1.67
				h-1.26v-6.1H74.87z"/>
			<path class="st4" d="M82.84,373.54v2.15h-1.26v-6.1h2.38c0.46,0,0.86,0.08,1.21,0.25c0.35,0.17,0.62,0.41,0.8,0.71
				s0.28,0.66,0.28,1.05c0,0.6-0.2,1.07-0.61,1.41c-0.41,0.35-0.98,0.52-1.7,0.52H82.84z M82.84,372.52h1.12
				c0.33,0,0.59-0.08,0.76-0.23c0.17-0.16,0.26-0.38,0.26-0.67c0-0.3-0.09-0.54-0.26-0.72c-0.18-0.18-0.42-0.28-0.73-0.28h-1.15
				V372.52z"/>
			<path class="st4" d="M92.98,372.78c0,0.6-0.11,1.13-0.32,1.58c-0.21,0.45-0.52,0.8-0.91,1.05c-0.4,0.25-0.85,0.37-1.36,0.37
				c-0.51,0-0.96-0.12-1.35-0.37c-0.4-0.24-0.7-0.59-0.92-1.04c-0.22-0.45-0.33-0.97-0.33-1.56v-0.3c0-0.6,0.11-1.13,0.32-1.59
				c0.22-0.46,0.52-0.81,0.92-1.05c0.4-0.24,0.85-0.37,1.36-0.37s0.96,0.12,1.35,0.37s0.7,0.59,0.92,1.05
				c0.22,0.46,0.32,0.98,0.32,1.58V372.78z M91.71,372.5c0-0.64-0.11-1.12-0.34-1.46c-0.23-0.33-0.56-0.5-0.98-0.5
				c-0.42,0-0.75,0.16-0.98,0.49s-0.35,0.81-0.35,1.44v0.3c0,0.62,0.11,1.11,0.34,1.45c0.23,0.34,0.56,0.51,0.99,0.51
				c0.42,0,0.75-0.17,0.97-0.5c0.23-0.33,0.34-0.81,0.34-1.45V372.5z"/>
			<path class="st4" d="M99.7,375.69h-1.26L96,371.68v4.01h-1.26v-6.1H96l2.45,4.02v-4.02h1.25V375.69z"/>
			<path class="st4" d="M105.32,373.04h-2.41v1.64h2.83v1.01h-4.09v-6.1h4.08v1.02h-2.82v1.45h2.41V373.04z"/>
			<path class="st4" d="M112.28,375.69h-1.26l-2.45-4.01v4.01h-1.26v-6.1h1.26l2.45,4.02v-4.02h1.25V375.69z"/>
			<path class="st4" d="M118.7,370.61h-1.87v5.08h-1.26v-5.08h-1.84v-1.02h4.97V370.61z"/>
			<path class="st4" d="M123.36,374.09c0-0.24-0.08-0.42-0.25-0.55c-0.17-0.13-0.47-0.26-0.91-0.4c-0.44-0.14-0.78-0.28-1.03-0.42
				c-0.69-0.37-1.04-0.88-1.04-1.51c0-0.33,0.09-0.62,0.28-0.88c0.19-0.26,0.45-0.46,0.8-0.6c0.35-0.15,0.74-0.22,1.17-0.22
				c0.44,0,0.82,0.08,1.17,0.24c0.34,0.16,0.61,0.38,0.79,0.67s0.28,0.61,0.28,0.98h-1.26c0-0.28-0.09-0.5-0.26-0.65
				c-0.18-0.16-0.42-0.23-0.74-0.23c-0.31,0-0.55,0.06-0.72,0.19c-0.17,0.13-0.26,0.3-0.26,0.51c0,0.2,0.1,0.36,0.3,0.5
				c0.2,0.13,0.49,0.26,0.88,0.38c0.72,0.21,1.24,0.48,1.56,0.8c0.33,0.32,0.49,0.71,0.49,1.19c0,0.53-0.2,0.94-0.6,1.24
				c-0.4,0.3-0.94,0.45-1.61,0.45c-0.47,0-0.9-0.09-1.28-0.26s-0.68-0.41-0.88-0.71s-0.3-0.65-0.3-1.04h1.26
				c0,0.67,0.4,1.01,1.21,1.01c0.3,0,0.53-0.06,0.7-0.18C123.28,374.48,123.36,374.31,123.36,374.09z"/>
			<path class="st4" d="M129.28,373.21c0-0.64,0.08-1.25,0.26-1.83c0.17-0.58,0.42-1.09,0.75-1.54c0.33-0.45,0.69-0.75,1.08-0.93
				l0.24,0.65c-0.41,0.3-0.73,0.77-0.96,1.4c-0.23,0.63-0.34,1.37-0.34,2.21v0.13c0,0.85,0.11,1.59,0.34,2.22
				c0.23,0.63,0.55,1.11,0.96,1.42l-0.24,0.64c-0.38-0.17-0.73-0.47-1.06-0.9s-0.58-0.93-0.75-1.49c-0.17-0.56-0.27-1.15-0.28-1.77
				V373.21z"/>
			<path class="st4" d="M138,374.92c-0.23,0.27-0.55,0.48-0.96,0.63s-0.87,0.22-1.37,0.22c-0.53,0-0.99-0.12-1.39-0.35
				c-0.4-0.23-0.71-0.57-0.92-1c-0.22-0.44-0.33-0.95-0.33-1.54v-0.42c0-0.61,0.1-1.14,0.31-1.58c0.21-0.45,0.5-0.79,0.89-1.02
				s0.84-0.35,1.36-0.35c0.72,0,1.29,0.17,1.7,0.52s0.65,0.85,0.72,1.51h-1.22c-0.06-0.35-0.18-0.6-0.37-0.77s-0.45-0.24-0.79-0.24
				c-0.43,0-0.75,0.16-0.98,0.48s-0.34,0.8-0.34,1.43v0.39c0,0.64,0.12,1.12,0.36,1.45c0.24,0.33,0.6,0.49,1.07,0.49
				c0.47,0,0.81-0.1,1.01-0.3v-1.05h-1.14v-0.93h2.4V374.92z"/>
			<path class="st4" d="M139.86,375.69v-6.1H142c0.74,0,1.3,0.14,1.68,0.43c0.38,0.28,0.57,0.7,0.57,1.25c0,0.3-0.08,0.56-0.23,0.79
				c-0.15,0.23-0.37,0.39-0.64,0.5c0.31,0.08,0.56,0.24,0.74,0.47c0.18,0.24,0.27,0.53,0.27,0.87c0,0.59-0.19,1.03-0.56,1.33
				s-0.91,0.46-1.6,0.46H139.86z M141.12,372.15h0.93c0.63-0.01,0.95-0.26,0.95-0.76c0-0.28-0.08-0.47-0.24-0.6
				c-0.16-0.12-0.41-0.18-0.76-0.18h-0.88V372.15z M141.12,373.03v1.65h1.08c0.3,0,0.53-0.07,0.69-0.21
				c0.17-0.14,0.25-0.33,0.25-0.58c0-0.56-0.29-0.84-0.87-0.85H141.12z"/>
			<path class="st4" d="M148.44,373.46h-1v2.23h-1.26v-6.1h2.27c0.72,0,1.28,0.16,1.67,0.48c0.39,0.32,0.59,0.77,0.59,1.36
				c0,0.42-0.09,0.76-0.27,1.04c-0.18,0.28-0.45,0.5-0.82,0.66l1.32,2.49v0.06h-1.35L148.44,373.46z M147.44,372.44h1.01
				c0.32,0,0.56-0.08,0.73-0.24c0.17-0.16,0.26-0.38,0.26-0.66c0-0.29-0.08-0.51-0.25-0.68c-0.16-0.17-0.41-0.25-0.75-0.25h-1.01
				V372.44z"/>
			<path class="st4" d="M154.52,373.31c0,0.63-0.09,1.24-0.27,1.82c-0.18,0.58-0.44,1.1-0.78,1.55c-0.34,0.45-0.71,0.75-1.09,0.92
				l-0.23-0.64c0.4-0.3,0.71-0.76,0.94-1.38c0.23-0.62,0.35-1.34,0.36-2.15v-0.22c0-0.83-0.11-1.57-0.34-2.21s-0.54-1.11-0.95-1.43
				l0.23-0.64c0.38,0.17,0.74,0.46,1.07,0.9s0.6,0.94,0.78,1.51c0.19,0.58,0.28,1.17,0.29,1.79V373.31z"/>
		</g>
	</g>
	<g>
		<g>
			<line class="st5" x1="90.15" y1="329.07" x2="90.15" y2="315.57"/>
			<g>
				<circle cx="90.15" cy="328.88" r="3.76"/>
			</g>
			<g>
				<polygon points="93.06,317.55 90.16,306.71 87.25,317.55 				"/>
			</g>
		</g>
	</g>
	<g>
		
			<use xlink:href="#New_Symbol"  width="370.3" height="162.01" x="-185.15" y="-81" transform="matrix(-0.4642 0 0 -0.4642 90.7622 151.5559)" style="overflow:visible;"/>
		<g>
			<path class="st4" d="M33.49,150.44h-2.41v1.64h2.83v1.01h-4.09v-6.1h4.08v1.02h-2.82v1.45h2.41V150.44z"/>
			<path class="st4" d="M40.17,148.01H38.3v5.08h-1.26v-5.08H35.2v-1.02h4.97V148.01z"/>
			<path class="st4" d="M46.7,153.09h-1.26v-2.61h-2.45v2.61h-1.26v-6.1h1.26v2.47h2.45v-2.47h1.26V153.09z"/>
			<path class="st4" d="M52.31,150.44H49.9v1.64h2.83v1.01h-4.09v-6.1h4.08v1.02H49.9v1.45h2.41V150.44z"/>
			<path class="st4" d="M56.58,150.86h-1v2.23h-1.26v-6.1h2.27c0.72,0,1.28,0.16,1.67,0.48c0.39,0.32,0.59,0.77,0.59,1.36
				c0,0.42-0.09,0.76-0.27,1.04c-0.18,0.28-0.45,0.5-0.82,0.66l1.32,2.49v0.06h-1.35L56.58,150.86z M55.58,149.84h1.01
				c0.32,0,0.56-0.08,0.73-0.24c0.17-0.16,0.26-0.38,0.26-0.66c0-0.29-0.08-0.51-0.25-0.68c-0.16-0.17-0.41-0.25-0.75-0.25h-1.01
				V149.84z"/>
			<path class="st4" d="M65.43,151.06c-0.05,0.66-0.29,1.17-0.73,1.55c-0.44,0.38-1.01,0.57-1.73,0.57c-0.78,0-1.4-0.26-1.85-0.79
				c-0.45-0.53-0.67-1.25-0.67-2.17v-0.37c0-0.59,0.1-1.1,0.31-1.55c0.21-0.45,0.5-0.79,0.89-1.03s0.83-0.36,1.34-0.36
				c0.7,0,1.27,0.19,1.7,0.57c0.43,0.38,0.68,0.91,0.75,1.59h-1.26c-0.03-0.39-0.14-0.68-0.33-0.86s-0.48-0.27-0.86-0.27
				c-0.42,0-0.73,0.15-0.94,0.45c-0.21,0.3-0.31,0.77-0.32,1.4v0.46c0,0.66,0.1,1.14,0.3,1.45c0.2,0.3,0.51,0.46,0.94,0.46
				c0.39,0,0.68-0.09,0.87-0.27s0.3-0.45,0.33-0.82H65.43z"/>
			<path class="st4" d="M70.55,151.83h-2.2l-0.42,1.26h-1.34l2.27-6.1h1.16l2.28,6.1h-1.34L70.55,151.83z M68.69,150.82h1.52
				l-0.77-2.28L68.69,150.82z"/>
			<path class="st4" d="M77.82,148.01h-1.87v5.08h-1.26v-5.08h-1.84v-1.02h4.97V148.01z"/>
			<path class="st4" d="M83.76,146.99l1.57,4.42l1.56-4.42h1.65v6.1h-1.26v-1.67l0.13-2.88l-1.65,4.54h-0.86l-1.64-4.54l0.13,2.87
				v1.67h-1.26v-6.1H83.76z"/>
			<path class="st4" d="M94,151.83h-2.2l-0.42,1.26h-1.34l2.27-6.1h1.16l2.28,6.1h-1.34L94,151.83z M92.14,150.82h1.52l-0.77-2.28
				L92.14,150.82z"/>
			<path class="st4" d="M100.34,151.49c0-0.24-0.08-0.42-0.25-0.55c-0.17-0.13-0.47-0.26-0.9-0.4c-0.44-0.14-0.78-0.28-1.03-0.42
				c-0.69-0.37-1.04-0.88-1.04-1.51c0-0.33,0.09-0.62,0.28-0.88c0.19-0.26,0.45-0.46,0.8-0.6c0.35-0.15,0.74-0.22,1.17-0.22
				c0.44,0,0.82,0.08,1.16,0.24c0.34,0.16,0.61,0.38,0.79,0.67c0.19,0.29,0.28,0.62,0.28,0.98h-1.26c0-0.28-0.09-0.5-0.26-0.65
				c-0.18-0.16-0.42-0.23-0.74-0.23c-0.31,0-0.55,0.06-0.72,0.19s-0.26,0.3-0.26,0.51c0,0.2,0.1,0.37,0.3,0.5s0.49,0.26,0.88,0.38
				c0.71,0.21,1.24,0.48,1.56,0.8s0.49,0.71,0.49,1.19c0,0.53-0.2,0.94-0.6,1.24c-0.4,0.3-0.94,0.45-1.61,0.45
				c-0.47,0-0.9-0.09-1.28-0.26s-0.68-0.41-0.88-0.71s-0.3-0.64-0.3-1.04h1.26c0,0.67,0.4,1.01,1.21,1.01c0.3,0,0.53-0.06,0.7-0.18
				C100.26,151.88,100.34,151.71,100.34,151.49z"/>
			<path class="st4" d="M107.89,148.01h-1.87v5.08h-1.26v-5.08h-1.84v-1.02h4.97V148.01z"/>
			<path class="st4" d="M113.13,150.44h-2.41v1.64h2.83v1.01h-4.09v-6.1h4.08v1.02h-2.82v1.45h2.41V150.44z"/>
			<path class="st4" d="M117.39,150.86h-1v2.23h-1.26v-6.1h2.27c0.72,0,1.28,0.16,1.67,0.48c0.39,0.32,0.59,0.77,0.59,1.36
				c0,0.42-0.09,0.76-0.27,1.04c-0.18,0.28-0.45,0.5-0.82,0.66l1.32,2.49v0.06h-1.35L117.39,150.86z M116.39,149.84h1.01
				c0.32,0,0.56-0.08,0.73-0.24s0.26-0.38,0.26-0.66c0-0.29-0.08-0.51-0.25-0.68c-0.16-0.17-0.41-0.25-0.75-0.25h-1.01V149.84z"/>
			<path class="st4" d="M124.42,150.61c0-0.64,0.08-1.25,0.26-1.83c0.17-0.58,0.42-1.09,0.75-1.54c0.33-0.45,0.69-0.75,1.08-0.93
				l0.24,0.65c-0.41,0.3-0.73,0.77-0.96,1.4c-0.23,0.63-0.34,1.37-0.34,2.21v0.13c0,0.85,0.11,1.59,0.34,2.22
				c0.23,0.63,0.55,1.11,0.96,1.42l-0.24,0.64c-0.38-0.17-0.73-0.47-1.06-0.9c-0.33-0.43-0.58-0.93-0.75-1.49
				c-0.17-0.56-0.27-1.15-0.28-1.77V150.61z"/>
			<path class="st4" d="M133.13,152.32c-0.23,0.27-0.55,0.48-0.96,0.63c-0.41,0.15-0.87,0.22-1.37,0.22c-0.53,0-0.99-0.12-1.39-0.35
				c-0.4-0.23-0.71-0.57-0.92-1c-0.22-0.44-0.33-0.95-0.33-1.54v-0.42c0-0.61,0.1-1.13,0.31-1.58c0.21-0.45,0.5-0.79,0.89-1.02
				c0.39-0.24,0.84-0.35,1.36-0.35c0.72,0,1.29,0.17,1.7,0.52s0.65,0.85,0.72,1.51h-1.22c-0.06-0.35-0.18-0.6-0.37-0.77
				s-0.45-0.24-0.79-0.24c-0.43,0-0.75,0.16-0.98,0.48c-0.22,0.32-0.34,0.8-0.34,1.43v0.39c0,0.64,0.12,1.12,0.36,1.45
				c0.24,0.33,0.6,0.49,1.07,0.49c0.47,0,0.81-0.1,1.01-0.3v-1.05h-1.14v-0.93h2.4V152.32z"/>
			<path class="st4" d="M135,153.09v-6.1h2.14c0.74,0,1.3,0.14,1.68,0.43c0.38,0.28,0.57,0.7,0.57,1.25c0,0.3-0.08,0.56-0.23,0.79
				c-0.15,0.23-0.37,0.39-0.64,0.5c0.31,0.08,0.56,0.24,0.74,0.47c0.18,0.24,0.27,0.53,0.27,0.87c0,0.59-0.19,1.03-0.56,1.33
				c-0.37,0.3-0.91,0.46-1.6,0.46H135z M136.25,149.55h0.93c0.63-0.01,0.95-0.26,0.95-0.76c0-0.28-0.08-0.47-0.24-0.6
				c-0.16-0.12-0.41-0.18-0.76-0.18h-0.88V149.55z M136.25,150.43v1.65h1.08c0.3,0,0.53-0.07,0.69-0.21s0.25-0.33,0.25-0.58
				c0-0.56-0.29-0.84-0.87-0.85H136.25z"/>
			<path class="st4" d="M144.99,150.44h-2.41v1.64h2.83v1.01h-4.09v-6.1h4.08v1.02h-2.82v1.45h2.41V150.44z"/>
			<path class="st4" d="M148.64,146.99l1.57,4.42l1.56-4.42h1.65v6.1h-1.26v-1.67l0.13-2.88l-1.65,4.54h-0.86l-1.64-4.54l0.12,2.87
				v1.67H147v-6.1H148.64z"/>
			<path class="st4" d="M157.37,150.71c0,0.63-0.09,1.24-0.27,1.82c-0.18,0.58-0.44,1.1-0.78,1.55c-0.34,0.45-0.71,0.75-1.09,0.92
				l-0.23-0.64c0.4-0.3,0.71-0.76,0.94-1.38c0.23-0.62,0.35-1.34,0.36-2.15v-0.22c0-0.84-0.11-1.57-0.34-2.21s-0.54-1.11-0.95-1.43
				l0.23-0.64c0.38,0.16,0.74,0.46,1.07,0.9c0.34,0.43,0.6,0.94,0.78,1.51c0.19,0.58,0.28,1.17,0.29,1.79V150.71z"/>
		</g>
	</g>
	<g>
		<g>
			<line class="st5" x1="93.62" y1="216.18" x2="93.62" y2="202.68"/>
			<g>
				<circle cx="93.62" cy="215.99" r="3.76"/>
			</g>
			<g>
				<polygon points="96.53,204.66 93.63,193.82 90.72,204.66 				"/>
			</g>
		</g>
	</g>
	<g>
		
			<use xlink:href="#New_Symbol"  width="370.3" height="162.01" x="-185.15" y="-81" transform="matrix(-0.4642 0 0 -0.4642 90.7622 38.8002)" style="overflow:visible;"/>
		<g>
			<path class="st4" d="M63.02,32.66l1.57,4.42l1.56-4.42h1.65v6.1h-1.26v-1.67l0.13-2.88l-1.65,4.54h-0.86l-1.64-4.54l0.13,2.87
				v1.67h-1.26v-6.1H63.02z"/>
			<path class="st4" d="M74.75,35.85c0,0.6-0.11,1.13-0.32,1.58s-0.52,0.8-0.91,1.05c-0.4,0.25-0.85,0.37-1.36,0.37
				c-0.5,0-0.96-0.12-1.35-0.36s-0.7-0.59-0.92-1.04s-0.33-0.97-0.33-1.56v-0.3c0-0.6,0.11-1.13,0.33-1.59
				c0.22-0.46,0.52-0.81,0.92-1.05c0.4-0.24,0.85-0.37,1.36-0.37c0.51,0,0.96,0.12,1.35,0.37c0.4,0.25,0.7,0.59,0.92,1.05
				c0.22,0.46,0.32,0.98,0.32,1.58V35.85z M73.48,35.57c0-0.64-0.11-1.12-0.34-1.46c-0.23-0.33-0.56-0.5-0.98-0.5
				c-0.42,0-0.75,0.16-0.98,0.49c-0.23,0.33-0.34,0.81-0.35,1.44v0.3c0,0.62,0.11,1.11,0.34,1.45c0.23,0.34,0.56,0.52,0.99,0.52
				c0.42,0,0.75-0.17,0.97-0.5c0.23-0.33,0.34-0.81,0.34-1.45V35.57z"/>
			<path class="st4" d="M80.75,33.68h-1.87v5.08h-1.26v-5.08h-1.84v-1.02h4.97V33.68z"/>
			<path class="st4" d="M87.21,35.85c0,0.6-0.11,1.13-0.32,1.58s-0.52,0.8-0.91,1.05c-0.4,0.25-0.85,0.37-1.36,0.37
				c-0.5,0-0.96-0.12-1.35-0.36s-0.7-0.59-0.92-1.04s-0.33-0.97-0.33-1.56v-0.3c0-0.6,0.11-1.13,0.33-1.59
				c0.22-0.46,0.52-0.81,0.92-1.05c0.4-0.24,0.85-0.37,1.36-0.37c0.51,0,0.96,0.12,1.35,0.37c0.4,0.25,0.7,0.59,0.92,1.05
				c0.22,0.46,0.32,0.98,0.32,1.58V35.85z M85.93,35.57c0-0.64-0.11-1.12-0.34-1.46c-0.23-0.33-0.56-0.5-0.98-0.5
				c-0.42,0-0.75,0.16-0.98,0.49c-0.23,0.33-0.34,0.81-0.35,1.44v0.3c0,0.62,0.11,1.11,0.34,1.45c0.23,0.34,0.56,0.52,0.99,0.52
				c0.42,0,0.75-0.17,0.97-0.5c0.23-0.33,0.34-0.81,0.34-1.45V35.57z"/>
			<path class="st4" d="M91.23,36.53h-1v2.23h-1.26v-6.1h2.27c0.72,0,1.28,0.16,1.67,0.48c0.39,0.32,0.59,0.78,0.59,1.36
				c0,0.42-0.09,0.76-0.27,1.04c-0.18,0.28-0.45,0.5-0.82,0.66l1.32,2.49v0.06h-1.35L91.23,36.53z M90.23,35.51h1.01
				c0.32,0,0.56-0.08,0.73-0.24c0.17-0.16,0.26-0.38,0.26-0.66c0-0.29-0.08-0.51-0.25-0.68c-0.16-0.17-0.41-0.25-0.75-0.25h-1.01
				V35.51z"/>
			<path class="st4" d="M98.46,37.16c0-0.24-0.08-0.42-0.25-0.55s-0.47-0.26-0.9-0.4c-0.44-0.14-0.78-0.28-1.04-0.42
				c-0.69-0.37-1.04-0.88-1.04-1.51c0-0.33,0.09-0.62,0.28-0.88c0.19-0.26,0.45-0.46,0.8-0.61s0.74-0.22,1.17-0.22
				c0.44,0,0.82,0.08,1.16,0.24c0.34,0.16,0.61,0.38,0.79,0.67c0.19,0.29,0.28,0.62,0.28,0.98h-1.26c0-0.28-0.09-0.5-0.26-0.65
				c-0.18-0.15-0.42-0.23-0.74-0.23c-0.31,0-0.55,0.07-0.72,0.2c-0.17,0.13-0.26,0.3-0.26,0.51c0,0.2,0.1,0.36,0.3,0.5
				c0.2,0.13,0.49,0.26,0.88,0.38c0.71,0.21,1.24,0.48,1.56,0.8c0.33,0.32,0.49,0.71,0.49,1.19c0,0.53-0.2,0.94-0.6,1.24
				s-0.94,0.45-1.61,0.45c-0.47,0-0.9-0.09-1.28-0.26c-0.38-0.17-0.68-0.41-0.88-0.71c-0.2-0.3-0.3-0.64-0.3-1.04h1.26
				c0,0.67,0.4,1.01,1.21,1.01c0.3,0,0.53-0.06,0.7-0.18C98.37,37.55,98.46,37.38,98.46,37.16z"/>
			<path class="st4" d="M104.15,37.12c0-0.28,0.08-0.54,0.24-0.78c0.16-0.24,0.45-0.51,0.87-0.8c-0.18-0.24-0.32-0.47-0.43-0.68
				s-0.16-0.44-0.16-0.67c0-0.47,0.15-0.86,0.45-1.16c0.3-0.3,0.7-0.45,1.21-0.45c0.46,0,0.83,0.14,1.12,0.41s0.44,0.61,0.44,1.01
				c0,0.49-0.25,0.92-0.74,1.29l-0.47,0.34l1.05,1.22c0.17-0.32,0.25-0.68,0.25-1.07h1.03c0,0.79-0.18,1.44-0.55,1.93l0.91,1.06
				h-1.37l-0.31-0.36c-0.45,0.3-0.97,0.44-1.55,0.44c-0.6,0-1.09-0.16-1.45-0.48C104.34,38.05,104.15,37.63,104.15,37.12z
				 M106.21,37.87c0.29,0,0.57-0.08,0.83-0.24l-1.2-1.39l-0.09,0.06c-0.25,0.21-0.37,0.46-0.37,0.75c0,0.24,0.08,0.44,0.23,0.59
				C105.76,37.79,105.96,37.87,106.21,37.87z M105.76,34.16c0,0.21,0.12,0.47,0.37,0.79l0.32-0.21c0.17-0.11,0.28-0.21,0.34-0.31
				c0.06-0.1,0.09-0.22,0.09-0.36s-0.05-0.26-0.15-0.36c-0.1-0.1-0.24-0.16-0.4-0.16c-0.17,0-0.31,0.06-0.42,0.17
				C105.82,33.83,105.76,33.98,105.76,34.16z"/>
			<path class="st4" d="M115.2,38.76h-1.26v-6.1h1.26V38.76z"/>
			<path class="st4" d="M122.23,35.85c0,0.6-0.11,1.13-0.32,1.58s-0.52,0.8-0.91,1.05c-0.4,0.25-0.85,0.37-1.36,0.37
				c-0.5,0-0.96-0.12-1.35-0.36s-0.7-0.59-0.92-1.04s-0.33-0.97-0.33-1.56v-0.3c0-0.6,0.11-1.13,0.33-1.59
				c0.22-0.46,0.52-0.81,0.92-1.05c0.4-0.24,0.85-0.37,1.36-0.37c0.51,0,0.96,0.12,1.35,0.37c0.4,0.25,0.7,0.59,0.92,1.05
				c0.22,0.46,0.32,0.98,0.32,1.58V35.85z M120.95,35.57c0-0.64-0.11-1.12-0.34-1.46c-0.23-0.33-0.56-0.5-0.98-0.5
				c-0.42,0-0.75,0.16-0.98,0.49c-0.23,0.33-0.34,0.81-0.35,1.44v0.3c0,0.62,0.11,1.11,0.34,1.45c0.23,0.34,0.56,0.52,0.99,0.52
				c0.42,0,0.75-0.17,0.97-0.5c0.23-0.33,0.34-0.81,0.34-1.45V35.57z"/>
			<path class="st4" d="M30.99,46.57c0-0.64,0.08-1.25,0.26-1.83c0.17-0.58,0.42-1.09,0.75-1.54c0.33-0.45,0.69-0.75,1.08-0.93
				l0.23,0.65c-0.41,0.3-0.73,0.77-0.96,1.4c-0.23,0.63-0.34,1.37-0.34,2.21v0.13c0,0.85,0.11,1.59,0.34,2.22
				c0.23,0.63,0.55,1.11,0.96,1.42l-0.23,0.64c-0.38-0.17-0.73-0.47-1.06-0.9c-0.33-0.43-0.58-0.93-0.75-1.49
				c-0.17-0.56-0.26-1.15-0.28-1.77V46.57z"/>
			<path class="st4" d="M39.89,46.14c0,0.6-0.11,1.13-0.32,1.58s-0.52,0.8-0.91,1.05c-0.4,0.25-0.85,0.37-1.36,0.37
				c-0.5,0-0.96-0.12-1.35-0.36s-0.7-0.59-0.92-1.04s-0.33-0.97-0.33-1.56v-0.3c0-0.6,0.11-1.13,0.33-1.59
				c0.22-0.46,0.52-0.81,0.92-1.05c0.4-0.24,0.85-0.37,1.36-0.37c0.51,0,0.96,0.12,1.35,0.37c0.4,0.25,0.7,0.59,0.92,1.05
				c0.22,0.46,0.32,0.98,0.32,1.58V46.14z M38.62,45.87c0-0.64-0.11-1.12-0.34-1.46c-0.23-0.33-0.56-0.5-0.98-0.5
				c-0.42,0-0.75,0.16-0.98,0.49c-0.23,0.33-0.34,0.81-0.35,1.44v0.3c0,0.62,0.11,1.11,0.34,1.45c0.23,0.34,0.56,0.52,0.99,0.52
				c0.42,0,0.75-0.17,0.97-0.5c0.23-0.33,0.34-0.81,0.34-1.45V45.87z"/>
			<path class="st4" d="M46.61,49.05h-1.26l-2.45-4.01v4.01h-1.26v-6.1h1.26l2.45,4.02v-4.02h1.25V49.05z"/>
			<path class="st4" d="M55.21,46.4H52.8v1.64h2.83v1.01h-4.09v-6.1h4.08v1.02H52.8v1.45h2.41V46.4z"/>
			<path class="st4" d="M61.9,43.97h-1.87v5.08h-1.26v-5.08h-1.84v-1.02h4.97V43.97z"/>
			<path class="st4" d="M68.42,49.05h-1.26v-2.61h-2.45v2.61h-1.26v-6.1h1.26v2.47h2.45v-2.47h1.26V49.05z"/>
			<path class="st4" d="M74.04,46.4h-2.41v1.64h2.83v1.01h-4.09v-6.1h4.08v1.02h-2.82v1.45h2.41V46.4z"/>
			<path class="st4" d="M78.3,46.82h-1v2.23h-1.26v-6.1h2.27c0.72,0,1.28,0.16,1.67,0.48c0.39,0.32,0.59,0.78,0.59,1.36
				c0,0.42-0.09,0.76-0.27,1.04c-0.18,0.28-0.45,0.5-0.82,0.66l1.32,2.49v0.06h-1.35L78.3,46.82z M77.3,45.8h1.01
				c0.32,0,0.56-0.08,0.73-0.24s0.26-0.38,0.26-0.66c0-0.29-0.08-0.51-0.25-0.68s-0.41-0.25-0.75-0.25H77.3V45.8z"/>
			<path class="st4" d="M87.16,47.02c-0.05,0.66-0.29,1.17-0.73,1.55c-0.44,0.38-1.01,0.57-1.73,0.57c-0.78,0-1.4-0.26-1.84-0.79
				c-0.45-0.53-0.67-1.25-0.67-2.17v-0.37c0-0.59,0.1-1.1,0.31-1.55c0.21-0.45,0.5-0.79,0.89-1.03c0.38-0.24,0.83-0.36,1.34-0.36
				c0.7,0,1.27,0.19,1.7,0.57c0.43,0.38,0.68,0.91,0.75,1.59h-1.26c-0.03-0.39-0.14-0.68-0.33-0.86c-0.19-0.18-0.48-0.27-0.86-0.27
				c-0.42,0-0.73,0.15-0.94,0.45c-0.21,0.3-0.31,0.77-0.32,1.4v0.46c0,0.66,0.1,1.14,0.3,1.45c0.2,0.3,0.51,0.46,0.94,0.46
				c0.39,0,0.68-0.09,0.87-0.27c0.19-0.18,0.3-0.45,0.33-0.82H87.16z"/>
			<path class="st4" d="M92.28,47.8h-2.2l-0.42,1.26h-1.34l2.27-6.1h1.16l2.28,6.1H92.7L92.28,47.8z M90.41,46.78h1.52l-0.77-2.28
				L90.41,46.78z"/>
			<path class="st4" d="M99.54,43.97h-1.87v5.08h-1.26v-5.08h-1.84v-1.02h4.97V43.97z"/>
			<path class="st4" d="M108.8,49.05h-1.26l-2.45-4.01v4.01h-1.26v-6.1h1.26l2.45,4.02v-4.02h1.25V49.05z"/>
			<path class="st4" d="M114.42,46.4h-2.41v1.64h2.83v1.01h-4.09v-6.1h4.08v1.02h-2.82v1.45h2.41V46.4z"/>
			<path class="st4" d="M121.1,43.97h-1.87v5.08h-1.26v-5.08h-1.84v-1.02h4.97V43.97z"/>
			<path class="st4" d="M127.48,47.29l0.82-4.34h1.25l-1.35,6.1h-1.26l-0.99-4.08l-0.99,4.08h-1.26l-1.35-6.1h1.25l0.83,4.33l1-4.33
				h1.06L127.48,47.29z"/>
			<path class="st4" d="M136.09,46.14c0,0.6-0.11,1.13-0.32,1.58s-0.52,0.8-0.91,1.05c-0.4,0.25-0.85,0.37-1.36,0.37
				c-0.5,0-0.96-0.12-1.35-0.36s-0.7-0.59-0.92-1.04s-0.33-0.97-0.33-1.56v-0.3c0-0.6,0.11-1.13,0.33-1.59
				c0.22-0.46,0.52-0.81,0.92-1.05c0.4-0.24,0.85-0.37,1.36-0.37c0.51,0,0.96,0.12,1.35,0.37c0.4,0.25,0.7,0.59,0.92,1.05
				c0.22,0.46,0.32,0.98,0.32,1.58V46.14z M134.82,45.87c0-0.64-0.11-1.12-0.34-1.46c-0.23-0.33-0.56-0.5-0.98-0.5
				c-0.42,0-0.75,0.16-0.98,0.49c-0.23,0.33-0.34,0.81-0.35,1.44v0.3c0,0.62,0.11,1.11,0.34,1.45c0.23,0.34,0.56,0.52,0.99,0.52
				c0.42,0,0.75-0.17,0.97-0.5c0.23-0.33,0.34-0.81,0.34-1.45V45.87z"/>
			<path class="st4" d="M140.11,46.82h-1v2.23h-1.26v-6.1h2.27c0.72,0,1.28,0.16,1.67,0.48c0.39,0.32,0.59,0.78,0.59,1.36
				c0,0.42-0.09,0.76-0.27,1.04c-0.18,0.28-0.45,0.5-0.82,0.66l1.32,2.49v0.06h-1.35L140.11,46.82z M139.11,45.8h1.01
				c0.32,0,0.56-0.08,0.73-0.24c0.17-0.16,0.26-0.38,0.26-0.66c0-0.29-0.08-0.51-0.25-0.68c-0.16-0.17-0.41-0.25-0.75-0.25h-1.01
				V45.8z"/>
			<path class="st4" d="M146.09,46.61l-0.65,0.7v1.74h-1.26v-6.1h1.26v2.76l0.55-0.76l1.55-2.01h1.55l-2.17,2.71l2.23,3.39h-1.5
				L146.09,46.61z"/>
			<path class="st4" d="M152.48,46.67c0,0.63-0.09,1.24-0.27,1.82c-0.18,0.58-0.44,1.1-0.78,1.55c-0.34,0.45-0.71,0.75-1.09,0.92
				l-0.23-0.64c0.4-0.3,0.71-0.76,0.94-1.38c0.23-0.62,0.35-1.34,0.36-2.15v-0.22c0-0.83-0.11-1.57-0.34-2.21s-0.55-1.11-0.95-1.43
				l0.23-0.64c0.38,0.17,0.74,0.46,1.07,0.9c0.34,0.43,0.6,0.94,0.78,1.51c0.19,0.58,0.28,1.17,0.29,1.79V46.67z"/>
		</g>
	</g>
	<g>
		<g>
			<line class="st5" x1="93.62" y1="103.43" x2="93.62" y2="89.92"/>
			<g>
				<circle cx="93.62" cy="103.24" r="3.76"/>
			</g>
			<g>
				<polygon points="96.53,91.9 93.63,81.06 90.72,91.9 				"/>
			</g>
		</g>
	</g>
	<g>
	</g>
	<g>
	</g>
	<g>
	</g>
	<g>
	</g>
	<g>
	</g>
	<g>
	</g>
	<g>
	</g>
	<g>
	</g>
	<g>
	</g>
	<g>
	</g>
	<g>
	</g>
	<g>
	</g>
	<g>
	</g>
	<g>
	</g>
	<g>
	</g>
	<g>
	</g>
	<g>
	</g>
	<g>
	</g>
	<g>
	</g>
	<g>
	</g>
	<g>
	</g>
	<g>
	</g>
	<g>
	</g>
</g>
</svg>
