<?xml version="1.0" encoding="utf-8"?>
<!-- Generator: Adobe Illustrator 26.0.0, SVG Export Plug-In . SVG Version: 6.00 Build 0)  -->
<svg version="1.1" id="Layer_1" xmlns="http://www.w3.org/2000/svg" xmlns:xlink="http://www.w3.org/1999/xlink" x="0px" y="0px"
	 viewBox="0 0 643.8 192" style="enable-background:new 0 0 643.8 192;" xml:space="preserve">
<style type="text/css">
	.st0{fill-rule:evenodd;clip-rule:evenodd;fill:#1C2826;}
	.st1{fill:#1C2826;}
	.st2{fill:#7192C6;}
	.st3{fill:#DBDAD9;}
	.st4{fill:#A3CA78;}
	.st5{fill:#F1C773;}
	.st6{fill:#C8C8C7;}
	.st7{fill:#82BBDE;}
	.st8{fill:#0076AB;}
</style>
<g>
	<path class="st0" d="M75.5,107.7c0-8.5-3.8-16-10.1-20.1c-5.1-3.5-11.3-4.7-23.4-4.7H19v79.7h17.1v-30.4h6.2c11,0,15.9-0.8,21-3.3
		C71,125,75.5,117.4,75.5,107.7 M57.6,107.5c0,9-4.3,12.3-15.6,12.3h-5.9V95.2H42c6.7,0,8.4,0.2,10.8,1.7
		C55.9,98.9,57.6,102.9,57.6,107.5"/>
	<path class="st0" d="M146.6,122.8c0-27-11.6-41.4-32.7-41.4C92.7,81.4,81,95.9,81,122.8c0,27,11.7,41.2,32.9,41.2
		S146.6,149.8,146.6,122.8 M128.7,122.8c0,19.2-4.3,28.4-14.9,28.4s-15-9.1-15-28.4c0-19.2,4.3-28.4,15-28.4
		C124.4,94.3,128.7,103.5,128.7,122.8"/>
	<polygon class="st1" points="245.2,83 230.2,83 218.7,136 206.1,83 191.5,83 178.9,135.8 168.1,83 150.5,83 170.1,162.8 
		185.5,162.8 198.1,110.6 210.9,162.8 226,162.8 	"/>
	<polygon class="st1" points="306.9,162.7 306.9,149.9 270.6,149.9 270.6,127.9 298.6,127.9 298.6,115.5 270.6,115.5 270.6,95.5 
		306.4,95.5 306.4,83 253.5,83 253.5,162.7 	"/>
	<path class="st0" d="M377.4,162.7l-16.8-35.6c8.8-4.5,13-11.2,13-20.8c0-15.5-9.6-23.3-29.3-23.3h-27.6v79.7h17.1v-32.4h11.5
		l13.7,32.4L377.4,162.7L377.4,162.7z M356.6,106.1c0,7.6-4.6,11.9-13,11.9h-9.9V95.1h9.9C352.3,95.1,356.6,98.9,356.6,106.1"/>
	<polygon class="st1" points="436.8,162.7 436.8,149.5 405.7,149.5 405.7,83 388.6,83 388.6,162.7 	"/>
	<rect x="445" y="83" class="st1" width="17.1" height="79.7"/>
	<polygon class="st1" points="539.1,162.7 539.1,83 524.4,83 524.4,134.6 497.7,83 478.5,83 478.5,162.7 493.2,162.7 493.2,104.7 
		523.5,162.7 	"/>
	<path class="st1" d="M619,162.7l-27.1-50.1L615.6,83h-18.5c0,0-24.5,34.2-24.5,34.1V83h-17.1v79.7h17.1v-26.3l8.8-10.9l19.1,37.2
		H619z"/>
	<rect x="277" y="23.4" class="st1" width="35.8" height="36.6"/>
	<rect x="312.8" y="23.4" class="st2" width="35.8" height="36.6"/>
	<rect x="366.6" y="23.4" class="st3" width="17.9" height="36.6"/>
	<rect x="456.2" y="23.4" class="st4" width="35.8" height="36.6"/>
	<rect x="545.7" y="23.4" class="st5" width="17.7" height="36.6"/>
	<rect x="581.3" y="23.4" class="st6" width="36.1" height="36.6"/>
	<polygon class="st1" points="19,23.4 19,60 41.3,60 41.3,56.3 23.9,56.3 23.9,42.9 37.3,42.9 37.3,39.2 23.9,39.2 23.9,27.1 
		40.8,27.1 40.8,23.4 	"/>
	<polygon class="st1" points="44.7,23.4 44.7,27.1 54.3,27.1 54.3,60 59.2,60 59.2,27.1 68.8,27.1 68.8,23.4 	"/>
	<polygon class="st1" points="75.2,23.4 75.2,60 80.1,60 80.1,42.6 94.7,42.6 94.7,60 99.6,60 99.6,23.4 94.7,23.4 94.7,38.9 
		80.1,38.9 80.1,23.4 	"/>
	<polygon class="st1" points="111.5,23.4 111.5,60 133.8,60 133.8,56.3 116.4,56.3 116.4,42.9 129.8,42.9 129.8,39.2 116.4,39.2 
		116.4,27.1 133.3,27.1 133.3,23.4 	"/>
	<path class="st0" d="M142.7,23.4V60h4.9V44h7.7l6.8,16h5.2l-7.5-17c4.5-2,6.6-5.1,6.6-9.5c0-6.5-4.3-10.1-11.9-10.1H142.7z
		 M147.5,27.1h6.5c4.8,0,7.5,2.3,7.5,6.2c0,4.6-2.8,7.1-7.9,7.1h-6.1V27.1z"/>
	<polygon class="st1" points="176.7,23.4 176.7,60 181,60 181,28.8 197.7,60 202.6,60 202.6,23.4 198.3,23.4 198.3,52.3 183,23.4 	
		"/>
	<polygon class="st1" points="214.2,23.4 214.2,60 236.6,60 236.6,56.3 219.1,56.3 219.1,42.9 232.5,42.9 232.5,39.2 219.1,39.2 
		219.1,27.1 236.1,27.1 236.1,23.4 	"/>
	<polygon class="st1" points="239.9,23.4 239.9,27.1 249.5,27.1 249.5,60 254.4,60 254.4,27.1 264.1,27.1 264.1,23.4 	"/>
	<rect x="348.6" y="23.4" class="st1" width="17.9" height="36.6"/>
	<rect x="438.2" y="23.4" class="st1" width="17.9" height="36.6"/>
	<rect x="384.5" y="23.4" class="st7" width="53.7" height="36.6"/>
	<rect x="527.8" y="23.4" class="st1" width="17.9" height="36.6"/>
	<rect x="492" y="23.4" class="st8" width="35.8" height="36.6"/>
	<rect x="563.4" y="23.4" class="st1" width="17.9" height="36.6"/>
</g>
</svg>
