<?xml version="1.0" encoding="utf-8"?>
<!-- Generator: Adobe Illustrator 26.0.0, SVG Export Plug-In . SVG Version: 6.00 Build 0)  -->
<svg version="1.1" id="Layer_1" xmlns="http://www.w3.org/2000/svg" xmlns:xlink="http://www.w3.org/1999/xlink" x="0px" y="0px"
	 viewBox="0 0 627.1 106.6" style="enable-background:new 0 0 627.1 106.6;" xml:space="preserve">
<style type="text/css">
	.st0{fill:#003B6B;}
	.st1{fill:#F6B100;}
</style>
<g>
	<path class="st0" d="M386.3,58.7c-1.3-7.4-4.5-11.3-11.6-11.3c-9.2,0-11.9,7.2-12.1,11.3H386.3z M362.7,67.9
		c0.4,9.2,4.9,13.4,13,13.4c5.8,0,10.5-3.6,11.5-6.9H400c-4.1,12.5-12.8,17.8-24.8,17.8c-16.7,0-27-11.5-27-27.8
		c0-15.9,10.9-27.9,27-27.9c18,0,26.7,15.1,25.7,31.4H362.7z"/>
	<path class="st0" d="M429.6,37.2h10.6v9.7h-10.6v26.9c0,4.9,1.2,6.1,6.1,6.1c1.5,0,3-0.1,4.5-0.4v11.4c-2.5,0.4-5.6,0.5-8.5,0.5
		c-8.9,0-16.7-2-16.7-12.6V46.9h-8.8v-9.7h8.8V17.8h14.5v19.4H429.6z"/>
	<path class="st1" d="M340.2,90.4L340.2,90.4c0,0.3-0.2,0.4-0.4,0.4h-11.2l0,0h-2.7c-0.2,0-0.3-0.1-0.3-0.2l-48.4-72.5l0,0
		c0-0.1,0-0.1,0-0.2c0-0.2,0.2-0.4,0.3-0.4l0,0h12.4h2.7l0,0c0.2,0,0.3,0.1,0.4,0.2L340.2,90.4L340.2,90.4z"/>
</g>
<polygon class="st0" points="339.6,66.8 339.6,17.7 324.6,17.7 324.6,41.8 "/>
<polygon class="st0" points="276.8,41.5 276.8,90.8 291.9,90.8 291.9,66.1 "/>
<polygon class="st0" points="596.2,20.2 596.2,21.1 598.9,21.1 598.9,28.4 600,28.4 600,21.1 602.8,21.1 602.8,20.2 "/>
<g>
	<path class="st0" d="M603.8,20.2h1.6l2.3,6.9l2.3-6.9h1.6v8.2h-1.1v-4.8c0-0.2,0-0.4,0-0.8s0-0.8,0-1.2l-2.3,6.9h-1.1l-2.4-6.9v0.3
		c0,0.2,0,0.5,0,0.9s0,0.7,0,0.9v4.8h-0.9V20.2z"/>
</g>
<polygon class="st0" points="11.6,19.5 65,19.5 65,32.7 27.3,32.7 27.3,48 61.9,48 61.9,60.1 27.3,60.1 27.3,77.6 65.8,77.6 
	65.8,90.8 11.6,90.8 "/>
<g>
	<path class="st0" d="M94.8,38.5h10.4V48H94.8v26.2c0,4.8,1.2,6,6,6c1.5,0,2.9-0.1,4.4-0.4v11.1c-2.4,0.4-5.5,0.5-8.3,0.5
		c-8.7,0-16.3-2-16.3-12.3V48H72v-9.5h8.6V19.8h14.2V38.5z"/>
	<path class="st0" d="M116,19.5h14.2v26.9h0.3c3.6-5.8,9.8-8.6,15.1-8.6c15.1,0,18.9,8.5,18.9,21.3v31.8h-14.2V61.6
		c0-8.5-2.5-12.7-9.1-12.7c-7.7,0-11,4.3-11,14.8v27.1H116V19.5z"/>
	<path class="st0" d="M210.5,59.4c-1.3-7.2-4.4-11-11.3-11c-9,0-11.6,7-11.8,11H210.5z M187.4,68.4c0.4,9,4.8,13.1,12.7,13.1
		c5.7,0,10.3-3.5,11.2-6.7h12.5c-4,12.2-12.5,17.4-24.2,17.4c-16.3,0-26.4-11.2-26.4-27.2c0-15.5,10.7-27.3,26.4-27.3
		c17.6,0,26.1,14.8,25.1,30.7H187.4z"/>
	<path class="st0" d="M234.6,38.7h13.5v10.1h0.2c2.6-6.5,9.6-11,16.5-11c1,0,2.2,0.2,3.1,0.5v13.2c-1.3-0.3-3.4-0.5-5.1-0.5
		c-10.4,0-14,7.5-14,16.6v23.3h-14.2V38.7z"/>
</g>
<rect x="504.7" y="19.5" class="st0" width="15.7" height="71.3"/>
<g>
	<path class="st0" d="M549.9,53.1h12.2c7.3,0,13.8-1.6,13.8-10.7s-6.5-10.7-13.8-10.7h-12.2V53.1z M534.2,19.5h32.2
		c17.8,0,24.7,11.3,24.7,22.9s-6.9,22.9-24.7,22.9h-16.5v25.6h-15.7V19.5z"/>
	<path class="st0" d="M443.5,90.4L443.5,90.4c0,0.3,0.2,0.4,0.4,0.4h10.9l0,0h2.6l0,0c0.2,0,0.3-0.1,0.3-0.2l42.5-70.7l0,0
		c0-0.1,0-0.1,0-0.2c0-0.2-0.2-0.3-0.3-0.3l0,0h-10.4h-2.7l0,0c-0.2,0-0.3,0.1-0.3,0.2L443.5,90.4L443.5,90.4z"/>
</g>
</svg>
