<?xml version="1.0" encoding="utf-8"?>
<!-- Generator: Adobe Illustrator 26.0.0, SVG Export Plug-In . SVG Version: 6.00 Build 0)  -->
<svg version="1.1" id="Layer_1" xmlns="http://www.w3.org/2000/svg" xmlns:xlink="http://www.w3.org/1999/xlink" x="0px" y="0px"
	 viewBox="0 0 626.1 209.5" style="enable-background:new 0 0 626.1 209.5;" xml:space="preserve">
<style type="text/css">
	.st0{fill:#E3001E;}
	.st1{fill:#565655;}
</style>
<g>
	<path class="st0" d="M17.8,182.6c0,4,0.8,6.7,2.2,8.1c0.8,0.9,2.1,1.5,3.7,1.8s3.5,0.4,5.6,0.4c4.5,0,7.4-1,9-3.1
		c1.3-1.8,2-5.1,2-10h-7v2.1c0,3.3-1.3,4.9-4,4.9c-1,0-1.8-0.1-2.3-0.4c-0.4-0.2-0.8-0.6-0.9-1.2c-0.2-0.6-0.3-1.5-0.3-2.6v-17.2
		h12.7v-6.1H25.8v-7.6h-7.9v7.6h-4.1v6.1h4.1v17.2H17.8z M52.8,173.9c0-3.5,0.6-5.8,1.8-7c1.1-1.3,3.1-1.9,6.1-1.9
		c2.3,0.1,3.8,0.5,4.7,1.1c0.6,0.5,1,1.2,1.2,2s0.3,2,0.3,3.3v21.1h8v-22.1c0-4.2-0.9-7.1-2.7-8.8c-1.8-1.7-4.7-2.6-8.6-2.6
		c-1.6,0-3.1,0.1-4.4,0.3c-1.2,0.2-2.4,0.6-3.5,1.5c-1.1,0.8-2,2-2.6,3.7h-0.2v-19.2h-8v47.3h8v-18.7H52.8z M111.4,177.5
		c-0.1-3-0.2-5.3-0.3-6.9c-0.1-1.6-0.4-3.2-0.9-4.9c-0.6-1.7-1.4-3-2.5-4c-1.8-1.6-5.7-2.5-11.7-2.7c-5.7,0-9.7,1.1-11.9,3.3
		c-2.2,2.2-3.3,6.6-3.3,13.2c0,3.1,0.2,5.9,0.6,8.2c0.3,2.3,1.1,4.3,2.4,5.7c0.8,0.9,1.9,1.7,3.2,2.2c1.3,0.5,2.8,0.8,4.4,1
		s3.3,0.3,5.2,0.3c3,0,5.5-0.1,7.3-0.4c1.9-0.3,3.4-0.9,4.6-1.8c2.1-1.7,3.1-4.6,3.1-8.6h-8c0,1.8-0.4,3.1-1.2,3.7
		c-0.6,0.4-1.2,0.8-2,0.9s-2,0.2-3.8,0.2c-1.6,0-2.8-0.1-3.5-0.2s-1.5-0.3-2.3-0.8c-0.8-0.4-1.3-1.3-1.5-2.3
		c-0.3-1.1-0.5-2.5-0.6-4.2c0.1-0.5,0.1-1.1,0.1-1.8h22.6V177.5z M103.4,172.5H88.6c0-1.6,0.1-2.8,0.2-3.7c0.1-0.9,0.4-1.7,0.9-2.2
		c0.4-0.6,1.2-0.9,2.1-1.1s2.3-0.3,4-0.4c0.6,0.1,1.2,0.1,1.8,0.1c0.6,0.1,1.1,0.1,1.8,0.1c0.6,0.1,1.1,0.3,1.6,0.4
		c0.6,0.2,0.9,0.4,1.3,0.7C103,167.2,103.4,169.2,103.4,172.5 M147.8,179.1c0.5-0.6,1.1-1,2-1.1s2.3-0.2,4.4-0.3
		c2.1,0,3.9,0.3,5.2,0.9s2,1.9,2,3.8c0,1.3-0.3,2.5-0.8,3.3c-0.6,0.8-1.4,1.3-2.4,1.5c-1.1,0.2-2.6,0.3-4.5,0.3
		c-1.8,0-3.2-0.1-4.1-0.3c-0.9-0.2-1.6-0.6-2-1.3c-0.5-0.9-0.8-2.1-0.8-3.5C146.8,181,147.1,179.9,147.8,179.1 M161.8,188.5l-0.4,4
		h7.9v-22c0-4.2-0.9-7.1-2.8-8.8c-2-1.8-6.2-2.7-12.4-2.7H153c-4.4,0-7.4,0.6-9.4,1.8c-2.3,1.5-3.4,4.2-3.4,8.3h7.9
		c0-1.7,0.4-2.9,1.1-3.6c0.6-0.4,1.2-0.8,1.8-0.8c0.5-0.1,1.6-0.2,3.4-0.3c2.2,0,3.8,0.2,4.6,0.6s1.4,0.9,1.7,1.5
		c0.4,0.8,0.7,2.3,0.7,4.4v5h-0.3c-0.5-1.1-1.3-2-2.3-2.6c-1.1-0.6-2.2-0.9-3.3-1c-1.2-0.1-2.6-0.2-4.2-0.2c-4.5,0-7.6,0.8-9.5,2.3
		c-1.9,1.6-2.8,4.2-2.8,8c0,3.5,0.8,6.1,2.5,7.6c1.7,1.8,4.9,2.7,9.6,2.7c3,0,5.3-0.3,7-0.8c1.7-0.6,2.9-1.8,3.6-3.7L161.8,188.5z
		 M198.1,187.5v5h7.6v-33.1h-7.9v19.3c0,2.6-0.5,4.5-1.5,5.8c-0.8,0.9-1.6,1.6-2.6,1.9c-0.9,0.3-2.3,0.4-3.9,0.4
		c-1.5,0-2.4-0.1-3-0.2c-0.6-0.2-1.1-0.5-1.6-0.9c-0.4-0.4-0.8-1-0.9-1.8c-0.1-0.7-0.2-1.6-0.2-2.8v-21.6h-8v24.2
		c0,6.2,3.7,9.3,11,9.3c5.6,0,9.1-1.8,10.6-5.4L198.1,187.5L198.1,187.5z M214.3,182.6c0,4,0.8,6.7,2.2,8.1c0.8,0.9,2.1,1.5,3.7,1.8
		c1.6,0.3,3.5,0.4,5.6,0.4c4.5,0,7.4-1,9-3.1c1.3-1.8,2-5.1,2-10h-7v2.1c0,3.3-1.3,4.9-4,4.9c-1,0-1.8-0.1-2.3-0.4
		c-0.4-0.2-0.8-0.6-0.9-1.2c-0.2-0.6-0.3-1.5-0.3-2.6v-17.2H235v-6.1h-12.7v-7.6h-7.9v7.6h-4.1v6.1h4.1v17.2H214.3z M256.3,159
		c-6.7,0-11,1.3-13.1,3.8c-1.1,1.4-1.8,3.2-2.1,5.6c-0.3,2.3-0.5,5.2-0.5,8.6c0,5.6,0.8,9.6,2.3,11.8c0.8,1.2,1.9,2.1,3.3,2.6
		c1.4,0.6,2.9,1,4.5,1.2s3.3,0.3,5.4,0.3c2.7,0,5.1-0.2,7.1-0.5s3.7-1,5-2.1c1.6-1.3,2.6-3.2,3-5.5s0.6-5.2,0.6-8.7
		c-0.1-3.8-0.3-6.8-0.6-8.9c-0.3-2-1.2-3.7-2.6-5.1c-0.9-0.8-2-1.4-3.2-1.9c-1.3-0.4-2.6-0.8-4.1-0.9C260,159.1,258.3,159,256.3,159
		 M256.3,165c1.7,0.1,3,0.3,4,0.4c0.9,0.2,1.8,0.7,2.3,1.5c0.6,0.8,0.9,1.9,1.1,3.4c0.1,1.6,0.2,3.5,0.2,5.8c0,2.7-0.1,4.7-0.3,5.9
		c-0.1,1.3-0.5,2.3-1.1,3.2c-0.6,0.7-1.4,1.2-2.5,1.4c-1.1,0.2-2.4,0.3-3.8,0.3c-1.6,0-3-0.1-4-0.4c-1.1-0.3-2-0.8-2.5-1.7
		c-0.5-0.8-0.8-1.9-0.9-3.2c-0.1-1.4-0.2-3.2-0.2-5.4c0-2.5,0.1-4.5,0.3-6.1c0.2-1.4,0.6-2.6,1.2-3.3c0.6-0.7,1.4-1.1,2.3-1.3
		C253.4,165.3,254.7,165.1,256.3,165 M285.7,164.2v-4.8h-7.6v33.1h7.9v-19c0-3.3,0.6-5.5,1.8-6.7c1.2-1.2,3.2-1.8,5.9-1.8
		c2.3,0,3.7,0.5,4.4,1.5c0.7,0.9,1.1,2.6,1.1,5v21.1h8v-19.4c0-3.1,0.6-5.2,1.8-6.3c1.2-1.2,3.2-1.8,5.9-1.8c1.5,0,2.6,0.3,3.5,0.7
		c0.8,0.4,1.3,1.2,1.6,2.1c0.3,0.9,0.4,2.3,0.4,4v20.7h8v-22c0-2.5-0.2-4.6-0.8-6.2c-0.6-1.6-1.6-2.9-3.3-3.8
		c-1.6-0.9-4-1.4-7.2-1.4c-1.7,0.1-3.2,0.2-4.4,0.5c-1.3,0.3-2.5,0.9-3.7,1.7c-1.1,0.8-2,2.1-2.5,3.7h-0.3c-0.8-3.9-4.1-5.9-9.8-5.9
		c-5.5,0-9,1.7-10.4,5.2h-0.3V164.2z M343.1,179.1c0.5-0.6,1.1-1,2-1.1c0.8-0.1,2.3-0.2,4.4-0.3c2.1,0,3.9,0.3,5.2,0.9
		c1.3,0.6,2,1.9,2,3.8c0,1.3-0.3,2.5-0.8,3.3c-0.6,0.8-1.4,1.3-2.4,1.5c-1.1,0.2-2.6,0.3-4.5,0.3c-1.8,0-3.2-0.1-4.1-0.3
		c-0.9-0.2-1.6-0.6-2-1.3c-0.5-0.9-0.8-2.1-0.8-3.5C342.1,181,342.4,179.9,343.1,179.1 M357.1,188.5l-0.4,4h7.9v-22
		c0-4.2-0.9-7.1-2.8-8.8c-2-1.8-6.2-2.7-12.4-2.7h-1.1c-4.4,0-7.4,0.6-9.4,1.8c-2.3,1.5-3.4,4.2-3.4,8.3h8c0-1.7,0.4-2.9,1.1-3.6
		c0.6-0.4,1.2-0.8,1.8-0.8c0.5-0.1,1.6-0.2,3.4-0.3c2.2,0,3.8,0.2,4.6,0.6c0.8,0.4,1.4,0.9,1.7,1.5c0.4,0.8,0.7,2.3,0.7,4.4v5h-0.4
		c-0.5-1.1-1.3-2-2.3-2.6c-1.1-0.6-2.2-0.9-3.3-1c-1.2-0.1-2.6-0.2-4.2-0.2c-4.5,0-7.6,0.8-9.5,2.3c-1.9,1.6-2.8,4.2-2.8,8
		c0,3.5,0.8,6.1,2.5,7.6c1.7,1.8,4.9,2.7,9.6,2.7c3,0,5.3-0.3,7-0.8c1.7-0.6,2.9-1.8,3.6-3.7L357.1,188.5z M373,182.6
		c0,4,0.8,6.7,2.2,8.1c0.8,0.9,2.1,1.5,3.7,1.8s3.5,0.4,5.5,0.4c4.5,0,7.4-1,9-3.1c1.3-1.8,2-5.1,2-10h-7v2.1c0,3.3-1.3,4.9-4,4.9
		c-1,0-1.8-0.1-2.3-0.4c-0.4-0.2-0.8-0.6-0.9-1.2c-0.2-0.6-0.3-1.5-0.3-2.6v-17.2h12.7v-6.1h-12.7v-7.6H373v7.6h-4.1v6.1h4.1
		L373,182.6L373,182.6z M399.7,152h7.9v-6.8h-7.9V152z M399.7,192.5h7.9v-33.1h-7.9V192.5z M429.1,159c-6.7,0-11,1.3-13.1,3.8
		c-1.1,1.4-1.8,3.2-2.1,5.6c-0.3,2.3-0.5,5.2-0.5,8.6c0,5.6,0.8,9.6,2.3,11.8c0.8,1.2,1.9,2.1,3.3,2.6c1.4,0.6,2.9,1,4.5,1.2
		s3.3,0.3,5.4,0.3c2.7,0,5.1-0.2,7.1-0.5s3.7-1,5-2.1c1.6-1.3,2.6-3.2,3-5.5s0.6-5.2,0.6-8.7c-0.1-3.8-0.3-6.8-0.6-8.9
		c-0.3-2-1.2-3.7-2.6-5.1c-0.9-0.8-2-1.4-3.2-1.9c-1.3-0.4-2.6-0.8-4.1-0.9C432.7,159.1,431,159,429.1,159 M429.1,165
		c1.7,0.1,3,0.3,4,0.4c1,0.2,1.8,0.7,2.3,1.5c0.6,0.8,0.9,1.9,1.1,3.4c0.1,1.6,0.2,3.5,0.2,5.8c0,2.7-0.1,4.7-0.3,5.9
		c-0.1,1.3-0.5,2.3-1.1,3.2c-0.6,0.7-1.4,1.2-2.5,1.4c-1.1,0.2-2.4,0.3-3.8,0.3c-1.6,0-3-0.1-4-0.4c-1.1-0.3-2-0.8-2.5-1.7
		c-0.5-0.8-0.8-1.9-0.9-3.2c-0.1-1.4-0.2-3.2-0.2-5.4c0-2.5,0.1-4.5,0.3-6.1c0.2-1.4,0.6-2.6,1.2-3.3c0.6-0.7,1.4-1.1,2.3-1.3
		C426.2,165.3,427.4,165.1,429.1,165 M458.8,164.5v-5h-8v33.1h8v-18c0-2.1,0.1-3.7,0.4-4.9c0.2-1.1,0.7-2,1.3-2.6
		c1.3-1.3,3.3-2,6.2-2c1.7,0,3,0.2,3.8,0.6c0.9,0.4,1.5,1.1,1.8,2.1c0.3,0.9,0.4,2.3,0.4,4v20.8h8v-21.8c0-2.6-0.3-4.8-0.9-6.4
		c-0.6-1.7-1.7-3-3.3-3.8c-1.7-0.9-4-1.3-7.1-1.4c-1.6,0-3.1,0.1-4.3,0.3c-1.2,0.2-2.4,0.6-3.5,1.5c-1.1,0.8-2,2-2.6,3.7h-0.2V164.5
		z M526.3,165.2c3.1,0,5,0.7,5.9,2.1c0.6,1,0.9,2,1.1,3.3c0.1,1.3,0.2,3,0.2,5.2s-0.1,4.1-0.3,5.7s-0.6,2.8-1.3,3.5
		c-0.7,0.8-1.6,1.3-2.5,1.5s-2.1,0.3-3.5,0.3c-3.1,0-5.1-0.8-6.1-2.2c-0.5-0.8-0.8-1.8-1-3s-0.3-2.8-0.4-5c0.1-0.4,0.1-0.9,0.1-1.4
		c0-1.8,0.1-3.4,0.3-4.7c0.2-1.3,0.5-2.3,1.1-3c1-1.5,2.8-2.3,5.4-2.3H526.3z M518.4,163.8v-18.6h-8v47.3h8l-0.4-4.9h0.3
		c1.6,3.5,5,5.3,10.1,5.3c2.2,0,4-0.2,5.5-0.6c1.6-0.4,2.8-1.1,3.8-2c1.1-1.1,2-2.3,2.5-3.8s0.8-3,0.9-4.5c0.1-1.5,0.2-3.3,0.2-5.5
		v-2.6c0-5.7-0.9-9.6-2.8-11.7c-1-1.1-2.3-2-3.7-2.4c-1.4-0.5-3.4-0.8-6-0.8c-2.3,0-4.4,0.3-6.2,1c-1.8,0.6-3,1.9-3.8,3.8
		L518.4,163.8L518.4,163.8z M569.3,187.5v5h7.6v-33.1H569v19.3c0,2.6-0.5,4.5-1.5,5.8c-0.8,0.9-1.6,1.6-2.6,1.9
		c-0.9,0.3-2.3,0.4-3.9,0.4c-1.5,0-2.4-0.1-3-0.2c-0.6-0.2-1.1-0.5-1.6-0.9c-0.4-0.4-0.8-1-0.9-1.8c-0.1-0.7-0.2-1.6-0.2-2.8v-21.6
		h-8v24.2c0,6.2,3.7,9.3,11,9.3c5.6,0,9.1-1.8,10.6-5.4L569.3,187.5L569.3,187.5z M612.4,168.5c0-3.6-1.3-6.2-3.7-7.8
		c-1.2-0.8-2.6-1.3-4.2-1.5c-1.6-0.2-3.7-0.2-6.4-0.2c-4.7,0-8,0.3-10,0.9c-1.7,0.6-3,1.5-3.8,2.8s-1.3,3.1-1.3,5.4v1
		c0,3.5,0.8,5.9,2.3,7.3c1.1,0.9,2.6,1.5,4.5,1.7c2,0.3,4.9,0.4,8.8,0.5c2.2,0.1,4,0.4,5.2,1s1.8,1.8,1.8,3.6c0,1.8-0.4,2.9-1.3,3.5
		c-0.9,0.6-2.3,0.9-4.1,0.9c-0.2-0.1-0.6-0.1-1.2-0.1h-0.6c-0.6,0-1.1,0.1-1.6,0.1c-2.1-0.2-3.4-0.4-4.1-0.8
		c-1.1-0.6-1.7-2.2-1.7-4.7h-8c0,2.2,0.3,3.9,0.7,5.2c0.4,1.3,1.1,2.3,2,3.3c1.1,0.9,2.7,1.6,4.5,1.8c1.8,0.2,4.2,0.4,7.1,0.4h0.4
		c2.3,0,4.2-0.1,5.9-0.3c1.7-0.1,3.3-0.5,4.8-1.1s2.7-1.6,3.7-3c0.9-1.3,1.4-3.1,1.4-5.5c-0.1-2.8-0.4-4.9-1.2-6.3
		c-0.7-1.5-2.1-2.5-4.2-3.1c-2-0.7-5-1-9.1-1.1c-2,0-3.8-0.1-5.5-0.4c-1.1-0.3-1.8-0.6-2-1.2c-0.3-0.5-0.4-1.2-0.4-2.1
		c0-1.8,0.5-3,1.5-3.7c1.1-0.4,3-0.7,5.6-0.7c2.1,0,3.7,0.3,4.7,0.8c1.1,0.5,1.7,1.6,1.7,3.3h7.8V168.5z"/>
	<path class="st1" d="M210.7,72.3c-0.2-8.9-0.6-16-0.9-20.7c-0.4-4.8-1.3-9.7-2.9-14.8c-1.7-5.1-4.2-9.1-7.6-12
		c-5.3-4.8-17.1-7.6-35.4-8.2c-17.3,0-29.3,3.2-36,9.9s-10.1,20-10.1,39.8c0,9.3,0.6,17.7,1.7,24.7c0.9,7,3.4,12.9,7.2,17.3
		c2.5,2.9,5.7,5.1,9.7,6.7c4,1.5,8.4,2.5,13.1,3c4.8,0.6,9.9,0.8,15.8,0.8c9.1,0,16.5-0.4,22.1-1.1c5.7-0.9,10.3-2.7,13.9-5.5
		c6.3-5.1,9.3-13.9,9.3-26.1h-24.2c0,5.5-1.1,9.3-3.6,11.2c-1.7,1.3-3.6,2.3-5.9,2.7c-2.3,0.4-6.1,0.6-11.6,0.6
		c-4.8,0-8.4-0.2-10.5-0.6c-2.1-0.2-4.6-1-7-2.3c-2.3-1.3-3.8-3.8-4.6-7c-1.3-6.3-1.3-12-1.3-18.3h68.8V72.3z M186.6,57.1h-44.5
		c0-4.8,0.2-8.4,0.6-11.2c0.4-2.8,1.3-5.1,2.9-6.7c1.3-1.7,3.6-2.9,6.5-3.4c2.9-0.6,6.9-0.9,12-1.1c3,0,7.8,0,10.6,0.6
		c1.7,0.2,3.4,0.8,5,1.3c1.7,0.6,2.9,1.3,3.8,2.3C185.4,41.1,186.6,47.2,186.6,57.1 M248,31l0.8-13.3h-23.4v99.9h23.8V56.4
		c0-7.6,1.5-13.1,4.6-16.5c2.9-3.4,7.4-5.1,13.5-5.1c4,0.2,6.7,0.8,8.4,2.1c1.7,1.3,2.9,3.2,3.2,6.1c0.6,2.8,0.8,7.2,0.8,13.1H302
		v-8.6c0-8.6-1.1-15.4-3.6-20.2c-2.1-3.4-4.8-6.1-8.4-8c-3.4-1.7-8.2-2.7-14.5-2.7c-13.3,0-22.1,4.8-26.2,14.5H248V31z M379.1,52.9
		h23.8c0-5.7-0.8-11.2-2.3-16.7c-1.7-5.5-4.6-9.7-8.9-12.9c-2.9-2.1-7.6-3.8-13.9-4.9c-6.3-1.1-12.9-1.7-20.4-1.7
		c-8.9,0.2-16.4,1-22.1,2.3s-10.5,4.4-14.3,9.1c-3.2,4.2-5.5,9.1-6.7,14.6c-1.3,5.5-1.9,14.3-1.9,26.3c0,7.4,0.2,13.5,0.6,18.3
		c0.6,4.8,1.5,9.1,2.9,12.7c1.3,3.6,3.2,6.7,5.9,9.5c3.8,4,8.4,6.7,13.9,7.6c5.5,1.1,12.9,1.7,22.4,1.7c17.1,0,28.7-2.5,35-7.4
		c6.5-5.3,9.7-15.8,9.7-31.6h-24.2V83c0,7-1.1,11.6-3.4,13.9c-1.5,1.5-3.4,2.5-5.5,2.8c-3.2,0.7-8.1,1.3-14.5,1.1
		c-4-0.2-7-0.6-8.9-1.1c-1.9-0.4-3.6-1.3-5.3-2.8c-1.3-1.5-2.3-3.2-2.9-4.9c-0.6-1.7-1-4-1.1-6.8c-0.6-4.8-1-20.9-0.8-25.5
		c0.2-5.3,0.6-9.3,0.9-11.8c0.4-2.5,1.3-4.8,2.7-7c2.5-4,8.4-6.1,17.5-6.1c10.1,0,16.2,1.7,18.6,5.3
		C378.2,42.5,379.1,46.6,379.1,52.9 M462,16.6c-20.2,0-33.3,3.8-39.4,11.4c-3.2,4.2-5.3,9.7-6.3,16.7c-0.9,7-1.5,15.8-1.5,26.1
		c0,16.9,2.3,28.9,7,35.6c2.5,3.6,5.7,6.3,9.9,8c4.2,1.9,8.8,3.1,13.5,3.6c4.8,0.6,10.1,0.8,16.4,0.8c8.2,0,15.4-0.6,21.5-1.5
		c5.9-1,11-3,15.2-6.3c4.8-4,7.8-9.5,9.1-16.5c1.1-7,1.7-15.8,1.7-26.3c-0.2-11.6-0.9-20.5-1.9-26.8c-1-6.1-3.6-11.2-7.8-15.4
		c-2.7-2.5-5.9-4.4-9.5-5.7c-3.8-1.3-8-2.3-12.4-2.9C473,16.8,467.9,16.6,462,16.6 M462,34.7c5.1,0.2,9.1,0.8,12,1.3
		c2.9,0.6,5.3,2.1,7,4.4c1.7,2.3,2.9,5.7,3.4,10.3c0.4,4.8,0.6,10.5,0.6,17.5c0,8.2-0.2,14.1-0.8,17.7c-0.4,3.8-1.5,7-3.2,9.5
		c-1.7,2.1-4.2,3.6-7.4,4.2c-3.2,0.6-7.2,1-11.6,1c-4.8,0-8.9-0.4-12.2-1.1c-3.4-0.8-5.9-2.5-7.4-5.1c-1.5-2.5-2.5-5.7-2.9-9.7
		c-0.4-4.2-0.6-9.7-0.6-16.4c0-7.6,0.2-13.7,0.8-18.3c0.6-4.4,1.7-7.8,3.6-9.9s4.2-3.4,7-4C453.2,35.4,457,34.8,462,34.7
		 M610.1,45.1c0-10.8-3.8-18.6-11.2-23.4c-3.6-2.3-7.8-3.8-12.7-4.4c-4.8-0.6-11.2-0.8-19.2-0.8c-14.1,0-24.2,1-30.1,2.9
		c-5.1,1.7-8.9,4.6-11.4,8.4c-2.5,4-3.8,9.3-3.8,16.2v3c0,10.5,2.3,17.9,7,21.9c3.2,2.9,7.8,4.6,13.7,5.1c5.9,0.8,14.6,1.3,26.4,1.5
		c6.7,0.2,12,1.3,15.6,3s5.5,5.3,5.5,10.8c0,5.3-1.3,8.7-4,10.5c-2.7,1.7-6.9,2.7-12.4,2.8c-1.9,0.1-6.9,0.2-10.3,0
		c-6.3-0.6-10.3-1.3-12.4-2.3c-3.4-1.9-5.1-6.7-5.1-14.1h-24.2c0,6.7,0.8,11.8,2.1,15.8c1.3,3.8,3.4,7,6.1,9.9
		c3.4,2.9,8,4.8,13.5,5.5c5.5,0.8,12.7,1.1,21.5,1.1h1.3c6.8,0,12.7-0.2,17.9-0.8c5.1-0.4,9.9-1.5,14.5-3.4s8.2-4.9,11-8.9
		c2.9-4,4.2-9.5,4.2-16.6c-0.2-8.4-1.3-14.6-3.6-19c-2.1-4.4-6.3-7.4-12.6-9.3c-6.1-2.1-15.2-3-27.6-3.2c-5.9,0-11.4-0.4-16.7-1.1
		c-3.2-0.8-5.3-1.9-6.1-3.6c-0.9-1.5-1.3-3.6-1.3-6.5c0-5.3,1.5-9.1,4.4-11.2c3.4-1.3,8.9-2.1,16.7-2.1c6.3,0,11,0.8,14.3,2.3
		c3.4,1.5,5.1,4.8,5.1,9.9h23.9V45.1z"/>
</g>
<g>
	<path class="st0" d="M102.8,45.1c0-10.8-3.8-18.6-11.2-23.4c-3.6-2.3-7.8-3.8-12.7-4.4c-4.8-0.6-11.2-0.8-19.2-0.8
		c-14.1,0-24.2,1-30.1,2.9c-5.1,1.7-8.9,4.6-11.4,8.4c-2.5,4-3.8,9.3-3.8,16.2v3c0,10.5,2.3,17.9,7,21.9c3.2,2.8,7.8,4.6,13.7,5.1
		c5.9,0.8,14.6,1.3,26.4,1.5c6.7,0.2,12,1.3,15.6,3s5.5,5.3,5.5,10.8c0,5.3-1.3,8.8-4,10.5s-6.8,2.7-12.4,2.8c-3.2,0.2-5,0.3-10.3,0
		c-6.3-0.6-10.3-1.3-12.4-2.3c-3.4-1.9-5.1-6.7-5.1-14.1H14.3c0,6.7,0.8,11.8,2.1,15.8c1.3,3.8,3.4,7,6.1,9.9
		c3.4,2.9,8,4.8,13.5,5.5c5.5,0.8,12.7,1.1,21.5,1.1h1.3c6.8,0,12.7-0.2,17.9-0.8c5.1-0.4,9.9-1.5,14.5-3.4s8.2-4.9,11-8.9
		s4.2-9.5,4.2-16.5c-0.2-8.4-1.3-14.7-3.6-19c-2.1-4.4-6.3-7.4-12.6-9.3c-6.1-2.1-15.2-3-27.6-3.2c-5.9,0-11.4-0.4-16.7-1.1
		c-3.2-0.8-5.3-1.9-6.1-3.6c-1-1.5-1.3-3.6-1.3-6.5c0-5.3,1.5-9.1,4.4-11.2c1.8-1.3,8.9-2.1,16.7-2.1c6.3,0,11,0.8,14.3,2.3
		c3.4,1.5,5.1,4.8,5.1,9.9L102.8,45.1L102.8,45.1z"/>
</g>
</svg>
