<?xml version="1.0" encoding="utf-8"?>
<!-- Generator: Adobe Illustrator 26.0.0, SVG Export Plug-In . SVG Version: 6.00 Build 0)  -->
<svg version="1.1" id="Layer_1" xmlns="http://www.w3.org/2000/svg" xmlns:xlink="http://www.w3.org/1999/xlink" x="0px" y="0px"
	 viewBox="0 0 602.5 168.1" style="enable-background:new 0 0 602.5 168.1;" xml:space="preserve">
<style type="text/css">
	.st0{fill:#E2001A;}
</style>
<polygon points="466.6,63.4 519.5,105.5 519.5,85.6 585.6,85.6 585.6,63.4 "/>
<polygon class="st0" points="585.6,54.9 532.7,12.8 532.7,32.7 374.2,32.7 374.2,54.9 "/>
<path d="M289.5,119.8c4.3,0,8.5-1,12.9-2.8l-6.4,21.5c-3.4,0.7-7.2,1.2-10.7,1.2c-21.2,0-38.2-13.1-38.2-39.8
	c0-25.1,17.7-37.7,38.2-37.7c6.8,0,10.8,1,17.3,2.4v19.8c-4-1.5-8.1-2.8-12.2-2.8c-10.4,0-18.3,6.6-18.3,18.8
	C272.1,113.3,279.4,119.8,289.5,119.8"/>
<path d="M341.7,79.7h0.2l6.9,24.6h-14.1L341.7,79.7z M303,138.5h24.4l3.9-16.2h20.6l4.2,16.2h25.6l-22.7-75h-33.7L303,138.5z"/>
<g>
	<path d="M98.8,128c-1.8,0.8-3.6,1.5-6,1.5c-4.4,0-6.1-2.5-6.1-9.2V85.5h12.1v-7.9H86.7V56.8H77v20.8h-9.4v7.9H77v37.9
		c0,10.4,4.7,14,13.6,14c2.7,0,5.9-0.7,8.2-1.5V128z"/>
</g>
<polygon points="21.2,137.3 60.2,137.3 60.2,128.5 31.3,128.5 31.3,99.9 57.5,99.9 57.5,91.1 31.3,91.1 31.3,65.4 58.7,65.4 
	58.7,56.6 21.2,56.6 "/>
<g>
	<path d="M107,137.3h9.7v-35.5c0-10.6,4.9-16,12.5-16c6.2,0,9.7,4,9.7,13.4v38h9.7V96.3c0-12.9-6.9-18.8-17.2-18.8
		c-6.8,0-11.9,3.9-14.4,8.9h-0.2V56.7h-9.7v80.6H107z"/>
	<path d="M170,103.3c0.2-13.8,5.8-18.4,12-18.4c7.7,0,11.6,6.1,11.6,18.4H170z M203.3,110.7v-5.2c0-17.3-7.4-28-20.7-28
		c-14.7,0-22.8,11.8-22.8,30.3s8.1,30.3,23.7,30.3c5.9,0,11.9-1.3,16.5-3.5l-0.5-8.8c-3.3,2.4-8.7,4.9-13.5,4.9
		c-10.8,0-16.1-6.4-16.1-20L203.3,110.7L203.3,110.7z"/>
	<path d="M214,137.3h9.7v-31.2c0-12.8,5.3-19.3,12.8-19.3c1.3,0,2.5,0.1,3.7,0.3v-9.6c-8.7,0-13.6,2.9-16.8,10.1h-0.2l-0.3-9.2h-9.4
		c0.1,4.2,0.5,8.4,0.5,12.7V137.3z"/>
	<path d="M446.5,139.1c6.1,0,11-4.9,11-11s-4.9-11-11-11s-11,4.9-11,11S440.5,139.1,446.5,139.1 M446.5,137c-4.6,0-8.3-3.7-8.3-8.9
		c0-5.2,3.7-8.9,8.3-8.9c4.6,0,8.3,3.7,8.3,8.9C454.8,133.3,451.1,137,446.5,137 M442.3,134.3h2.3v-5.4h1.4l3.2,5.4h2.4l-3.4-5.5
		c2-0.2,3.3-1.2,3.3-3.4c0-2.6-1.6-3.7-4.6-3.7h-4.6L442.3,134.3L442.3,134.3z M444.6,123.6h2.1c1.2,0,2.5,0.2,2.5,1.7
		c0,1.7-1.2,1.9-2.6,1.9h-2V123.6z"/>
</g>
<polygon points="374.2,63.4 453.5,63.4 453.5,85.6 426.1,85.6 426.1,138.4 401.6,138.4 401.6,85.6 374.2,85.6 "/>
</svg>
