<?xml version="1.0" encoding="utf-8"?>
<!-- Generator: Adobe Illustrator 26.0.1, SVG Export Plug-In . SVG Version: 6.00 Build 0)  -->
<svg version="1.1" id="Layer_1" xmlns="http://www.w3.org/2000/svg" xmlns:xlink="http://www.w3.org/1999/xlink" x="0px" y="0px"
	 viewBox="0 0 86.6 105.2" style="enable-background:new 0 0 86.6 105.2;" xml:space="preserve">
<style type="text/css">
	.st0{opacity:0.3;fill:#D9CDC1;enable-background:new    ;}
	.st1{enable-background:new    ;}
	.st2{fill:#1F0159;}
	.st3{clip-path:url(#SVGID_00000140711606603714525260000000907463102699380866_);enable-background:new    ;}
	.st4{clip-path:url(#SVGID_00000103981831072096686180000013097636092232634548_);enable-background:new    ;}
	.st5{fill:#4C1F8C;}
	.st6{clip-path:url(#SVGID_00000174561267075995810530000003478573050385640623_);fill:#1F0159;}
	.st7{clip-path:url(#SVGID_00000137110379505168431010000008933716015807114123_);fill:#1F0159;}
	.st8{clip-path:url(#SVGID_00000031926186936104137830000010530510445261321887_);enable-background:new    ;}
	.st9{clip-path:url(#SVGID_00000122679993425185195490000000319401070568245648_);fill:#1F0159;}
	.st10{clip-path:url(#SVGID_00000133490353006112229480000001788079942546015366_);fill:#1F0159;}
	.st11{clip-path:url(#SVGID_00000026868124370159338350000010706030192756131489_);enable-background:new    ;}
	.st12{fill:#817AC4;}
	.st13{fill:#C9C9EC;}
	.st14{fill:#7350BA;}
	.st15{clip-path:url(#SVGID_00000062183163049723357830000005815323223759932351_);enable-background:new    ;}
	.st16{clip-path:url(#SVGID_00000075154625165451510030000017768744861319438500_);enable-background:new    ;}
	.st17{fill:#DDDEFA;}
	.st18{fill:#F1F1F9;}
	.st19{clip-path:url(#SVGID_00000106116665776100309970000013694205287397397656_);enable-background:new    ;}
	.st20{clip-path:url(#SVGID_00000154399919063054596630000008195274972491741631_);enable-background:new    ;}
	.st21{clip-path:url(#SVGID_00000026137594353338473990000000063047628512517797_);enable-background:new    ;}
	.st22{clip-path:url(#SVGID_00000124846993911682577790000013792358933192850860_);enable-background:new    ;}
	.st23{fill:url(#SVGID_00000040538644146267782080000000313637188245208995_);}
	.st24{fill:url(#SVGID_00000145779295715297846030000012354698324941616016_);}
	.st25{fill:#E8E9FC;}
	.st26{clip-path:url(#SVGID_00000123436686945616026720000011227015264956407963_);enable-background:new    ;}
	.st27{clip-path:url(#SVGID_00000049189420460338018610000012815595363393808304_);enable-background:new    ;}
	.st28{fill:url(#SVGID_00000085209547919075419670000013390078876731188887_);}
	.st29{fill:#F8F9FC;}
	.st30{clip-path:url(#SVGID_00000162339856025143857730000003897314656255653287_);enable-background:new    ;}
	.st31{clip-path:url(#SVGID_00000118379016495435904770000014779814820465402287_);enable-background:new    ;}
	.st32{fill:url(#SVGID_00000047023378610165078800000008341119749113592764_);}
	.st33{clip-path:url(#SVGID_00000155838717703502320180000000478417355529363631_);enable-background:new    ;}
	.st34{clip-path:url(#SVGID_00000105402517404912225440000000907099671207995323_);enable-background:new    ;}
	.st35{clip-path:url(#SVGID_00000099664202421424390240000013665917638618360218_);enable-background:new    ;}
	.st36{clip-path:url(#SVGID_00000034091818237214197260000003084896944159810454_);enable-background:new    ;}
	.st37{clip-path:url(#SVGID_00000147197895228114857650000016817685048703122083_);enable-background:new    ;}
	.st38{clip-path:url(#SVGID_00000101789017927581474210000007421317905183304612_);enable-background:new    ;}
	.st39{clip-path:url(#SVGID_00000148634137267529786860000013291930966469858700_);enable-background:new    ;}
	.st40{fill:#FF445F;}
	.st41{opacity:0.5;fill:#C9C9EC;enable-background:new    ;}
	.st42{clip-path:url(#SVGID_00000147901658272016983780000000685492970805675945_);enable-background:new    ;}
	.st43{clip-path:url(#SVGID_00000108289816897030231010000004096470465585764753_);enable-background:new    ;}
	.st44{clip-path:url(#SVGID_00000045579722363496855440000003393298738779645878_);}
	.st45{clip-path:url(#SVGID_00000084516045507843106970000012213889775798501000_);enable-background:new    ;}
	.st46{fill:#FFDE38;}
	.st47{fill:#FFB700;}
	.st48{fill:#FFC400;}
	.st49{fill:#ADB2CC;}
</style>
<g>
	<polygon class="st0" points="40.8,105.2 50.2,105.2 86.6,84.1 65.1,71.6 31.9,77.8 	"/>
	<g>
		<g>
			<g class="st1">
				<g class="st1">
					<g>
						<path id="SVGID_1_" class="st2" d="M39.1,69.2V70c-1.4-0.8-3.8-0.8-5.2,0v-0.8C35.4,68.4,37.7,68.4,39.1,69.2z"/>
					</g>
					<g>
						<defs>
							<path id="SVGID_00000093148989726591625430000004351063642133811598_" d="M39.1,69.2V70c-1.4-0.8-3.8-0.8-5.2,0v-0.8
								C35.4,68.4,37.7,68.4,39.1,69.2z"/>
						</defs>
						<clipPath id="SVGID_00000081633481357273635650000005819521027079314878_">
							<use xlink:href="#SVGID_00000093148989726591625430000004351063642133811598_"  style="overflow:visible;"/>
						</clipPath>
						<g style="clip-path:url(#SVGID_00000081633481357273635650000005819521027079314878_);enable-background:new    ;">
							<path class="st2" d="M34.2,69.1c-0.1,0-0.2,0.1-0.3,0.1V70c0.1-0.1,0.2-0.1,0.3-0.1V69.1z"/>
						</g>
					</g>
				</g>
				<g>
					<polygon class="st2" points="33.9,69.2 33.9,70.1 20.7,77.6 20.7,76.8 					"/>
				</g>
				<g class="st1">
					<g>
						<path id="SVGID_00000161593663808583828100000002112538231293682827_" class="st2" d="M19.6,79.1v-0.8c0-0.5,0.4-1.1,1.1-1.5
							v0.8C20,78.1,19.6,78.6,19.6,79.1z"/>
					</g>
					<g>
						<defs>
							<path id="SVGID_00000061434487287711198580000000191746607323534271_" d="M19.6,79.1v-0.8c0-0.5,0.4-1.1,1.1-1.5v0.8
								C20,78.1,19.6,78.6,19.6,79.1z"/>
						</defs>
						<clipPath id="SVGID_00000136370890430861648270000004329712636109432240_">
							<use xlink:href="#SVGID_00000061434487287711198580000000191746607323534271_"  style="overflow:visible;"/>
						</clipPath>
						<g style="clip-path:url(#SVGID_00000136370890430861648270000004329712636109432240_);enable-background:new    ;">
							<path class="st2" d="M20.7,76.8v0.8c-0.7,0.4-1.1,1-1.1,1.5v-0.8C19.7,77.7,20,77.2,20.7,76.8L20.7,76.8z"/>
						</g>
					</g>
				</g>
				<path class="st5" d="M19.4,80.6c-1.1-0.6-1.6-1.4-1.6-2.2v0.8c0,0.8,0.5,1.6,1.6,2.2l5.3,3v-1L19.4,80.6z"/>
				<g>
					<path class="st2" d="M20.7,76.8l13.2-7.5c0.1-0.1,0.2-0.1,0.3-0.1V68c-0.6,0.2-1.1,0.4-1.5,0.6l-13.3,7.6
						c-2.1,1.2-2.1,3.2,0,4.5c0,0,5.2,2.8,5.3,2.9l1.2-0.7c-0.1,0-0.1-0.1-0.2-0.1L20.8,80C19.3,79,19.3,77.6,20.7,76.8z"/>
				</g>
			</g>
		</g>
		<g>
			<g class="st1">
				<g>
					<polygon class="st2" points="24.7,83.4 25.8,82.8 33.9,87.4 32.7,88.1 					"/>
				</g>
				<g class="st1">
					<g>
						<path id="SVGID_00000039115758346229103800000016888120449908192909_" class="st2" d="M35.4,87.5l-1.2,0.7
							c-0.4,0.2-1,0.2-1.6-0.2l1.2-0.7C34.4,87.7,35,87.8,35.4,87.5z"/>
					</g>
					<g>
						<defs>
							<path id="SVGID_00000120541893830301429800000008327856694406946731_" d="M35.4,87.5l-1.2,0.7c-0.4,0.2-1,0.2-1.6-0.2
								l1.2-0.7C34.4,87.7,35,87.8,35.4,87.5z"/>
						</defs>
						<clipPath id="SVGID_00000021835991374952482140000004273018719120555933_">
							<use xlink:href="#SVGID_00000120541893830301429800000008327856694406946731_"  style="overflow:visible;"/>
						</clipPath>
						<path style="clip-path:url(#SVGID_00000021835991374952482140000004273018719120555933_);fill:#1F0159;" d="M34.1,87.5
							c-0.1,0-0.1-0.1-0.2-0.1l-1.2,0.7c0.1,0,0.1,0.1,0.2,0.1c0.5,0.2,1,0.3,1.4,0l1.2-0.7C35.1,87.7,34.6,87.7,34.1,87.5z"/>
					</g>
				</g>
				<g class="st1">
					<g>
						<path id="SVGID_00000178166017219827752880000005286711666357983899_" class="st2" d="M36,88.6l-1.2,0.7
							c0.1,0,0.1-0.1,0.2-0.1c0.6-0.5,0.8-1.4,0.7-2.5l1.2-0.7c0.2,1.1-0.1,2-0.7,2.5C36.2,88.5,36.1,88.6,36,88.6z"/>
					</g>
					<g>
						<defs>
							<path id="SVGID_00000162330637005338037140000017054568222039048619_" d="M36,88.6l-1.2,0.7c0.1,0,0.1-0.1,0.2-0.1
								c0.6-0.5,0.8-1.4,0.7-2.5l1.2-0.7c0.2,1.1-0.1,2-0.7,2.5C36.2,88.5,36.1,88.6,36,88.6z"/>
						</defs>
						<clipPath id="SVGID_00000163034501640252910560000013020180227985366197_">
							<use xlink:href="#SVGID_00000162330637005338037140000017054568222039048619_"  style="overflow:visible;"/>
						</clipPath>
						<path style="clip-path:url(#SVGID_00000163034501640252910560000013020180227985366197_);fill:#1F0159;" d="M36.9,86.3
							c0-0.1,0-0.2,0-0.3l-1.2,0.7c0,0.1,0,0.2,0,0.3c0.1,1-0.2,1.8-0.7,2.2c-0.1,0-0.1,0.1-0.2,0.1l1.2-0.7c0.1,0,0.1-0.1,0.2-0.1
							C36.8,88.1,37,87.3,36.9,86.3z"/>
					</g>
				</g>
				<g>
					<polygon class="st2" points="18.2,66.4 19.4,65.7 33,73.6 31.8,74.3 					"/>
				</g>
				<g>
					<polygon class="st2" points="34.9,78.9 36,78.3 36.9,86 35.7,86.7 					"/>
				</g>
				<g class="st1">
					<g>
						<path id="SVGID_00000155129311503584351660000009099439421620873647_" class="st2" d="M31.8,74.3l1.2-0.7
							c1.5,0.9,2.8,2.8,3,4.7L34.8,79C34.6,77.1,33.3,75.1,31.8,74.3z"/>
					</g>
					<g>
						<defs>
							<path id="SVGID_00000062167388960379343960000009278594069347430803_" d="M31.8,74.3l1.2-0.7c1.5,0.9,2.8,2.8,3,4.7L34.8,79
								C34.6,77.1,33.3,75.1,31.8,74.3z"/>
						</defs>
						<clipPath id="SVGID_00000176751795308537952400000009079930373072829574_">
							<use xlink:href="#SVGID_00000062167388960379343960000009278594069347430803_"  style="overflow:visible;"/>
						</clipPath>
						<g style="clip-path:url(#SVGID_00000176751795308537952400000009079930373072829574_);enable-background:new    ;">
							<path class="st2" d="M31.8,74.3l1.2-0.7c0.5,0.3,0.9,0.7,1.4,1.1l-1.2,0.7C32.8,75,32.3,74.6,31.8,74.3L31.8,74.3z"/>
							<path class="st2" d="M33.2,75.4l1.2-0.7c0.5,0.5,0.9,1.2,1.2,1.9l-1.2,0.7C34.1,76.6,33.7,76,33.2,75.4L33.2,75.4z"/>
							<path class="st2" d="M34.4,77.3l1.2-0.7c0.2,0.5,0.4,1.1,0.5,1.7L34.9,79C34.8,78.4,34.6,77.8,34.4,77.3L34.4,77.3z"/>
						</g>
					</g>
				</g>
				<g>
					<path class="st5" d="M31.8,74.3c1.5,0.9,2.8,2.8,3,4.7l0.9,7.7c0.2,1.1-0.1,2-0.7,2.5c-0.6,0.5-1.5,0.4-2.4-0.1l-8-4.6v-1
						l8,4.6c0.7,0.4,1.3,0.4,1.7,0.1s0.6-1,0.5-1.8L34,78.6c-0.2-1.3-1.1-2.7-2.2-3.3l-13.7-7.9v-1L31.8,74.3z"/>
				</g>
			</g>
		</g>
		<g>
			<g class="st1">
				<g>
					<polygon class="st2" points="35.2,71.4 36.4,70.7 49.4,78.2 48.2,78.9 					"/>
				</g>
				<g class="st1">
					<g>
						<path id="SVGID_00000165226522930834560160000001953071753327442313_" class="st2" d="M51,78.3L49.8,79
							c-0.4,0.2-1,0.2-1.6-0.2l1.2-0.7C50,78.5,50.5,78.6,51,78.3z"/>
					</g>
					<g>
						<defs>
							<path id="SVGID_00000090976452445791463340000008848260658681237409_" d="M51,78.3L49.8,79c-0.4,0.2-1,0.2-1.6-0.2l1.2-0.7
								C50,78.5,50.5,78.6,51,78.3z"/>
						</defs>
						<clipPath id="SVGID_00000086672661471832213600000004124424470786635162_">
							<use xlink:href="#SVGID_00000090976452445791463340000008848260658681237409_"  style="overflow:visible;"/>
						</clipPath>
						<path style="clip-path:url(#SVGID_00000086672661471832213600000004124424470786635162_);fill:#1F0159;" d="M49.6,78.3
							c-0.1,0-0.1-0.1-0.2-0.1l-1.2,0.7c0.1,0,0.1,0.1,0.2,0.1c0.5,0.2,1,0.3,1.4,0l1.2-0.7C50.6,78.5,50.1,78.5,49.6,78.3z"/>
					</g>
				</g>
				<g class="st1">
					<g>
						<path id="SVGID_00000065062490086396923110000015994257644643821473_" class="st2" d="M51.6,79.4l-1.2,0.7
							c0.1,0,0.1-0.1,0.2-0.1c0.6-0.5,0.8-1.4,0.7-2.5l1.2-0.7c0.2,1.1-0.1,2-0.7,2.5C51.7,79.3,51.6,79.4,51.6,79.4z"/>
					</g>
					<g>
						<defs>
							<path id="SVGID_00000174590967138461449600000018283813979509073572_" d="M51.6,79.4l-1.2,0.7c0.1,0,0.1-0.1,0.2-0.1
								c0.6-0.5,0.8-1.4,0.7-2.5l1.2-0.7c0.2,1.1-0.1,2-0.7,2.5C51.7,79.3,51.6,79.4,51.6,79.4z"/>
						</defs>
						<clipPath id="SVGID_00000145039714388983995200000007790940013561745316_">
							<use xlink:href="#SVGID_00000174590967138461449600000018283813979509073572_"  style="overflow:visible;"/>
						</clipPath>
						<path style="clip-path:url(#SVGID_00000145039714388983995200000007790940013561745316_);fill:#1F0159;" d="M52.5,77.1
							c0-0.1,0-0.2,0-0.3l-1.2,0.7c0,0.1,0,0.2,0,0.3c0.1,1-0.2,1.8-0.7,2.2c-0.1,0-0.1,0.1-0.2,0.1l1.2-0.7c0.1,0,0.1-0.1,0.2-0.1
							C52.3,78.9,52.5,78.1,52.5,77.1z"/>
					</g>
				</g>
				<g>
					<polygon class="st2" points="33.7,57.2 34.9,56.5 48.5,64.4 47.4,65.1 					"/>
				</g>
				<g>
					<polygon class="st2" points="50.4,69.7 51.6,69.1 52.4,76.8 51.3,77.4 					"/>
				</g>
				<g class="st1">
					<g>
						<path id="SVGID_00000170246283625588712310000008054252857844969129_" class="st2" d="M47.4,65.1l1.2-0.7
							c1.5,0.9,2.8,2.8,3,4.7l-1.2,0.7C50.1,67.9,48.9,65.9,47.4,65.1z"/>
					</g>
					<g>
						<defs>
							<path id="SVGID_00000142865161506307100950000000781053522601381760_" d="M47.4,65.1l1.2-0.7c1.5,0.9,2.8,2.8,3,4.7l-1.2,0.7
								C50.1,67.9,48.9,65.9,47.4,65.1z"/>
						</defs>
						<clipPath id="SVGID_00000052088542664084219490000000489964741822372784_">
							<use xlink:href="#SVGID_00000142865161506307100950000000781053522601381760_"  style="overflow:visible;"/>
						</clipPath>
						<g style="clip-path:url(#SVGID_00000052088542664084219490000000489964741822372784_);enable-background:new    ;">
							<path class="st2" d="M47.4,65.1l1.2-0.7c0.5,0.3,0.9,0.7,1.4,1.1l-1.2,0.7C48.3,65.7,47.9,65.4,47.4,65.1L47.4,65.1z"/>
							<path class="st2" d="M48.7,66.2l1.2-0.7c0.5,0.5,0.9,1.2,1.2,1.9l-1.2,0.7C49.6,67.4,49.2,66.8,48.7,66.2L48.7,66.2z"/>
							<path class="st2" d="M49.9,68.1l1.2-0.7c0.2,0.5,0.4,1.1,0.5,1.7l-1.2,0.7C50.3,69.2,50.2,68.6,49.9,68.1L49.9,68.1z"/>
						</g>
					</g>
				</g>
				<g>
					<path class="st2" d="M47.4,65.1c1.5,0.9,2.8,2.8,3,4.7l0.9,7.7c0.2,1.1-0.1,2-0.7,2.5c-0.6,0.5-1.5,0.4-2.4-0.1l-13-7.5v-1
						l13,7.5c0.7,0.4,1.3,0.4,1.7,0.1s0.6-1,0.5-1.8l-0.9-7.7c-0.2-1.3-1.1-2.7-2.2-3.3l-13.7-7.9v-1L47.4,65.1z"/>
				</g>
			</g>
		</g>
		<g>
			<g class="st1">
				<g>
					<polygon class="st12" points="18.2,41 18.2,66.4 19.3,67.1 19.3,41.7 					"/>
				</g>
				<g>
					<polygon class="st13" points="19.3,41.7 19.3,67.1 35.8,57.5 35.8,32.2 					"/>
				</g>
				<g>
					<polygon class="st13" points="18.2,41 19.3,41.7 35.8,32.2 34.6,31.5 					"/>
				</g>
			</g>
		</g>
		<g>
			<g class="st1">
				<g>
					<polygon class="st12" points="19.3,65.2 19.3,67.1 33.9,75.5 33.9,73.6 					"/>
				</g>
				<g>
					<g>
						<polygon class="st5" points="33.9,73.6 33.9,75.5 50.3,66 50.3,64.1 						"/>
					</g>
				</g>
				<g>
					<polygon class="st12" points="19.3,65.2 33.9,73.6 50.3,64.1 35.8,55.7 					"/>
				</g>
			</g>
		</g>
	</g>
	<g>
		<g>
			<g>
				<g>
					<g>
						<path id="SVGID_00000015320568126160893740000010214372876916140678_" class="st14" d="M40.9,48.7l0.3-0.1
							c0.2-0.1,0.5,0,0.8,0.2l-0.3,0.1C41.4,48.6,41.1,48.6,40.9,48.7z"/>
					</g>
					<g>
						<defs>
							<path id="SVGID_00000002382505405706419950000003097239563387715745_" d="M40.9,48.7l0.3-0.1c0.2-0.1,0.5,0,0.8,0.2l-0.3,0.1
								C41.4,48.6,41.1,48.6,40.9,48.7z"/>
						</defs>
						<clipPath id="SVGID_00000171702090230035785550000018257111584900441772_">
							<use xlink:href="#SVGID_00000002382505405706419950000003097239563387715745_"  style="overflow:visible;"/>
						</clipPath>
						<g style="clip-path:url(#SVGID_00000171702090230035785550000018257111584900441772_);enable-background:new    ;">
							<path class="st14" d="M40.9,48.7l0.3-0.1c0.1,0,0.2-0.1,0.4,0l-0.3,0.1C41.2,48.6,41,48.6,40.9,48.7L40.9,48.7z"/>
							<path class="st14" d="M41.3,48.6l0.3-0.1c0.1,0,0.2,0,0.2,0.1l-0.3,0.1C41.4,48.7,41.4,48.7,41.3,48.6L41.3,48.6z"/>
							<path class="st14" d="M41.5,48.7l0.3-0.1c0.1,0,0.1,0.1,0.2,0.1l-0.3,0.1C41.7,48.8,41.6,48.8,41.5,48.7L41.5,48.7z"/>
						</g>
					</g>
				</g>
				<g>
					<g>
						<path id="SVGID_00000042002664791855104380000011287942102486878652_" class="st14" d="M42.5,51.6l-0.3,0.1
							c0.2-0.1,0.4-0.3,0.4-0.7c0.1-0.7-0.3-1.7-0.9-2.2l0.3-0.1c0.6,0.5,1,1.4,0.9,2.2C42.8,51.2,42.7,51.5,42.5,51.6z"/>
					</g>
					<g>
						<defs>
							<path id="SVGID_00000008834759970659845940000016967083252413415324_" d="M42.5,51.6l-0.3,0.1c0.2-0.1,0.4-0.3,0.4-0.7
								c0.1-0.7-0.3-1.7-0.9-2.2l0.3-0.1c0.6,0.5,1,1.4,0.9,2.2C42.8,51.2,42.7,51.5,42.5,51.6z"/>
						</defs>
						<clipPath id="SVGID_00000002382784033995278780000004647991011439721883_">
							<use xlink:href="#SVGID_00000008834759970659845940000016967083252413415324_"  style="overflow:visible;"/>
						</clipPath>
						<g style="clip-path:url(#SVGID_00000002382784033995278780000004647991011439721883_);enable-background:new    ;">
							<polygon class="st14" points="41.7,48.9 42,48.7 42,48.7 41.7,48.9 							"/>
							<path class="st14" d="M41.7,48.9l0.3-0.1c0.1,0.1,0.2,0.1,0.2,0.2L42,49.1C41.9,49,41.8,48.9,41.7,48.9L41.7,48.9z"/>
							<path class="st14" d="M42,49.1l0.3-0.1c0.1,0.1,0.1,0.2,0.2,0.3l-0.3,0.1C42.1,49.3,42,49.2,42,49.1L42,49.1z"/>
							<path class="st14" d="M42.2,49.4l0.3-0.1c0.2,0.2,0.3,0.5,0.3,0.8l-0.3,0.1C42.4,49.8,42.3,49.6,42.2,49.4L42.2,49.4z"/>
							<path class="st14" d="M42.5,50.1l0.3-0.1c0,0.1,0.1,0.2,0.1,0.3l-0.3,0.1C42.6,50.3,42.5,50.2,42.5,50.1L42.5,50.1z"/>
							<path class="st14" d="M42.6,50.4l0.3-0.1c0,0.1,0,0.2,0,0.3l-0.3,0.1C42.6,50.6,42.6,50.5,42.6,50.4L42.6,50.4z"/>
							<path class="st14" d="M42.6,50.7l0.3-0.1c0,0.1,0,0.2,0,0.3l0,0L42.6,51l0,0C42.6,50.9,42.6,50.8,42.6,50.7L42.6,50.7z"/>
							<path class="st14" d="M42.6,51l0.3-0.1c0,0.1,0,0.2-0.1,0.3l-0.3,0.1C42.6,51.2,42.6,51.1,42.6,51L42.6,51z"/>
							<path class="st14" d="M42.9,50.5l0.3-0.1c-0.1,0.2-0.2,0.3-0.4,0.4l-0.3,0.1C42.6,50.9,42.8,50.7,42.9,50.5L42.9,50.5z"/>
						</g>
					</g>
				</g>
				<g>
					<path class="st17" d="M41.7,48.9c0.6,0.5,1,1.4,0.9,2.2c-0.1,0.7-0.7,0.9-1.2,0.5c-0.6-0.5-1-1.4-0.9-2.1
						C40.6,48.6,41.1,48.4,41.7,48.9z"/>
				</g>
			</g>
			<g>
				<path class="st14" d="M41.6,49.2c0.4,0.3,0.7,1.1,0.6,1.6c-0.1,0.5-0.5,0.7-0.9,0.4s-0.7-1.1-0.6-1.6
					C40.8,49,41.2,48.8,41.6,49.2z"/>
			</g>
			<g>
				<g>
					<path class="st17" d="M41.6,49.6c0.2,0.2,0.4,0.6,0.4,0.9c0,0.3-0.3,0.4-0.5,0.2s-0.4-0.6-0.4-0.9
						C41.1,49.5,41.3,49.4,41.6,49.6z"/>
				</g>
			</g>
		</g>
		<path class="st2" d="M42,51c0.3-0.9-1.8-8.4-2-8.8c0-0.1-0.4-1.6-0.6-1.6l-4.5,0.7c0.1,0.7,0.4,1.4,0.5,2c0.2,1,2.5,8.9,3.2,9.7
			C40.2,55,41.5,52.4,42,51z"/>
		<path class="st13" d="M36.1,34.3c1.7-0.5,2.5,1.1,3,2.2c0.7,1.5,1.1,3.3,1.2,5c0,0.4,0,0.9-0.1,1.3c-0.1,0.3-0.3,0.6-0.5,0.9
			c-0.5,0.7-1.2,1.3-2,1.4c-0.3,0-0.5,0-0.8-0.1c-0.4-0.1-0.7-0.2-1-0.4c-0.5-0.4-0.7-1-0.8-1.6c-0.4-1.5-0.7-3-0.8-4.5
			C34.1,36.9,34,34.9,36.1,34.3z"/>
		<path class="st13" d="M49,58.8c1.7,0.7,3.1-1.4,1.2-3c-2-1.7-4.9-3.4-6.6-4.9c-0.4-0.3-1.2-1-1.7-1c-0.6,0-0.5,0.9-1.1,1.2
			c-0.3,0.1-1,0.1-1.3,0c-0.8,0-1.8,0.8-1.5,1.5C38.6,53.7,46.3,57.6,49,58.8z"/>
		<path class="st14" d="M48,58.3c0.4,0.2,0.7,0.3,1,0.4c1.7,0.7,3.1-1.4,1.2-3c-0.2-0.2-0.4-0.4-0.7-0.5
			C49.8,56.4,48.9,57.6,48,58.3z"/>
		<g>
			<path class="st18" d="M50,56.7c-0.4,0.5-0.4,1.3-0.9,1.6c-0.1,0.1-0.2,0.1-0.2,0.2c-0.2,0.2,0.2,0.5,0.3,0.7
				c0.2,0.3,0.5,0.5,0.8,0.7c0.7,0.5,1.4,0.8,2.2,1.1c0.2,0.1,0.4,0.1,0.5-0.1c0.1-0.1,0-0.3,0.1-0.3c0.2-0.2,0.4,0,0.7,0.1
				c0.4,0,0.6-0.5,0.4-0.8c0.3,0.1,0.6,0.1,0.9-0.1c0.3-0.2,0.4-0.6,0.1-0.8c0.3,0.2,0.7,0.1,0.9-0.3c0.2-0.3,0-0.7-0.3-0.9
				c-0.2-0.1-0.5-0.1-0.8-0.1c-1-0.1-1.5-1.2-2.4-1.6c-0.4-0.2-0.8-0.3-1.2-0.2C50.8,56,50.3,56.3,50,56.7C50,56.6,50,56.7,50,56.7z
				"/>
			<path class="st18" d="M51.1,56c1-0.3,2.5-0.2,3.4,0.3c0.1,0.1,0.3,0.2,0.4,0.3c0.1,0.1,0.1,0.3,0,0.5c-0.1,0.1-0.3,0.2-0.4,0.2
				c-0.2,0-0.3-0.1-0.4-0.2C54,57,54,57,54,57c-0.6,0.1-1.3,0.3-1.9,0.4L51.1,56z"/>
		</g>
	</g>
	<g>
		<g>
			<g>
				<g>
					<g>
						<g>
							<path id="SVGID_00000158735075062944003210000000861572779972199583_" class="st14" d="M46.6,65.2l0.1-0.4
								c0-0.3,0.3-0.5,0.7-0.7l-0.1,0.4C46.9,64.7,46.7,65,46.6,65.2z"/>
						</g>
						<g>
							<defs>
								<path id="SVGID_00000086662163617764201280000015705995783494395814_" d="M46.6,65.2l0.1-0.4c0-0.3,0.3-0.5,0.7-0.7
									l-0.1,0.4C46.9,64.7,46.7,65,46.6,65.2z"/>
							</defs>
							<clipPath id="SVGID_00000114049279183011508690000017678120470552745900_">
								<use xlink:href="#SVGID_00000086662163617764201280000015705995783494395814_"  style="overflow:visible;"/>
							</clipPath>
							<g style="clip-path:url(#SVGID_00000114049279183011508690000017678120470552745900_);enable-background:new    ;">
								<path class="st14" d="M46.6,65.2l0.1-0.4c0-0.1,0.1-0.3,0.2-0.4l-0.1,0.4C46.7,65,46.6,65.1,46.6,65.2L46.6,65.2z"/>
								<path class="st14" d="M46.8,64.9l0.1-0.4c0.1-0.1,0.1-0.1,0.2-0.2L47,64.7C47,64.7,46.9,64.8,46.8,64.9L46.8,64.9z"/>
								<path class="st14" d="M47,64.7l0.1-0.4c0.1,0,0.2-0.1,0.3-0.1l-0.1,0.4C47.2,64.6,47.1,64.6,47,64.7L47,64.7z"/>
							</g>
						</g>
					</g>
					<g>
						<g>
							<path id="SVGID_00000036965602749235827960000005132333199645050542_" class="st14" d="M50.5,65.5l-0.1,0.4
								c0-0.3-0.1-0.6-0.4-0.9c-0.7-0.6-1.9-0.8-2.7-0.5l0.1-0.4c0.8-0.3,2-0.1,2.7,0.5C50.4,64.9,50.5,65.2,50.5,65.5z"/>
						</g>
						<g>
							<defs>
								<path id="SVGID_00000147206254368311495860000011475837322757618565_" d="M50.5,65.5l-0.1,0.4c0-0.3-0.1-0.6-0.4-0.9
									c-0.7-0.6-1.9-0.8-2.7-0.5l0.1-0.4c0.8-0.3,2-0.1,2.7,0.5C50.4,64.9,50.5,65.2,50.5,65.5z"/>
							</defs>
							<clipPath id="SVGID_00000109018671661291475940000009189765301973235845_">
								<use xlink:href="#SVGID_00000147206254368311495860000011475837322757618565_"  style="overflow:visible;"/>
							</clipPath>
							<g style="clip-path:url(#SVGID_00000109018671661291475940000009189765301973235845_);enable-background:new    ;">
								<path class="st14" d="M47.3,64.6l0.1-0.4l0,0L47.3,64.6L47.3,64.6L47.3,64.6z"/>
								<path class="st14" d="M47.3,64.6l0.1-0.4c0.1,0,0.2-0.1,0.4-0.1l-0.1,0.4C47.6,64.5,47.4,64.5,47.3,64.6L47.3,64.6z"/>
								<path class="st14" d="M47.7,64.5l0.1-0.4c0.1,0,0.3,0,0.4,0l-0.1,0.4C47.9,64.4,47.8,64.4,47.7,64.5L47.7,64.5z"/>
								<path class="st14" d="M48.1,64.4l0.1-0.4c0.3,0,0.7,0,1,0.1l-0.1,0.4C48.7,64.5,48.4,64.4,48.1,64.4L48.1,64.4z"/>
								<path class="st14" d="M49.1,64.5l0.1-0.4c0.1,0,0.2,0.1,0.3,0.1l-0.1,0.4C49.3,64.6,49.2,64.6,49.1,64.5L49.1,64.5z"/>
								<path class="st14" d="M49.4,64.7l0.1-0.4c0.1,0,0.2,0.1,0.3,0.2l-0.1,0.4C49.6,64.8,49.5,64.7,49.4,64.7L49.4,64.7z"/>
								<path class="st14" d="M49.7,64.8l0.1-0.4c0.1,0.1,0.2,0.1,0.3,0.2l0,0L50,65l0,0C49.9,64.9,49.8,64.9,49.7,64.8L49.7,64.8z"
									/>
								<path class="st14" d="M50,65l0.1-0.4c0.1,0.1,0.2,0.2,0.2,0.2l-0.1,0.4C50.2,65.2,50.1,65.1,50,65L50,65z"/>
								<path class="st14" d="M49.7,64.5l0.1-0.4c0.2,0.2,0.2,0.4,0.2,0.6l-0.1,0.4C49.9,64.9,49.8,64.7,49.7,64.5L49.7,64.5z"/>
							</g>
						</g>
					</g>
					<g>
						<path class="st17" d="M47.3,64.6c0.8-0.3,2-0.1,2.7,0.5s0.5,1.3-0.3,1.6c-0.8,0.3-2,0.1-2.7-0.5
							C46.4,65.6,46.5,64.9,47.3,64.6z"/>
					</g>
				</g>
				<g>
					<path class="st14" d="M47.6,64.9c0.6-0.2,1.5-0.1,2,0.3s0.4,0.9-0.2,1.2c-0.6,0.2-1.5,0.1-2-0.3C46.9,65.6,47,65.1,47.6,64.9z"
						/>
				</g>
				<g>
					<g>
						<path class="st17" d="M48,65.2c0.3-0.1,0.9,0,1.1,0.2c0.3,0.2,0.2,0.5-0.1,0.7c-0.3,0.1-0.9,0-1.1-0.2
							C47.6,65.6,47.6,65.3,48,65.2z"/>
					</g>
				</g>
			</g>
			<path class="st14" d="M43.4,65.8c-0.1,0.2-0.1,0.4-0.2,0.6c0,0.3,0,0.6,0.1,0.9c0.2,0.7-0.9,0.4-0.4,1c0.3,0.4,3.3,2.2,3.9,2.6
				c0.8,0.5,1.2,0.4,2,0.4c1,0,1.9-0.5,2.3-1.3c0.1-0.2,0.1-0.3,0.2-0.5c0.2-1,0.2-1.6-0.7-2.4c-1.2-1.2-2.4-3-3.8-3.3
				c-0.8-0.2-1.5,0.2-2.1,0.5C44.2,64.6,43.8,65.1,43.4,65.8C43.5,65.7,43.4,65.8,43.4,65.8z"/>
			<path class="st14" d="M29.5,62.1c0.3,0.3,0.7,0.5,1,0.8c0.5,0.4,0.9,0.8,1.5,1c1.5,0.5,2.6-0.5,4.1,0.2c1.4,0.6,8.1,4.7,9.6,4.8
				c0.6,0-3.7-1.9-3.1-2.1c0.3-0.1,0.6-0.2,0.8-0.4c0.3-0.3,0.4-0.8,0.4-1.3s-0.2-0.9-0.3-1.3c-0.4-1.8,1.2-0.4-0.8-2.4
				c-3.9-3.9-6-5-8-6.1L29.5,62.1z"/>
			<path class="st13" d="M42.3,68.3c0.9,0.5,1.1,0.5,1.9,1c0.8,0.5,2,0.8,2.9,0.7c1-0.1,2.2-1,2.6-1.9c1-1.9-1-3.5-2.4-4.9
				c-0.9-0.9-1.8-1.6-2.8-2.4c-1.2-0.9-2.4-1.7-3.6-2.5c-0.5-0.3-1-0.7-1.5-1c-0.2-0.1-1.1-0.8-1.3-0.5c-0.1,0.2,0,0.4,0.1,0.6
				c0.1,0.2,0.2,0.4,0.2,0.5c0.3,0.9,0.5,2.4,0.5,3.4C39,66.1,35.3,64.5,42.3,68.3z"/>
			<g>
				<g>
					<g>
						<g>
							<path id="SVGID_00000124162909531280500360000011043224728239075736_" class="st14" d="M44.5,70.5l0.1-0.4
								c0-0.3,0.3-0.5,0.7-0.7l-0.1,0.4C44.8,70,44.6,70.2,44.5,70.5z"/>
						</g>
						<g>
							<defs>
								<path id="SVGID_00000116202844622966372770000017247537393302962844_" d="M44.5,70.5l0.1-0.4c0-0.3,0.3-0.5,0.7-0.7
									l-0.1,0.4C44.8,70,44.6,70.2,44.5,70.5z"/>
							</defs>
							<clipPath id="SVGID_00000033344251419706900630000014655422287418280635_">
								<use xlink:href="#SVGID_00000116202844622966372770000017247537393302962844_"  style="overflow:visible;"/>
							</clipPath>
							<g style="clip-path:url(#SVGID_00000033344251419706900630000014655422287418280635_);enable-background:new    ;">
								<path class="st14" d="M44.5,70.5l0.1-0.4c0-0.1,0.1-0.3,0.2-0.4l-0.1,0.4C44.6,70.2,44.5,70.4,44.5,70.5L44.5,70.5z"/>
								<path class="st14" d="M44.7,70.1l0.1-0.4c0.1-0.1,0.1-0.1,0.2-0.2l-0.1,0.4C44.9,70,44.8,70,44.7,70.1L44.7,70.1z"/>
								<path class="st14" d="M44.9,69.9l0.1-0.4c0.1,0,0.2-0.1,0.3-0.1l-0.1,0.4C45.1,69.8,45,69.9,44.9,69.9L44.9,69.9z"/>
							</g>
						</g>
					</g>
					<g>
						<g>
							<path id="SVGID_00000127741555196269910290000014337520341178893967_" class="st14" d="M48.4,70.7l-0.1,0.4
								c0-0.3-0.1-0.6-0.4-0.9c-0.7-0.6-1.9-0.8-2.7-0.5l0.1-0.4c0.8-0.3,2-0.1,2.7,0.5C48.3,70.1,48.4,70.5,48.4,70.7z"/>
						</g>
						<g>
							<defs>
								<path id="SVGID_00000113339302944084718730000015084719613798295735_" d="M48.4,70.7l-0.1,0.4c0-0.3-0.1-0.6-0.4-0.9
									c-0.7-0.6-1.9-0.8-2.7-0.5l0.1-0.4c0.8-0.3,2-0.1,2.7,0.5C48.3,70.1,48.4,70.5,48.4,70.7z"/>
							</defs>
							<clipPath id="SVGID_00000071558888933183570140000014327578737759355790_">
								<use xlink:href="#SVGID_00000113339302944084718730000015084719613798295735_"  style="overflow:visible;"/>
							</clipPath>
							<g style="clip-path:url(#SVGID_00000071558888933183570140000014327578737759355790_);enable-background:new    ;">
								<path class="st14" d="M45.2,69.8l0.1-0.4l0,0L45.2,69.8L45.2,69.8L45.2,69.8z"/>
								<path class="st14" d="M45.2,69.8l0.1-0.4c0.1,0,0.2-0.1,0.4-0.1l-0.1,0.4C45.5,69.7,45.3,69.8,45.2,69.8L45.2,69.8z"/>
								<path class="st14" d="M45.6,69.7l0.1-0.4c0.1,0,0.3,0,0.4,0L46,69.7C45.8,69.7,45.7,69.7,45.6,69.7L45.6,69.7z"/>
								<path class="st14" d="M46,69.7l0.1-0.4c0.3,0,0.7,0,1,0.1L47,69.8C46.7,69.7,46.3,69.6,46,69.7L46,69.7z"/>
								<path class="st14" d="M47,69.8l0.1-0.4c0.1,0,0.2,0.1,0.3,0.1l-0.1,0.4C47.2,69.9,47.1,69.8,47,69.8L47,69.8z"/>
								<path class="st14" d="M47.3,69.9l0.1-0.4c0.1,0,0.2,0.1,0.3,0.2l-0.1,0.4C47.5,70,47.4,69.9,47.3,69.9L47.3,69.9z"/>
								<path class="st14" d="M47.6,70.1l0.1-0.4c0.1,0.1,0.2,0.1,0.3,0.2l0,0l-0.1,0.4l0,0C47.8,70.2,47.7,70.1,47.6,70.1
									L47.6,70.1z"/>
								<path class="st14" d="M47.9,70.3l0.1-0.4c0.1,0.1,0.2,0.2,0.2,0.2l-0.1,0.4C48.1,70.4,48,70.3,47.9,70.3L47.9,70.3z"/>
								<path class="st14" d="M47.6,69.7l0.1-0.4c0.2,0.2,0.2,0.4,0.2,0.6l-0.1,0.4C47.8,70.1,47.8,69.9,47.6,69.7L47.6,69.7z"/>
							</g>
						</g>
					</g>
					<g>
						<path class="st17" d="M45.2,69.8c0.8-0.3,2-0.1,2.7,0.5s0.5,1.3-0.3,1.6c-0.8,0.3-2,0.1-2.7-0.5
							C44.3,70.8,44.4,70.1,45.2,69.8z"/>
					</g>
				</g>
				<g>
					<path class="st14" d="M45.5,70.1c0.6-0.2,1.5-0.1,2,0.3s0.4,0.9-0.2,1.2c-0.6,0.2-1.5,0.1-2-0.3C44.8,70.8,44.9,70.3,45.5,70.1
						z"/>
				</g>
				<g>
					<g>
						<path class="st17" d="M45.9,70.4c0.3-0.1,0.9,0,1.1,0.2c0.3,0.2,0.2,0.5-0.1,0.7c-0.3,0.1-0.9,0-1.1-0.2
							C45.5,70.8,45.5,70.6,45.9,70.4z"/>
					</g>
				</g>
			</g>
			<path class="st14" d="M50.3,68.3l-3.9-3c-0.3-0.3-0.6-0.8-0.5-1.3c0.1-0.4,0.4-0.6,0.7-0.3l3.3,2.5l0.4,0.8V68.3z"/>
		</g>
		<g id="VR_x5F_back_10_">
			<g class="st1">
				<g>
					<path id="SVGID_00000127046458231144244740000002629451853823654063_" class="st18" d="M35.3,26.7l0.1,2.5c0,0,0,0.1,0.1,0.1
						c0.7,0.3,1,0.8,1,1.3l-0.1-2.5C36.4,27.6,36,27.1,35.3,26.7L35.3,26.7z"/>
				</g>
			</g>
			<path class="st17" d="M36.3,28.4c0-0.5-0.4-0.9-1-1.3c-0.1,0-0.1-0.1,0-0.2s0.2-0.1,0.3,0c1,0.5,1.3,1.3,1,2
				c-0.1-0.1-0.2-0.2-0.4-0.2C36.3,28.6,36.3,28.5,36.3,28.4z"/>
		</g>
		
			<linearGradient id="SVGID_00000093896553154417712440000005418682932685647765_" gradientUnits="userSpaceOnUse" x1="27.1598" y1="64.637" x2="37.6766" y2="41.0507" gradientTransform="matrix(1 0 0 -1 0 105.89)">
			<stop  offset="0" style="stop-color:#AC44EE"/>
			<stop  offset="0.3072" style="stop-color:#8334C4"/>
			<stop  offset="0.5912" style="stop-color:#6529A6"/>
			<stop  offset="0.8318" style="stop-color:#532293"/>
			<stop  offset="1" style="stop-color:#4C1F8C"/>
		</linearGradient>
		<path style="fill:url(#SVGID_00000093896553154417712440000005418682932685647765_);" d="M38.5,49.8c0-0.3,0.4-7.2,0.4-7.5
			l-15.3-3.7c0,0-1.1,1.1-1.3,1.5c-1.7,2.6-0.4,6.1,0.6,8.7c0.7,1.8,3.1,10.3,2.5,12.4c-0.1,0.4-0.1,1.6,0.3,1.9
			c0.3,0.2,0.6,0.5,0.9,0.6c0.6,0.4,1.3,0.6,2,0.7c1.7,0.3,3.4,0,5-0.5c0.8-0.3,1.6-0.6,2.4-1c0.4-0.2,0.7-0.4,0.9-0.8
			c0.2-0.4,0.4-0.8,0.5-1.2s0.4-1.5,0.5-1.9c0-0.4,0.3-0.5,0.3-0.8c0-0.2-0.2-0.5-0.2-0.6C38.1,54.9,38.1,52.5,38.5,49.8z"/>
		
			<linearGradient id="SVGID_00000111187894022575309510000000390403393485887637_" gradientUnits="userSpaceOnUse" x1="23.9666" y1="67.9389" x2="39.1203" y2="60.0653" gradientTransform="matrix(1 0 0 -1 0 105.89)">
			<stop  offset="0" style="stop-color:#E8E9FC"/>
			<stop  offset="1" style="stop-color:#D3D4EC"/>
		</linearGradient>
		<path style="fill:url(#SVGID_00000111187894022575309510000000390403393485887637_);" d="M27.7,49.4c-2.1-2.1-2.6-3.4-2.7-4.2
			c-0.1-0.5,0.8-0.4,0.7-0.9c-0.2-0.8,0-1.6-0.2-2.5c-0.1-0.7-0.6-1.4-1.3-1.6c-0.1,0-0.2,0-0.2,0c-0.4,0-0.8,0.1-1.1,0.2
			c-0.2,0-1,0.1-1,0.1s0-0.5,1.2-1.6c0.5-0.5,1.1-0.8,1.7-1.1c1.5-1,4.6-2.4,7.6-3.4c4.2-1.3,4.8,0.2,6,3.6c0.6,1.8,0.8,3.8,0.8,5.6
			c0,1.7-1.2,4.4-1.2,4.4s-0.5,0.6-1,0.8c-4.9,3-5.9,2.7-5.9,2.7C29.5,51.1,28.7,50.5,27.7,49.4z"/>
		<path class="st14" d="M27.4,37.4c0.1,3.4,6.9,4.2,6.3,0c-0.7-4.4-0.8-5-2.9-5.6c-0.6-0.2-1.2-0.3-1.8-0.3
			c-2.2,0.1-1.3,1.1-1.2,1.9C28.2,35.8,27.4,36.1,27.4,37.4z"/>
		<g>
			<path class="st25" d="M35.4,26.2c0.5,0.7,0.8,1.5,0.8,2.4c0,0.4,0,0.8-0.1,1.1c-0.1,0.3-0.3,0.7-0.3,1.1s0.4,0.9,0.5,1.3
				s0.2,0.8,0.1,1.2c-0.1,0.2-0.2,0.4-0.3,0.6c-0.5,0.9,0.1,2.3-0.9,3c-0.2,0.2-0.5,0.2-0.8,0.3c-0.4,0-2.1-0.4-2.7-0.6
				C31,36.3,30,36,29.5,35.4c-0.4-0.4-0.8-1.2-1.1-2.3c0,0-0.9,0.1-1.4-0.8c-1-1.3-1.3-2.3-1.3-3.5c0-1.1,0.1-2,0.7-2.9
				c0.5-0.7,1.2-1.3,2-1.7c1.2-0.5,2.6-0.6,3.9-0.2C33.6,24.4,34.7,25.2,35.4,26.2z"/>
		</g>
		<g>
			<path class="st14" d="M28.4,26.2c0.7-1.2,2.7-2,4.3-2.1c-2.2-0.7-3.4-0.3-4.2,0.1c-0.8,0.3-1.5,1-2,1.7c-0.6,0.9-0.8,1.9-0.7,2.9
				c0,1.2,0.2,2.2,1.1,3.4c0.6,0.9,1.4,0.8,1.4,0.8c0,0.1,0,0.1,0.1,0.2c0-0.4-0.1-0.8-0.3-1.1C27,30.1,27.4,28.1,28.4,26.2z"/>
		</g>
		<g id="VR_10_">
			<g class="st1">
				<g>
					<path class="st17" d="M30.5,30c0.1-0.1,0.2-0.1,0.3,0c0.6,0.3,1.5,0.5,2.3,0.4c0.8,0,1.6-0.3,2.2-0.6c0.5-0.3,0.7-0.7,0.8-1
						c0.1,0.1,0.2,0.1,0.4,0.2c-0.1,0.3-0.4,0.7-0.9,1c-1.4,0.9-3.7,1-5.1,0.2C30.5,30.1,30.5,30,30.5,30z"/>
				</g>
			</g>
		</g>
		<g>
			<g>
				<g>
					<g>
						<path id="SVGID_00000125581146299089961440000017147183640826611870_" class="st14" d="M26.4,30.2l0.4-0.2
							c0.3-0.1,0.7-0.1,1.1,0.1l-0.4,0.2C27.1,30.1,26.7,30.1,26.4,30.2z"/>
					</g>
					<g>
						<defs>
							<path id="SVGID_00000062151153053370289680000013665345438767354019_" d="M26.4,30.2l0.4-0.2c0.3-0.1,0.7-0.1,1.1,0.1
								l-0.4,0.2C27.1,30.1,26.7,30.1,26.4,30.2z"/>
						</defs>
						<clipPath id="SVGID_00000023982368706648802070000007829775286221094035_">
							<use xlink:href="#SVGID_00000062151153053370289680000013665345438767354019_"  style="overflow:visible;"/>
						</clipPath>
						<g style="clip-path:url(#SVGID_00000023982368706648802070000007829775286221094035_);enable-background:new    ;">
							<path class="st14" d="M26.4,30.2l0.4-0.2c0.1-0.1,0.3-0.1,0.5-0.1l-0.4,0.2C26.7,30.1,26.5,30.2,26.4,30.2L26.4,30.2z"/>
							<path class="st14" d="M26.9,30.2l0.4-0.2c0.1,0,0.2,0,0.3,0.1l-0.4,0.2C27.1,30.2,27,30.2,26.9,30.2L26.9,30.2z"/>
							<path class="st14" d="M27.2,30.2l0.4-0.2c0.1,0,0.2,0.1,0.3,0.1l-0.4,0.2C27.4,30.3,27.3,30.3,27.2,30.2L27.2,30.2z"/>
						</g>
					</g>
				</g>
				<g>
					<g>
						<path id="SVGID_00000036930493587974624270000011384467663626359451_" class="st14" d="M28.8,33.8L28.4,34
							c0.3-0.1,0.5-0.5,0.5-0.9c0-1-0.6-2.1-1.4-2.7l0.4-0.2c0.8,0.5,1.4,1.7,1.4,2.7C29.2,33.3,29,33.6,28.8,33.8z"/>
					</g>
					<g>
						<defs>
							<path id="SVGID_00000030448679250967884460000008109283329490132627_" d="M28.8,33.8L28.4,34c0.3-0.1,0.5-0.5,0.5-0.9
								c0-1-0.6-2.1-1.4-2.7l0.4-0.2c0.8,0.5,1.4,1.7,1.4,2.7C29.2,33.3,29,33.6,28.8,33.8z"/>
						</defs>
						<clipPath id="SVGID_00000149382145187242999970000010498541505422420623_">
							<use xlink:href="#SVGID_00000030448679250967884460000008109283329490132627_"  style="overflow:visible;"/>
						</clipPath>
						<g style="clip-path:url(#SVGID_00000149382145187242999970000010498541505422420623_);enable-background:new    ;">
							<path class="st14" d="M27.5,30.4l0.4-0.2l0,0L27.5,30.4L27.5,30.4L27.5,30.4z"/>
							<path class="st14" d="M27.5,30.4l0.4-0.2c0.1,0.1,0.2,0.2,0.3,0.2l-0.4,0.2C27.7,30.6,27.6,30.5,27.5,30.4L27.5,30.4z"/>
							<path class="st14" d="M27.8,30.6l0.4-0.2c0.1,0.1,0.2,0.2,0.3,0.3L28.1,31C28,30.9,27.9,30.7,27.8,30.6L27.8,30.6z"/>
							<path class="st14" d="M28.1,31l0.4-0.2c0.2,0.3,0.4,0.6,0.5,0.9l-0.4,0.2C28.5,31.6,28.3,31.2,28.1,31L28.1,31z"/>
							<path class="st14" d="M28.7,31.9l0.4-0.2c0,0.1,0.1,0.3,0.1,0.4l-0.4,0.2C28.7,32.2,28.7,32,28.7,31.9L28.7,31.9z"/>
							<path class="st14" d="M28.8,32.3l0.4-0.2c0,0.1,0.1,0.3,0.1,0.4l-0.4,0.2C28.8,32.6,28.8,32.4,28.8,32.3L28.8,32.3z"/>
							<path class="st14" d="M28.9,32.7l0.4-0.2c0,0.1,0,0.2,0,0.4l0,0L28.9,33l0,0C28.9,32.9,28.9,32.8,28.9,32.7L28.9,32.7z"/>
							<path class="st14" d="M28.9,33l0.4-0.2c0,0.1,0,0.3-0.1,0.4l-0.4,0.2C28.8,33.3,28.9,33.2,28.9,33L28.9,33z"/>
							<path class="st14" d="M29.2,32.4l0.4-0.2c-0.1,0.3-0.2,0.5-0.4,0.6L28.7,33C28.9,32.9,29.1,32.7,29.2,32.4L29.2,32.4z"/>
						</g>
					</g>
				</g>
				<g>
					<path class="st17" d="M27.5,30.4c0.8,0.5,1.4,1.7,1.4,2.7s-0.7,1.3-1.5,0.8S26,32.2,26,31.2C26,30.2,26.7,29.9,27.5,30.4z"/>
				</g>
			</g>
			<g>
				<path class="st14" d="M27.4,30.8c0.6,0.4,1.1,1.3,1,2c0,0.7-0.5,1-1.1,0.6s-1.1-1.3-1-2C26.3,30.7,26.8,30.4,27.4,30.8z"/>
			</g>
			<g>
				<g>
					<path class="st17" d="M27.4,31.4c0.3,0.2,0.6,0.7,0.6,1.1s-0.3,0.6-0.6,0.3c-0.3-0.2-0.6-0.7-0.6-1.1
						C26.7,31.3,27,31.2,27.4,31.4z"/>
				</g>
			</g>
		</g>
		
			<linearGradient id="SVGID_00000039111075013133041600000003101096154679948465_" gradientUnits="userSpaceOnUse" x1="23.6999" y1="63.0942" x2="34.2167" y2="39.5081" gradientTransform="matrix(1 0 0 -1 0 105.89)">
			<stop  offset="0" style="stop-color:#AC44EE"/>
			<stop  offset="0.3072" style="stop-color:#8334C4"/>
			<stop  offset="0.5912" style="stop-color:#6529A6"/>
			<stop  offset="0.8318" style="stop-color:#532293"/>
			<stop  offset="1" style="stop-color:#4C1F8C"/>
		</linearGradient>
		<path style="fill:url(#SVGID_00000039111075013133041600000003101096154679948465_);" d="M25,40c1,0.9,1.1,2.1,1.2,3.6
			c0,1.2-0.3,4,0.7,5.1c0.6,0.6-1,1.2-1.1,1.9c0,0.3-0.4-0.7-0.6-0.6c-0.1,0.1-0.3,0-0.4,0c-0.5-0.2-0.9-0.8-1.2-1.3
			c-1.1-1.9-2.9-6.1-1.7-8.2C22.7,39.2,24.6,39.7,25,40z"/>
		<path class="st17" d="M36.5,64.5c-1.3,1.3-2.8,2.1-4.3,2.4c-2.2,0.5-4.6-0.2-6.3-1.7c-0.8-0.6-1.3-0.9-1.7-1.8
			c-0.3-0.7,0.9-3.8,1.3-3.5c0.5,0.3,1,0.6,1.4,0.9c2.5,1.4,6.5,1.3,9.1,0c2-1,1.9-3.3,1.9-3.3S39.9,61.1,36.5,64.5z"/>
		<g class="st1">
			<g>
				<path id="SVGID_00000101077158635734048670000010176863595328565920_" class="st29" d="M30.5,30.1l0.1,2.4c0,0,0,0.1,0.1,0.1
					c1.5,0.8,3.8,0.6,5.1-0.2c0.7-0.4,1-1,1-1.6l-0.1-2.4c0,0.5-0.3,1.1-1,1.6C34.3,30.8,32,30.9,30.5,30.1L30.5,30.1z"/>
			</g>
		</g>
		<g class="st1">
			<path class="st13" d="M31.2,31.1v1c1.4,0.5,3.3,0.3,4.6-0.5c0.5-0.3,0.8-0.6,0.9-1c0.1-0.2,0.1-0.4,0.1-0.6l-0.1-1
				c0,0.5-0.3,1.1-1,1.5c-1.2,0.8-3,0.9-4.4,0.5C31.3,31.1,31.2,31.1,31.2,31.1z"/>
		</g>
		<g>
			<path class="st5" d="M31.3,31.1V32c1.4,0.5,3.3,0.2,4.6-0.6c0.4-0.2,0.6-0.5,0.8-0.8c0.1-0.2,0.1-0.4,0.1-0.6l-0.1-1
				c0,0.5-0.3,1.1-1,1.5C34.6,31.4,32.7,31.6,31.3,31.1z"/>
		</g>
		<polygon class="st14" points="34.7,45.8 33.3,49.4 36.1,47.8 		"/>
		<polygon class="st17" points="35.9,50.1 33.8,51.3 32.3,52.8 32.3,53.6 33.8,53.3 35.9,52.1 37.4,50.6 37.4,49.8 		"/>
		<polygon class="st17" points="36.3,52.6 34.6,53.5 33.4,54.7 33.4,55.3 34.6,55.1 36.3,54.1 37.5,53 37.5,52.3 		"/>
		<polygon class="st17" points="36.2,54.9 34.9,55.7 33.9,56.6 33.9,57.1 34.9,56.9 36.2,56.1 37.2,55.2 37.2,54.7 		"/>
		<g>
			<g>
				<g>
					<g>
						<g>
							<path id="SVGID_00000111190966651066911240000003446562780297206163_" class="st14" d="M37.7,70.9v-0.4
								c0-0.3,0.2-0.6,0.6-0.7v0.4C37.9,70.4,37.7,70.7,37.7,70.9z"/>
						</g>
						<g>
							<defs>
								<path id="SVGID_00000083771575541968589260000014279337814832849293_" d="M37.7,70.9v-0.4c0-0.3,0.2-0.6,0.6-0.7v0.4
									C37.9,70.4,37.7,70.7,37.7,70.9z"/>
							</defs>
							<clipPath id="SVGID_00000170957377552551083200000012158573741205385898_">
								<use xlink:href="#SVGID_00000083771575541968589260000014279337814832849293_"  style="overflow:visible;"/>
							</clipPath>
							<g style="clip-path:url(#SVGID_00000170957377552551083200000012158573741205385898_);enable-background:new    ;">
								<path class="st14" d="M37.7,70.9v-0.4c0-0.1,0.1-0.3,0.2-0.4v0.4C37.7,70.7,37.7,70.8,37.7,70.9L37.7,70.9z"/>
								<path class="st14" d="M37.8,70.6v-0.4c0.1-0.1,0.1-0.1,0.2-0.2v0.4C37.9,70.4,37.9,70.5,37.8,70.6L37.8,70.6z"/>
								<path class="st14" d="M38,70.4V70c0.1-0.1,0.2-0.1,0.3-0.1v0.4C38.2,70.2,38.1,70.3,38,70.4L38,70.4z"/>
							</g>
						</g>
					</g>
					<g>
						<g>
							<path id="SVGID_00000035507574441515512450000012533045653589988531_" class="st14" d="M41.5,70.9v0.4c0-0.3-0.1-0.6-0.5-0.8
								c-0.7-0.5-1.9-0.6-2.7-0.2v-0.4c0.8-0.4,2-0.3,2.7,0.2C41.4,70.3,41.6,70.6,41.5,70.9z"/>
						</g>
						<g>
							<defs>
								<path id="SVGID_00000054959301975519560960000002854766785202142142_" d="M41.5,70.9v0.4c0-0.3-0.1-0.6-0.5-0.8
									c-0.7-0.5-1.9-0.6-2.7-0.2v-0.4c0.8-0.4,2-0.3,2.7,0.2C41.4,70.3,41.6,70.6,41.5,70.9z"/>
							</defs>
							<clipPath id="SVGID_00000044153245352288517860000002170078847426131092_">
								<use xlink:href="#SVGID_00000054959301975519560960000002854766785202142142_"  style="overflow:visible;"/>
							</clipPath>
							<g style="clip-path:url(#SVGID_00000044153245352288517860000002170078847426131092_);enable-background:new    ;">
								<path class="st14" d="M38.3,70.2v-0.4l0,0V70.2L38.3,70.2L38.3,70.2z"/>
								<path class="st14" d="M38.3,70.2v-0.4c0.1,0,0.2-0.1,0.3-0.1v0.4C38.5,70.1,38.4,70.1,38.3,70.2L38.3,70.2z"/>
								<path class="st14" d="M38.6,70.1v-0.4c0.1,0,0.3-0.1,0.4-0.1V70C38.9,70,38.8,70,38.6,70.1L38.6,70.1z"/>
								<path class="st14" d="M39,70v-0.4c0.3,0,0.7,0,1,0V70C39.7,70,39.4,70,39,70L39,70z"/>
								<path class="st14" d="M40,70v-0.4c0.1,0,0.2,0.1,0.4,0.1v0.4C40.3,70.1,40.2,70.1,40,70L40,70z"/>
								<path class="st14" d="M40.4,70.1v-0.4c0.1,0,0.2,0.1,0.3,0.1v0.4C40.6,70.2,40.5,70.2,40.4,70.1L40.4,70.1z"/>
								<path class="st14" d="M40.7,70.3v-0.4c0.1,0,0.2,0.1,0.3,0.2l0,0v0.4l0,0C40.9,70.4,40.8,70.3,40.7,70.3L40.7,70.3z"/>
								<path class="st14" d="M41,70.4V70c0.1,0.1,0.2,0.1,0.2,0.2v0.4C41.2,70.6,41.1,70.5,41,70.4L41,70.4z"/>
								<path class="st14" d="M40.7,69.9l0.1-0.4c0.2,0.2,0.2,0.4,0.2,0.6l-0.1,0.4C40.9,70.3,40.8,70.1,40.7,69.9L40.7,69.9z"/>
							</g>
						</g>
					</g>
					<g>
						<path class="st17" d="M38.3,70.2c0.8-0.4,2-0.3,2.7,0.2s0.6,1.2-0.1,1.6c-0.8,0.4-2,0.3-2.7-0.2
							C37.4,71.3,37.5,70.6,38.3,70.2z"/>
					</g>
				</g>
				<g>
					<path class="st14" d="M38.6,70.5c0.6-0.3,1.5-0.2,2,0.2c0.5,0.4,0.5,0.9-0.1,1.2c-0.6,0.3-1.5,0.2-2-0.2
						C37.9,71.3,38,70.8,38.6,70.5z"/>
				</g>
				<g>
					<g>
						<path class="st17" d="M39,70.8c0.3-0.2,0.8-0.1,1.2,0.1c0.3,0.2,0.3,0.5-0.1,0.7c-0.3,0.2-0.9,0.1-1.2-0.1
							C38.6,71.2,38.7,70.9,39,70.8z"/>
					</g>
				</g>
			</g>
			<g>
				<path class="st14" d="M34.2,70.9c-0.1,0.2-0.2,0.4-0.2,0.6c-0.1,0.3,0,0.6,0,1c0.1,0.7-0.9,0.4-0.5,1c0.3,0.4,3.2,2.2,3.7,2.6
					c0.8,0.5,1.2,0.4,2,0.3c1-0.1,1.9-0.5,2.4-1.4c0.1-0.2,0.2-0.3,0.2-0.5c0.3-1,0.4-1.6-0.4-2.5c-1.1-1.2-2.4-3-3.8-3.3
					c-0.8-0.2-1.6,0.2-2.2,0.5c-0.6,0.3-1,0.9-1.2,1.4C34.3,70.8,34.3,70.8,34.2,70.9z"/>
				<path class="st14" d="M30.8,63.3c0.5,0.3,0.9,0.7,1.3,1.1c1.5,1.2,3.1,2.4,4.6,3.7c0.9,0.8,2.4,1.8,2.7,3c0.3,1.1,0.1,2.2-0.6,3
					c-0.2,0.3-0.5,0.5-0.8,0.5c-0.8,0.1-0.9,0.6-1.7,0.2c-6.7-4-5.6-3.6-7.9-5.5c-0.5-0.4-2.1-0.6-2.9-1.4c-0.9-0.9-1.8-1.7-2.1-2.4
					C22.3,62.4,27.6,61.3,30.8,63.3z"/>
				
					<linearGradient id="SVGID_00000086676922252510797370000015049628209117847690_" gradientUnits="userSpaceOnUse" x1="-803.5403" y1="1569.1525" x2="-800.4147" y2="1543.356" gradientTransform="matrix(0.5406 -0.8413 -0.8413 -0.5406 1771.3889 233.1121)">
					<stop  offset="0" style="stop-color:#E8E9FC"/>
					<stop  offset="1" style="stop-color:#D3D4EC"/>
				</linearGradient>
				<path style="fill:url(#SVGID_00000086676922252510797370000015049628209117847690_);" d="M24.8,67.6c2.2,1.6,4.2,3.7,6.5,5
					c1.4,0.9,4.2,2.3,4.2,2.3c0.6,0.4,1.7,0.5,2.4,0.3c1-0.2,2.2-1.1,2.7-2c1-2-0.9-3.5-2.3-4.8c-6.5-6.2-5.6-5.1-7.3-5
					c-0.7,0.1-1.5-0.2-2.2-0.2C26.9,63.3,21.5,65.2,24.8,67.6z"/>
			</g>
			<g>
				<g>
					<g>
						<g>
							<path id="SVGID_00000125580664747301484460000001108734038178173571_" class="st14" d="M35.9,76v-0.4c0-0.3,0.2-0.6,0.6-0.7
								v0.4C36.1,75.5,35.9,75.7,35.9,76z"/>
						</g>
						<g>
							<defs>
								<path id="SVGID_00000144321234160166110510000005806784094022713522_" d="M35.9,76v-0.4c0-0.3,0.2-0.6,0.6-0.7v0.4
									C36.1,75.5,35.9,75.7,35.9,76z"/>
							</defs>
							<clipPath id="SVGID_00000086676171449821051090000010811561032602706823_">
								<use xlink:href="#SVGID_00000144321234160166110510000005806784094022713522_"  style="overflow:visible;"/>
							</clipPath>
							<g style="clip-path:url(#SVGID_00000086676171449821051090000010811561032602706823_);enable-background:new    ;">
								<path class="st14" d="M35.9,76v-0.4c0-0.1,0.1-0.3,0.2-0.4v0.4C36,75.8,35.9,75.9,35.9,76L35.9,76z"/>
								<path class="st14" d="M36.1,75.6v-0.4c0.1-0.1,0.1-0.1,0.2-0.2v0.4C36.2,75.5,36.1,75.6,36.1,75.6L36.1,75.6z"/>
								<path class="st14" d="M36.3,75.4V75c0.1-0.1,0.2-0.1,0.3-0.1v0.4C36.5,75.3,36.4,75.4,36.3,75.4L36.3,75.4z"/>
							</g>
						</g>
					</g>
					<g>
						<g>
							<path id="SVGID_00000075130834112204974990000014283099265177699249_" class="st14" d="M39.8,76v0.4c0-0.3-0.1-0.6-0.5-0.8
								c-0.7-0.5-1.9-0.6-2.7-0.2V75c0.8-0.4,2-0.3,2.7,0.2C39.7,75.4,39.8,75.7,39.8,76z"/>
						</g>
						<g>
							<defs>
								<path id="SVGID_00000070799059694600303660000010936283103515738255_" d="M39.8,76v0.4c0-0.3-0.1-0.6-0.5-0.8
									c-0.7-0.5-1.9-0.6-2.7-0.2V75c0.8-0.4,2-0.3,2.7,0.2C39.7,75.4,39.8,75.7,39.8,76z"/>
							</defs>
							<clipPath id="SVGID_00000131326828676047936410000010139317057115031954_">
								<use xlink:href="#SVGID_00000070799059694600303660000010936283103515738255_"  style="overflow:visible;"/>
							</clipPath>
							<g style="clip-path:url(#SVGID_00000131326828676047936410000010139317057115031954_);enable-background:new    ;">
								<path class="st14" d="M36.5,75.3v-0.4l0,0V75.3C36.6,75.3,36.6,75.3,36.5,75.3L36.5,75.3z"/>
								<path class="st14" d="M36.6,75.3v-0.4c0.1,0,0.2-0.1,0.3-0.1v0.4C36.8,75.2,36.7,75.2,36.6,75.3L36.6,75.3z"/>
								<path class="st14" d="M36.9,75.2v-0.4c0.1,0,0.3-0.1,0.4-0.1v0.4C37.2,75.1,37,75.1,36.9,75.2L36.9,75.2z"/>
								<path class="st14" d="M37.3,75.1v-0.4c0.3,0,0.7,0,1,0v0.4C38,75.1,37.6,75,37.3,75.1L37.3,75.1z"/>
								<path class="st14" d="M38.3,75.1v-0.4c0.1,0,0.2,0.1,0.4,0.1v0.4C38.5,75.2,38.4,75.1,38.3,75.1L38.3,75.1z"/>
								<path class="st14" d="M38.6,75.2v-0.4c0.1,0,0.2,0.1,0.3,0.1v0.4C38.9,75.3,38.8,75.2,38.6,75.2L38.6,75.2z"/>
								<path class="st14" d="M39,75.3v-0.4c0.1,0,0.2,0.1,0.3,0.2l0,0v0.4l0,0C39.2,75.5,39.1,75.4,39,75.3L39,75.3z"/>
								<path class="st14" d="M39.3,75.5v-0.4c0.1,0.1,0.2,0.1,0.2,0.2v0.4C39.5,75.7,39.4,75.6,39.3,75.5L39.3,75.5z"/>
								<path class="st14" d="M38.9,75l0.1-0.4c0.2,0.2,0.2,0.4,0.2,0.6l-0.1,0.4C39.2,75.4,39.1,75.2,38.9,75L38.9,75z"/>
							</g>
						</g>
					</g>
					<g>
						<path class="st17" d="M36.5,75.3c0.8-0.4,2-0.3,2.7,0.2s0.6,1.2-0.1,1.6c-0.8,0.4-2,0.3-2.7-0.2S35.8,75.7,36.5,75.3z"/>
					</g>
				</g>
				<g>
					<path class="st14" d="M36.8,75.6c0.6-0.3,1.5-0.2,2,0.2c0.5,0.4,0.5,0.9-0.1,1.2c-0.6,0.3-1.5,0.2-2-0.2S36.3,75.8,36.8,75.6z"
						/>
				</g>
				<g>
					<g>
						<path class="st17" d="M37.3,75.9c0.3-0.2,0.8-0.1,1.2,0.1c0.3,0.2,0.3,0.5-0.1,0.7c-0.3,0.2-0.9,0.1-1.2-0.1
							C36.9,76.3,36.9,76,37.3,75.9z"/>
					</g>
				</g>
			</g>
			<path class="st14" d="M41.6,72.4l-4.2-2.7c-0.4-0.3-1-0.2-1.3,0.3c-0.3,0.4-0.2,1,0.3,1.3l4.2,2.7L41.6,72.4z"/>
			<path class="st14" d="M26.3,66.1c0.4,0.2,0.3,0.6,0,0.8s-1,0.2-1.3-0.1c-0.4-0.2-0.3-0.6,0-0.8C25.3,65.9,25.9,65.9,26.3,66.1z"
				/>
			<path class="st14" d="M28.1,67.3c0.4,0.2,0.3,0.6,0,0.8c-0.4,0.2-1,0.2-1.3-0.1c-0.4-0.2-0.3-0.6,0-0.8
				C27.2,67.1,27.8,67.1,28.1,67.3z"/>
		</g>
	</g>
	<g>
		<polygon class="st12" points="40.7,84.2 40.8,105.2 42.2,104.3 42.1,83.3 		"/>
		<polygon class="st13" points="20,72.1 20.1,93.1 40.8,105.2 40.7,84.2 		"/>
		<polygon class="st13" points="56.7,54.1 56.8,76 75.6,86.4 75.6,64.5 		"/>
		<polygon class="st12" points="75.6,64.5 75.6,86.4 77.1,85.5 77,63.6 		"/>
		<polygon class="st2" points="19.2,72.1 19.2,73.8 40.7,86.3 40.7,84.7 		"/>
		<polygon class="st5" points="40.7,84.7 40.7,86.3 77.1,65.3 77.1,63.6 		"/>
		<polygon class="st14" points="19.2,72.1 40.7,84.7 77.1,63.6 55.5,51.1 		"/>
	</g>
	<g>
		<g>
			<g class="st1">
				<g>
					<g>
						<path id="SVGID_00000093160672685858757810000002936597391738477732_" class="st12" d="M52.6,63.3v0.5c0,0.2-0.1,0.4-0.4,0.5
							v-0.5C52.4,63.7,52.6,63.5,52.6,63.3z"/>
					</g>
					<g>
						<defs>
							<path id="SVGID_00000116946597567894597160000010122447805619742106_" d="M52.6,63.3v0.5c0,0.2-0.1,0.4-0.4,0.5v-0.5
								C52.4,63.7,52.6,63.5,52.6,63.3z"/>
						</defs>
						<clipPath id="SVGID_00000101064888119755783250000006879388291644459138_">
							<use xlink:href="#SVGID_00000116946597567894597160000010122447805619742106_"  style="overflow:visible;"/>
						</clipPath>
						<g style="clip-path:url(#SVGID_00000101064888119755783250000006879388291644459138_);enable-background:new    ;">
							<path class="st12" d="M52.6,63.3v0.5c0,0.1,0,0.1,0,0.2v-0.5C52.5,63.4,52.6,63.3,52.6,63.3L52.6,63.3z"/>
							<path class="st12" d="M52.5,63.4v0.5c-0.1,0.1-0.2,0.3-0.4,0.4v-0.5C52.4,63.7,52.5,63.6,52.5,63.4L52.5,63.4z"/>
						</g>
					</g>
				</g>
				<g>
					<g>
						<path id="SVGID_00000056425318622320728630000000527814160385747389_" class="st12" d="M31.5,68v-0.5c0,0.2,0.1,0.4,0.4,0.6
							v0.5C31.6,68.4,31.5,68.2,31.5,68z"/>
					</g>
					<g>
						<defs>
							<path id="SVGID_00000170996422360921139960000010899768004565119420_" d="M31.5,68v-0.5c0,0.2,0.1,0.4,0.4,0.6v0.5
								C31.6,68.4,31.5,68.2,31.5,68z"/>
						</defs>
						<clipPath id="SVGID_00000122699261693499926990000003822724889299077810_">
							<use xlink:href="#SVGID_00000170996422360921139960000010899768004565119420_"  style="overflow:visible;"/>
						</clipPath>
						<g style="clip-path:url(#SVGID_00000122699261693499926990000003822724889299077810_);enable-background:new    ;">
							<path class="st12" d="M31.9,68v0.5c-0.3-0.2-0.4-0.4-0.4-0.6v-0.5C31.5,67.6,31.6,67.8,31.9,68L31.9,68z"/>
						</g>
					</g>
				</g>
				<g>
					<polygon class="st12" points="52.2,63.8 52.2,64.3 39.4,71.8 39.4,71.2 					"/>
				</g>
				<g>
					<polygon class="st12" points="37.5,71.2 37.5,71.8 31.9,68.5 31.9,68 					"/>
				</g>
				<g>
					<g>
						<path id="SVGID_00000003088890921316270140000013077158479181504142_" class="st12" d="M39.4,71.2v0.5c-0.5,0.3-1.4,0.3-1.9,0
							v-0.5C38,71.5,38.9,71.5,39.4,71.2z"/>
					</g>
					<g>
						<defs>
							<path id="SVGID_00000141417728994892711840000017210141960800319899_" d="M39.4,71.2v0.5c-0.5,0.3-1.4,0.3-1.9,0v-0.5
								C38,71.5,38.9,71.5,39.4,71.2z"/>
						</defs>
						<clipPath id="SVGID_00000114053850589876122260000009311536715262684594_">
							<use xlink:href="#SVGID_00000141417728994892711840000017210141960800319899_"  style="overflow:visible;"/>
						</clipPath>
						<g style="clip-path:url(#SVGID_00000114053850589876122260000009311536715262684594_);enable-background:new    ;">
							<path class="st12" d="M39.4,71.2v0.5c-0.3,0.2-0.6,0.2-1,0.2v-0.5C38.8,71.5,39.1,71.4,39.4,71.2L39.4,71.2z"/>
							<path class="st12" d="M38.4,71.5V72c-0.3,0-0.7-0.1-0.9-0.2v-0.5C37.7,71.4,38.1,71.5,38.4,71.5L38.4,71.5z"/>
						</g>
					</g>
				</g>
				<g>
					<path class="st29" d="M52.2,62.7c0.5,0.3,0.5,0.8,0,1.1l-12.8,7.4c-0.5,0.3-1.4,0.3-1.9,0L31.9,68c-0.5-0.3-0.5-0.8,0-1.1
						l12.8-7.4c0.5-0.3,1.4-0.3,1.9,0L52.2,62.7z"/>
				</g>
			</g>
		</g>
		<g>
			<g>
				<g class="st1">
					<g>
						<polygon class="st12" points="46.5,60.1 46.5,60.2 45.7,60.7 45.7,60.6 						"/>
					</g>
					<g>
						<polygon class="st12" points="45.7,60.6 45.7,60.7 44.8,60.2 44.8,60.1 						"/>
					</g>
				</g>
				<g class="st1">
					<g>
						<polygon class="st12" points="45.4,60.7 45.4,60.8 44.6,61.3 44.6,61.2 						"/>
					</g>
					<g>
						<polygon class="st12" points="44.6,61.2 44.6,61.3 43.8,60.8 43.8,60.7 						"/>
					</g>
				</g>
				<g class="st1">
					<g>
						<polygon class="st12" points="44.4,61.3 44.4,61.4 43.6,61.9 43.6,61.8 						"/>
					</g>
					<g>
						<polygon class="st12" points="43.6,61.8 43.6,61.9 42.7,61.4 42.7,61.3 						"/>
					</g>
				</g>
				<g class="st1">
					<g>
						<polygon class="st12" points="43.4,61.9 43.4,62 42.5,62.5 42.5,62.4 						"/>
					</g>
					<g>
						<polygon class="st12" points="42.5,62.4 42.5,62.5 41.7,62 41.7,61.9 						"/>
					</g>
				</g>
				<g class="st1">
					<g>
						<polygon class="st12" points="42.3,62.5 42.3,62.6 41.5,63.1 41.5,63 						"/>
					</g>
					<g>
						<polygon class="st12" points="41.5,63 41.5,63.1 40.7,62.6 40.7,62.5 						"/>
					</g>
				</g>
				<g class="st1">
					<g>
						<polygon class="st12" points="41.3,63.1 41.3,63.2 40.5,63.7 40.5,63.6 						"/>
					</g>
					<g>
						<polygon class="st12" points="40.5,63.6 40.5,63.7 39.6,63.2 39.6,63.1 						"/>
					</g>
				</g>
				<g class="st1">
					<g>
						<polygon class="st12" points="40.2,63.7 40.2,63.8 39.4,64.3 39.4,64.2 						"/>
					</g>
					<g>
						<polygon class="st12" points="39.4,64.2 39.4,64.3 38.6,63.8 38.6,63.7 						"/>
					</g>
				</g>
				<g class="st1">
					<g>
						<polygon class="st12" points="39.2,64.3 39.2,64.4 38.4,64.9 38.4,64.8 						"/>
					</g>
					<g>
						<polygon class="st12" points="38.4,64.8 38.4,64.9 37.5,64.4 37.5,64.3 						"/>
					</g>
				</g>
				<g class="st1">
					<g>
						<polygon class="st12" points="38.2,64.9 38.2,65 37.3,65.5 37.3,65.4 						"/>
					</g>
					<g>
						<polygon class="st12" points="37.3,65.4 37.3,65.5 36.5,65 36.5,64.9 						"/>
					</g>
				</g>
				<g class="st1">
					<g>
						<polygon class="st12" points="37.1,65.5 37.1,65.6 36.3,66.1 36.3,66 						"/>
					</g>
					<g>
						<polygon class="st12" points="36.3,66 36.3,66.1 35.5,65.6 35.5,65.5 						"/>
					</g>
				</g>
				<g class="st1">
					<g>
						<polygon class="st12" points="36.1,66.2 36.1,66.2 35.2,66.7 35.2,66.6 						"/>
					</g>
					<g>
						<polygon class="st12" points="35.2,66.6 35.2,66.7 34.4,66.2 34.4,66.2 						"/>
					</g>
				</g>
				<g class="st1">
					<g>
						<polygon class="st12" points="35,66.8 35,66.9 34.2,67.3 34.2,67.2 						"/>
					</g>
					<g>
						<polygon class="st12" points="34.2,67.2 34.2,67.3 33.4,66.9 33.4,66.8 						"/>
					</g>
				</g>
				<g class="st1">
					<g>
						<polygon class="st12" points="34,67.4 34,67.5 33.2,67.9 33.2,67.8 						"/>
					</g>
					<g>
						<polygon class="st12" points="33.2,67.8 33.2,67.9 32.3,67.5 32.3,67.4 						"/>
					</g>
				</g>
				<g class="st1">
					<g>
						<polygon class="st12" points="47.5,60.7 47.5,60.8 45.8,61.8 45.8,61.7 						"/>
					</g>
					<g>
						<polygon class="st12" points="45.8,61.7 45.8,61.8 45,61.3 45,61.2 						"/>
					</g>
				</g>
				<g class="st1">
					<g>
						<polygon class="st12" points="45.6,61.8 45.6,61.9 44.8,62.4 44.8,62.3 						"/>
					</g>
					<g>
						<polygon class="st12" points="44.8,62.3 44.8,62.4 43.9,61.9 43.9,61.8 						"/>
					</g>
				</g>
				<g class="st1">
					<g>
						<polygon class="st12" points="44.6,62.4 44.6,62.5 43.8,63 43.8,62.9 						"/>
					</g>
					<g>
						<polygon class="st12" points="43.8,62.9 43.8,63 43,62.5 43,62.4 						"/>
					</g>
				</g>
				<g class="st1">
					<g>
						<polygon class="st12" points="43.6,63 43.6,63.1 42.8,63.5 42.8,63.5 						"/>
					</g>
					<g>
						<polygon class="st12" points="42.8,63.5 42.8,63.5 42,63.1 42,63 						"/>
					</g>
				</g>
				<g class="st1">
					<g>
						<polygon class="st12" points="42.6,63.6 42.6,63.6 41.8,64.1 41.8,64 						"/>
					</g>
					<g>
						<polygon class="st12" points="41.8,64 41.8,64.1 41,63.6 41,63.6 						"/>
					</g>
				</g>
				<g class="st1">
					<g>
						<polygon class="st12" points="41.6,64.1 41.6,64.2 40.8,64.7 40.8,64.6 						"/>
					</g>
					<g>
						<polygon class="st12" points="40.8,64.6 40.8,64.7 40,64.2 40,64.1 						"/>
					</g>
				</g>
				<g class="st1">
					<g>
						<polygon class="st12" points="40.6,64.7 40.6,64.8 39.8,65.3 39.8,65.2 						"/>
					</g>
					<g>
						<polygon class="st12" points="39.8,65.2 39.8,65.3 39,64.8 39,64.7 						"/>
					</g>
				</g>
				<g class="st1">
					<g>
						<polygon class="st12" points="39.6,65.3 39.6,65.4 38.8,65.9 38.8,65.8 						"/>
					</g>
					<g>
						<polygon class="st12" points="38.8,65.8 38.8,65.9 38,65.4 38,65.3 						"/>
					</g>
				</g>
				<g class="st1">
					<g>
						<polygon class="st12" points="38.7,65.9 38.7,66 37.8,66.4 37.8,66.3 						"/>
					</g>
					<g>
						<polygon class="st12" points="37.8,66.3 37.8,66.4 37,66 37,65.9 						"/>
					</g>
				</g>
				<g class="st1">
					<g>
						<polygon class="st12" points="37.7,66.4 37.7,66.5 36.8,67 36.8,66.9 						"/>
					</g>
					<g>
						<polygon class="st12" points="36.8,66.9 36.8,67 36,66.5 36,66.4 						"/>
					</g>
				</g>
				<g class="st1">
					<g>
						<polygon class="st12" points="36.7,67 36.7,67.1 35.8,67.6 35.8,67.5 						"/>
					</g>
					<g>
						<polygon class="st12" points="35.8,67.5 35.8,67.6 35,67.1 35,67 						"/>
					</g>
				</g>
				<g class="st1">
					<g>
						<polygon class="st12" points="35.7,67.6 35.7,67.7 34.2,68.5 34.2,68.5 						"/>
					</g>
					<g>
						<polygon class="st12" points="34.2,68.5 34.2,68.5 33.4,68.1 33.4,68 						"/>
					</g>
				</g>
				<g class="st1">
					<g>
						<polygon class="st12" points="48.5,61.3 48.5,61.4 46.4,62.6 46.4,62.6 						"/>
					</g>
					<g>
						<polygon class="st12" points="46.4,62.6 46.4,62.6 45.6,62.2 45.6,62.1 						"/>
					</g>
				</g>
				<g class="st1">
					<g>
						<polygon class="st12" points="46.2,62.7 46.2,62.8 45.4,63.2 45.4,63.1 						"/>
					</g>
					<g>
						<polygon class="st12" points="45.4,63.1 45.4,63.2 44.6,62.8 44.6,62.7 						"/>
					</g>
				</g>
				<g class="st1">
					<g>
						<polygon class="st12" points="45.3,63.2 45.3,63.3 44.4,63.8 44.4,63.7 						"/>
					</g>
					<g>
						<polygon class="st12" points="44.4,63.7 44.4,63.8 43.6,63.3 43.6,63.2 						"/>
					</g>
				</g>
				<g class="st1">
					<g>
						<polygon class="st12" points="44.3,63.8 44.3,63.9 43.4,64.4 43.4,64.3 						"/>
					</g>
					<g>
						<polygon class="st12" points="43.4,64.3 43.4,64.4 42.6,63.9 42.6,63.8 						"/>
					</g>
				</g>
				<g class="st1">
					<g>
						<polygon class="st12" points="43.3,64.4 43.3,64.5 42.5,64.9 42.5,64.9 						"/>
					</g>
					<g>
						<polygon class="st12" points="42.5,64.9 42.5,64.9 41.6,64.5 41.6,64.4 						"/>
					</g>
				</g>
				<g class="st1">
					<g>
						<polygon class="st12" points="42.3,64.9 42.3,65 41.5,65.5 41.5,65.4 						"/>
					</g>
					<g>
						<polygon class="st12" points="41.5,65.4 41.5,65.5 40.7,65 40.7,64.9 						"/>
					</g>
				</g>
				<g class="st1">
					<g>
						<polygon class="st12" points="41.3,65.5 41.3,65.6 40.5,66.1 40.5,66 						"/>
					</g>
					<g>
						<polygon class="st12" points="40.5,66 40.5,66.1 39.7,65.6 39.7,65.5 						"/>
					</g>
				</g>
				<g class="st1">
					<g>
						<polygon class="st12" points="40.4,66.1 40.4,66.2 39.5,66.7 39.5,66.6 						"/>
					</g>
					<g>
						<polygon class="st12" points="39.5,66.6 39.5,66.7 38.7,66.2 38.7,66.1 						"/>
					</g>
				</g>
				<g class="st1">
					<g>
						<polygon class="st12" points="39.4,66.6 39.4,66.7 38.6,67.2 38.6,67.1 						"/>
					</g>
					<g>
						<polygon class="st12" points="38.6,67.1 38.6,67.2 37.7,66.7 37.7,66.6 						"/>
					</g>
				</g>
				<g class="st1">
					<g>
						<polygon class="st12" points="38.4,67.2 38.4,67.3 37.6,67.8 37.6,67.7 						"/>
					</g>
					<g>
						<polygon class="st12" points="37.6,67.7 37.6,67.8 36.7,67.3 36.7,67.2 						"/>
					</g>
				</g>
				<g class="st1">
					<g>
						<polygon class="st12" points="37.4,67.8 37.4,67.9 35.2,69.1 35.2,69.1 						"/>
					</g>
					<g>
						<polygon class="st12" points="35.2,69.1 35.2,69.1 34.4,68.7 34.4,68.6 						"/>
					</g>
				</g>
				<g class="st1">
					<g>
						<polygon class="st12" points="48.5,62.5 48.5,62.6 48,62.9 48,62.8 						"/>
					</g>
					<g>
						<polygon class="st12" points="48,62.8 48,62.9 47.2,62.4 47.2,62.3 						"/>
					</g>
					<g>
						<polygon class="st12" points="49.6,63.1 49.6,63.2 48.5,62.6 48.5,62.5 						"/>
					</g>
					<g>
						<polygon class="st12" points="50.6,62.5 50.6,62.6 49.6,63.2 49.6,63.1 						"/>
					</g>
					<g>
						<polygon class="st12" points="47,63.4 47,63.5 46.2,63 46.2,62.9 						"/>
					</g>
					<g>
						<polygon class="st12" points="47.9,62.9 47.9,63 47,63.5 47,63.4 						"/>
					</g>
					<g>
						<polygon class="st12" points="48.5,63.8 48.5,63.8 47.7,63.4 47.7,63.3 						"/>
					</g>
					<g>
						<polygon class="st12" points="49.4,63.3 49.4,63.4 48.5,63.8 48.5,63.8 						"/>
					</g>
				</g>
				<g class="st1">
					<g>
						<polygon class="st12" points="51.7,63.2 51.7,63.3 49.6,64.5 49.6,64.4 						"/>
					</g>
					<g>
						<polygon class="st12" points="49.6,64.4 49.6,64.5 48.8,64 48.8,63.9 						"/>
					</g>
				</g>
				<g class="st1">
					<g>
						<polygon class="st12" points="46.9,63.5 46.9,63.6 46,64.1 46,64 						"/>
					</g>
					<g>
						<polygon class="st12" points="46,64 46,64.1 45.2,63.6 45.2,63.5 						"/>
					</g>
				</g>
				<g class="st1">
					<g>
						<polygon class="st12" points="45.9,64.1 45.9,64.2 45,64.7 45,64.6 						"/>
					</g>
					<g>
						<polygon class="st12" points="45,64.6 45,64.7 44.2,64.2 44.2,64.1 						"/>
					</g>
				</g>
				<g class="st1">
					<g>
						<polygon class="st12" points="44.9,64.7 44.9,64.7 44.1,65.2 44.1,65.1 						"/>
					</g>
					<g>
						<polygon class="st12" points="44.1,65.1 44.1,65.2 43.2,64.7 43.2,64.7 						"/>
					</g>
				</g>
				<g class="st1">
					<g>
						<polygon class="st12" points="43.9,65.2 43.9,65.3 43.1,65.8 43.1,65.7 						"/>
					</g>
					<g>
						<polygon class="st12" points="43.1,65.7 43.1,65.8 42.2,65.3 42.2,65.2 						"/>
					</g>
				</g>
				<g class="st1">
					<g>
						<polygon class="st12" points="42.9,65.8 42.9,65.9 42.1,66.4 42.1,66.3 						"/>
					</g>
					<g>
						<polygon class="st12" points="42.1,66.3 42.1,66.4 41.2,65.9 41.2,65.8 						"/>
					</g>
				</g>
				<g class="st1">
					<g>
						<polygon class="st12" points="41.9,66.4 41.9,66.5 41.1,67 41.1,66.9 						"/>
					</g>
					<g>
						<polygon class="st12" points="41.1,66.9 41.1,67 40.3,66.5 40.3,66.4 						"/>
					</g>
				</g>
				<g class="st1">
					<g>
						<polygon class="st12" points="40.9,67 40.9,67 40.1,67.5 40.1,67.4 						"/>
					</g>
					<g>
						<polygon class="st12" points="40.1,67.4 40.1,67.5 39.3,67 39.3,67 						"/>
					</g>
				</g>
				<g class="st1">
					<g>
						<polygon class="st12" points="39.9,67.5 39.9,67.6 39.1,68.1 39.1,68 						"/>
					</g>
					<g>
						<polygon class="st12" points="39.1,68 39.1,68.1 38.3,67.6 38.3,67.5 						"/>
					</g>
				</g>
				<g class="st1">
					<g>
						<polygon class="st12" points="39,68.1 39,68.2 38.1,68.7 38.1,68.6 						"/>
					</g>
					<g>
						<polygon class="st12" points="38.1,68.6 38.1,68.7 37.3,68.2 37.3,68.1 						"/>
					</g>
				</g>
				<g class="st1">
					<g>
						<polygon class="st12" points="37.9,68.7 37.9,68.8 36.3,69.7 36.3,69.7 						"/>
					</g>
					<g>
						<polygon class="st12" points="36.3,69.7 36.3,69.7 35.4,69.3 35.5,69.2 						"/>
					</g>
				</g>
				<g class="st1">
					<g>
						<polygon class="st12" points="48.4,63.8 48.4,63.9 47.5,64.4 47.5,64.3 						"/>
					</g>
					<g>
						<polygon class="st12" points="47.5,64.3 47.5,64.4 46.7,63.9 46.7,63.8 						"/>
					</g>
				</g>
				<g class="st1">
					<g>
						<polygon class="st12" points="47.4,64.4 47.4,64.5 46.5,65 46.5,64.9 						"/>
					</g>
					<g>
						<polygon class="st12" points="46.5,64.9 46.5,65 45.7,64.5 45.7,64.4 						"/>
					</g>
				</g>
				<g class="st1">
					<g>
						<polygon class="st12" points="46.4,65 46.4,65.1 45.6,65.6 45.6,65.5 						"/>
					</g>
					<g>
						<polygon class="st12" points="45.6,65.5 45.6,65.6 44.7,65.1 44.7,65 						"/>
					</g>
				</g>
				<g class="st1">
					<g>
						<polygon class="st12" points="45.4,65.6 45.4,65.7 44.6,66.1 44.6,66 						"/>
					</g>
					<g>
						<polygon class="st12" points="44.6,66 44.6,66.1 43.7,65.7 43.7,65.6 						"/>
					</g>
				</g>
				<g class="st1">
					<g>
						<polygon class="st12" points="44.4,66.1 44.4,66.2 43.6,66.7 43.6,66.6 						"/>
					</g>
					<g>
						<polygon class="st12" points="43.6,66.6 43.6,66.7 42.7,66.2 42.7,66.1 						"/>
					</g>
				</g>
				<g class="st1">
					<g>
						<polygon class="st12" points="43.4,66.7 43.4,66.8 42.6,67.3 42.6,67.2 						"/>
					</g>
					<g>
						<polygon class="st12" points="42.6,67.2 42.6,67.3 41.8,66.8 41.8,66.7 						"/>
					</g>
				</g>
				<g class="st1">
					<g>
						<polygon class="st12" points="42.4,67.3 42.4,67.4 41.6,67.9 41.6,67.8 						"/>
					</g>
					<g>
						<polygon class="st12" points="41.6,67.8 41.6,67.9 40.8,67.4 40.8,67.3 						"/>
					</g>
				</g>
				<g class="st1">
					<g>
						<polygon class="st12" points="41.4,67.9 41.4,68 40.6,68.4 40.6,68.3 						"/>
					</g>
					<g>
						<polygon class="st12" points="40.6,68.3 40.6,68.4 39.8,68 39.8,67.9 						"/>
					</g>
				</g>
				<g class="st1">
					<g>
						<polygon class="st12" points="40.5,68.4 40.5,68.5 39.6,69 39.6,68.9 						"/>
					</g>
					<g>
						<polygon class="st12" points="39.6,68.9 39.6,69 38.8,68.5 38.8,68.4 						"/>
					</g>
				</g>
				<g class="st1">
					<g>
						<polygon class="st12" points="39.4,69 39.4,69.1 37.3,70.3 37.3,70.3 						"/>
					</g>
					<g>
						<polygon class="st12" points="37.3,70.3 37.3,70.3 36.5,69.9 36.5,69.8 						"/>
					</g>
				</g>
				<g class="st1">
					<g>
						<polygon class="st12" points="49.4,64.5 49.4,64.6 48.6,65.1 48.6,65 						"/>
					</g>
					<g>
						<polygon class="st12" points="48.6,65 48.6,65.1 47.7,64.6 47.7,64.5 						"/>
					</g>
				</g>
				<g class="st1">
					<g>
						<polygon class="st12" points="48.4,65.1 48.4,65.2 47.6,65.6 47.6,65.5 						"/>
					</g>
					<g>
						<polygon class="st12" points="47.6,65.5 47.6,65.6 46.8,65.2 46.8,65.1 						"/>
					</g>
				</g>
				<g class="st1">
					<g>
						<polygon class="st12" points="47.4,65.6 47.4,65.7 46.6,66.2 46.6,66.1 						"/>
					</g>
					<g>
						<polygon class="st12" points="46.6,66.1 46.6,66.2 45.8,65.7 45.8,65.6 						"/>
					</g>
				</g>
				<g class="st1">
					<g>
						<polygon class="st12" points="46.5,66.2 46.5,66.3 45.6,66.8 45.6,66.7 						"/>
					</g>
					<g>
						<polygon class="st12" points="45.6,66.7 45.6,66.8 44.8,66.3 44.8,66.2 						"/>
					</g>
				</g>
				<g class="st1">
					<g>
						<polygon class="st12" points="45.5,66.8 45.5,66.9 41.7,69 41.7,69 						"/>
					</g>
					<g>
						<polygon class="st12" points="41.7,69 41.7,69 40.9,68.6 40.9,68.5 						"/>
					</g>
				</g>
				<g class="st1">
					<g>
						<polygon class="st12" points="41.5,69.1 41.5,69.2 40.7,69.6 40.7,69.6 						"/>
					</g>
					<g>
						<polygon class="st12" points="40.7,69.6 40.7,69.6 39.9,69.2 39.9,69.1 						"/>
					</g>
				</g>
				<g class="st1">
					<g>
						<polygon class="st12" points="40.5,69.7 40.5,69.7 38.4,71 38.4,70.9 						"/>
					</g>
					<g>
						<polygon class="st12" points="38.4,70.9 38.4,71 37.6,70.5 37.6,70.4 						"/>
					</g>
				</g>
			</g>
			<g>
				<polygon class="st17" points="46.5,60.1 45.7,60.6 44.8,60.1 45.7,59.6 				"/>
			</g>
			<g>
				<polygon class="st17" points="45.4,60.7 44.6,61.2 43.8,60.7 44.6,60.2 				"/>
			</g>
			<g>
				<polygon class="st17" points="44.4,61.3 43.6,61.8 42.7,61.3 43.6,60.8 				"/>
			</g>
			<g>
				<polygon class="st17" points="43.4,61.9 42.5,62.4 41.7,61.9 42.5,61.4 				"/>
			</g>
			<g>
				<polygon class="st17" points="42.3,62.5 41.5,63 40.7,62.5 41.5,62 				"/>
			</g>
			<g>
				<polygon class="st17" points="41.3,63.1 40.5,63.6 39.6,63.1 40.4,62.6 				"/>
			</g>
			<g>
				<polygon class="st17" points="40.2,63.7 39.4,64.2 38.6,63.7 39.4,63.3 				"/>
			</g>
			<g>
				<polygon class="st17" points="39.2,64.3 38.4,64.8 37.5,64.3 38.4,63.9 				"/>
			</g>
			<g>
				<polygon class="st17" points="38.2,64.9 37.3,65.4 36.5,64.9 37.3,64.5 				"/>
			</g>
			<g>
				<polygon class="st17" points="37.1,65.5 36.3,66 35.5,65.5 36.3,65.1 				"/>
			</g>
			<g>
				<polygon class="st17" points="36.1,66.2 35.2,66.6 34.4,66.2 35.2,65.7 				"/>
			</g>
			<g>
				<polygon class="st17" points="35,66.8 34.2,67.2 33.4,66.8 34.2,66.3 				"/>
			</g>
			<g>
				<polygon class="st17" points="34,67.4 33.2,67.8 32.3,67.4 33.2,66.9 				"/>
			</g>
			<g>
				<polygon class="st17" points="47.5,60.7 45.8,61.7 45,61.2 46.6,60.2 				"/>
			</g>
			<g>
				<polygon class="st17" points="45.6,61.8 44.8,62.3 43.9,61.8 44.8,61.3 				"/>
			</g>
			<g>
				<polygon class="st17" points="44.6,62.4 43.8,62.9 43,62.4 43.8,61.9 				"/>
			</g>
			<g>
				<polygon class="st17" points="43.6,63 42.8,63.5 42,63 42.8,62.5 				"/>
			</g>
			<g>
				<polygon class="st17" points="42.6,63.6 41.8,64 41,63.6 41.8,63.1 				"/>
			</g>
			<g>
				<polygon class="st17" points="41.6,64.1 40.8,64.6 40,64.1 40.8,63.6 				"/>
			</g>
			<g>
				<polygon class="st17" points="40.6,64.7 39.8,65.2 39,64.7 39.8,64.2 				"/>
			</g>
			<g>
				<polygon class="st17" points="39.6,65.3 38.8,65.8 38,65.3 38.8,64.8 				"/>
			</g>
			<g>
				<polygon class="st17" points="38.7,65.9 37.8,66.3 37,65.9 37.8,65.4 				"/>
			</g>
			<g>
				<polygon class="st17" points="37.7,66.4 36.8,66.9 36,66.4 36.8,66 				"/>
			</g>
			<g>
				<polygon class="st17" points="36.7,67 35.8,67.5 35,67 35.8,66.5 				"/>
			</g>
			<g>
				<polygon class="st17" points="35.7,67.6 34.2,68.5 33.4,68 34.8,67.1 				"/>
			</g>
			<g>
				<polygon class="st17" points="48.5,61.3 46.4,62.6 45.6,62.1 47.7,60.9 				"/>
			</g>
			<g>
				<polygon class="st17" points="46.2,62.7 45.4,63.1 44.6,62.7 45.4,62.2 				"/>
			</g>
			<g>
				<polygon class="st17" points="45.3,63.2 44.4,63.7 43.6,63.2 44.4,62.8 				"/>
			</g>
			<g>
				<polygon class="st17" points="44.3,63.8 43.4,64.3 42.6,63.8 43.4,63.3 				"/>
			</g>
			<g>
				<polygon class="st17" points="43.3,64.4 42.5,64.9 41.6,64.4 42.5,63.9 				"/>
			</g>
			<g>
				<polygon class="st17" points="42.3,64.9 41.5,65.4 40.7,64.9 41.5,64.5 				"/>
			</g>
			<g>
				<polygon class="st17" points="41.3,65.5 40.5,66 39.7,65.5 40.5,65 				"/>
			</g>
			<g>
				<polygon class="st17" points="40.4,66.1 39.5,66.6 38.7,66.1 39.5,65.6 				"/>
			</g>
			<g>
				<polygon class="st17" points="39.4,66.6 38.6,67.1 37.7,66.6 38.5,66.2 				"/>
			</g>
			<g>
				<polygon class="st17" points="38.4,67.2 37.6,67.7 36.7,67.2 37.6,66.7 				"/>
			</g>
			<g>
				<polygon class="st17" points="37.4,67.8 35.2,69.1 34.4,68.6 36.5,67.3 				"/>
			</g>
			<g>
				<polygon class="st17" points="50.6,62.5 49.6,63.1 48.5,62.5 48,62.8 47.2,62.3 48.7,61.5 				"/>
			</g>
			<g>
				<polygon class="st17" points="47.9,62.9 47,63.4 46.2,62.9 47,62.5 				"/>
			</g>
			<g>
				<polygon class="st17" points="49.4,63.3 48.5,63.8 47.7,63.3 48.5,62.8 				"/>
			</g>
			<g>
				<polygon class="st17" points="51.7,63.2 49.6,64.4 48.8,63.9 50.9,62.7 				"/>
			</g>
			<g>
				<polygon class="st17" points="46.9,63.5 46,64 45.2,63.5 46,63 				"/>
			</g>
			<g>
				<polygon class="st17" points="45.9,64.1 45,64.6 44.2,64.1 45,63.6 				"/>
			</g>
			<g>
				<polygon class="st17" points="44.9,64.7 44.1,65.1 43.2,64.7 44.1,64.2 				"/>
			</g>
			<g>
				<polygon class="st17" points="43.9,65.2 43.1,65.7 42.2,65.2 43.1,64.7 				"/>
			</g>
			<g>
				<polygon class="st17" points="42.9,65.8 42.1,66.3 41.2,65.8 42.1,65.3 				"/>
			</g>
			<g>
				<polygon class="st17" points="41.9,66.4 41.1,66.9 40.3,66.4 41.1,65.9 				"/>
			</g>
			<g>
				<polygon class="st17" points="40.9,67 40.1,67.4 39.3,67 40.1,66.5 				"/>
			</g>
			<g>
				<polygon class="st17" points="39.9,67.5 39.1,68 38.3,67.5 39.1,67 				"/>
			</g>
			<g>
				<polygon class="st17" points="39,68.1 38.1,68.6 37.3,68.1 38.1,67.6 				"/>
			</g>
			<g>
				<polygon class="st17" points="37.9,68.7 36.3,69.7 35.5,69.2 37.1,68.2 				"/>
			</g>
			<g>
				<polygon class="st17" points="48.4,63.8 47.5,64.3 46.7,63.8 47.5,63.4 				"/>
			</g>
			<g>
				<polygon class="st17" points="47.4,64.4 46.5,64.9 45.7,64.4 46.5,63.9 				"/>
			</g>
			<g>
				<polygon class="st17" points="46.4,65 45.6,65.5 44.7,65 45.6,64.5 				"/>
			</g>
			<g>
				<polygon class="st17" points="45.4,65.6 44.6,66 43.7,65.6 44.6,65.1 				"/>
			</g>
			<g>
				<polygon class="st17" points="44.4,66.1 43.6,66.6 42.7,66.1 43.6,65.7 				"/>
			</g>
			<g>
				<polygon class="st17" points="43.4,66.7 42.6,67.2 41.8,66.7 42.6,66.2 				"/>
			</g>
			<g>
				<polygon class="st17" points="42.4,67.3 41.6,67.8 40.8,67.3 41.6,66.8 				"/>
			</g>
			<g>
				<polygon class="st17" points="41.4,67.9 40.6,68.3 39.8,67.9 40.6,67.4 				"/>
			</g>
			<g>
				<polygon class="st17" points="40.5,68.4 39.6,68.9 38.8,68.4 39.6,68 				"/>
			</g>
			<g>
				<polygon class="st17" points="39.4,69 37.3,70.3 36.5,69.8 38.6,68.5 				"/>
			</g>
			<g>
				<polygon class="st17" points="49.4,64.5 48.6,65 47.7,64.5 48.6,64 				"/>
			</g>
			<g>
				<polygon class="st17" points="48.4,65.1 47.6,65.5 46.8,65.1 47.6,64.6 				"/>
			</g>
			<g>
				<polygon class="st17" points="47.4,65.6 46.6,66.1 45.8,65.6 46.6,65.1 				"/>
			</g>
			<g>
				<polygon class="st17" points="46.5,66.2 45.6,66.7 44.8,66.2 45.6,65.7 				"/>
			</g>
			<g>
				<polygon class="st17" points="45.5,66.8 41.7,69 40.9,68.5 44.6,66.3 				"/>
			</g>
			<g>
				<polygon class="st17" points="41.5,69.1 40.7,69.6 39.9,69.1 40.7,68.6 				"/>
			</g>
			<g>
				<polygon class="st17" points="40.5,69.7 38.4,70.9 37.6,70.4 39.7,69.2 				"/>
			</g>
		</g>
	</g>
	<g>
		<path class="st14" d="M27.6,57.1c0.3-0.9-1.8-8.4-2-8.8c0-0.1-0.4-1.6-0.6-1.6l-4.5,0.7c0.1,0.7,0.4,1.4,0.5,2
			c0.2,1,2.5,8.9,3.2,9.7C25.7,61.1,27.1,58.5,27.6,57.1z"/>
		<path class="st25" d="M21.7,40.4c1.7-0.5,2.5,1.1,3,2.2c0.7,1.5,1.1,3.3,1.2,5c0,0.4,0,0.9-0.1,1.3c-0.1,0.3-0.3,0.6-0.5,0.9
			c-0.5,0.7-1.2,1.3-2,1.4c-0.3,0-0.5,0-0.8-0.1c-0.4-0.1-0.7-0.2-1-0.4c-0.5-0.4-0.7-1-0.8-1.6c-0.4-1.5-0.7-3-0.8-4.5
			C19.7,43,19.6,41,21.7,40.4z"/>
		<polygon class="st14" points="22,46.5 23.2,49.7 20.8,48.3 		"/>
		<path class="st18" d="M34.6,64.9c1.7,0.7,3.1-1.4,1.2-3c-2-1.7-4.9-3.4-6.6-4.9c-0.4-0.3-1.2-1-1.7-1c-0.6,0-0.5,0.9-1.1,1.2
			c-0.3,0.1-1,0.1-1.3,0c-0.8,0-1.8,0.8-1.5,1.5C24.1,59.8,31.9,63.7,34.6,64.9z"/>
		<path class="st14" d="M33.6,64.4c0.4,0.2,0.7,0.3,1,0.4c1.7,0.7,3.1-1.4,1.2-3c-0.2-0.2-0.4-0.4-0.7-0.5
			C35.3,62.5,34.5,63.7,33.6,64.4z"/>
		<g>
			<path class="st18" d="M35.6,62.8c-0.4,0.5-0.4,1.3-0.9,1.6c-0.1,0.1-0.2,0.1-0.2,0.2c-0.2,0.2,0.2,0.5,0.3,0.7
				c0.2,0.3,0.5,0.5,0.8,0.7c0.7,0.5,1.4,0.8,2.2,1.1c0.2,0.1,0.4,0.1,0.5-0.1c0.1-0.1,0-0.3,0.1-0.3c0.2-0.2,0.4,0,0.7,0.1
				c0.4,0,0.6-0.5,0.4-0.8c0.3,0.1,0.6,0.1,0.9-0.1c0.3-0.2,0.4-0.6,0.1-0.8c0.3,0.2,0.7,0.1,0.9-0.3s0-0.7-0.3-0.9
				c-0.2-0.1-0.5-0.1-0.8-0.1c-1-0.1-1.5-1.2-2.4-1.6c-0.4-0.2-0.8-0.3-1.2-0.2C36.3,62.1,35.8,62.4,35.6,62.8L35.6,62.8z"/>
			<path class="st18" d="M36.7,62.1c1-0.3,2.5-0.2,3.4,0.3c0.1,0.1,0.3,0.2,0.4,0.3c0.1,0.1,0.1,0.3,0,0.5c-0.1,0.1-0.3,0.2-0.4,0.2
				c-0.2,0-0.3-0.1-0.4-0.2l-0.1-0.1c-0.6,0.1-1.3,0.3-1.9,0.4L36.7,62.1z"/>
		</g>
		<g>
			<g>
				<g>
					<g>
						<path id="SVGID_00000150816801884658141850000018271235614688170146_" class="st14" d="M23.1,55.9l0.3-0.1
							c0.2-0.1,0.5,0,0.8,0.2l-0.3,0.1C23.6,55.9,23.3,55.8,23.1,55.9z"/>
					</g>
					<g>
						<defs>
							<path id="SVGID_00000036248597925540307780000000630926050583944875_" d="M23.1,55.9l0.3-0.1c0.2-0.1,0.5,0,0.8,0.2l-0.3,0.1
								C23.6,55.9,23.3,55.8,23.1,55.9z"/>
						</defs>
						<clipPath id="SVGID_00000109012824930605928250000000423417474827889305_">
							<use xlink:href="#SVGID_00000036248597925540307780000000630926050583944875_"  style="overflow:visible;"/>
						</clipPath>
						<g style="clip-path:url(#SVGID_00000109012824930605928250000000423417474827889305_);enable-background:new    ;">
							<path class="st14" d="M23.1,55.9l0.3-0.1c0.1,0,0.2-0.1,0.4,0l-0.3,0.1C23.3,55.9,23.2,55.9,23.1,55.9L23.1,55.9z"/>
							<path class="st14" d="M23.5,55.9l0.3-0.1c0.1,0,0.2,0,0.2,0.1L23.7,56C23.6,56,23.5,55.9,23.5,55.9L23.5,55.9z"/>
							<path class="st14" d="M23.7,56l0.3-0.1c0.1,0,0.1,0.1,0.2,0.1l-0.3,0.1C23.8,56.1,23.8,56,23.7,56L23.7,56z"/>
						</g>
					</g>
				</g>
				<g>
					<g>
						<path id="SVGID_00000066486864533869256800000013585201377976711810_" class="st14" d="M24.6,58.8L24.3,59
							c0.2-0.1,0.4-0.3,0.4-0.7c0.1-0.7-0.3-1.7-0.9-2.2l0.3-0.1c0.6,0.5,1,1.4,0.9,2.2C25,58.5,24.9,58.8,24.6,58.8z"/>
					</g>
					<g>
						<defs>
							<path id="SVGID_00000170239879708441486890000007407714078512693691_" d="M24.6,58.8L24.3,59c0.2-0.1,0.4-0.3,0.4-0.7
								c0.1-0.7-0.3-1.7-0.9-2.2l0.3-0.1c0.6,0.5,1,1.4,0.9,2.2C25,58.5,24.9,58.8,24.6,58.8z"/>
						</defs>
						<clipPath id="SVGID_00000003088390757681438280000007268008875077474698_">
							<use xlink:href="#SVGID_00000170239879708441486890000007407714078512693691_"  style="overflow:visible;"/>
						</clipPath>
						<g style="clip-path:url(#SVGID_00000003088390757681438280000007268008875077474698_);enable-background:new    ;">
							<polygon class="st14" points="23.9,56.1 24.2,56 24.2,56 23.9,56.1 							"/>
							<path class="st14" d="M23.9,56.1l0.3-0.1c0.1,0.1,0.2,0.1,0.2,0.2l-0.3,0.1C24.1,56.3,24,56.2,23.9,56.1L23.9,56.1z"/>
							<path class="st14" d="M24.1,56.4l0.3-0.1c0.1,0.1,0.1,0.2,0.2,0.3l-0.3,0.1C24.3,56.5,24.2,56.4,24.1,56.4L24.1,56.4z"/>
							<path class="st14" d="M24.4,56.6l0.3-0.1c0.2,0.2,0.3,0.5,0.3,0.8l-0.3,0.1C24.6,57.1,24.5,56.9,24.4,56.6L24.4,56.6z"/>
							<path class="st14" d="M24.7,57.4l0.3-0.1c0,0.1,0.1,0.2,0.1,0.3l-0.3,0.1C24.7,57.6,24.7,57.5,24.7,57.4L24.7,57.4z"/>
							<path class="st14" d="M24.8,57.7l0.3-0.1c0,0.1,0,0.2,0,0.3L24.8,58C24.8,57.9,24.8,57.8,24.8,57.7L24.8,57.7z"/>
							<path class="st14" d="M24.8,58l0.3-0.1c0,0.1,0,0.2,0,0.3l0,0l-0.3,0.1l0,0C24.8,58.2,24.8,58.1,24.8,58L24.8,58z"/>
							<path class="st14" d="M24.8,58.3l0.3-0.1c0,0.1,0,0.2-0.1,0.3l-0.3,0.1C24.7,58.5,24.8,58.4,24.8,58.3L24.8,58.3z"/>
							<path class="st14" d="M25,57.8l0.3-0.1c-0.1,0.2-0.2,0.3-0.4,0.4l-0.3,0.1C24.8,58.1,25,58,25,57.8L25,57.8z"/>
						</g>
					</g>
				</g>
				<g>
					<path class="st17" d="M23.9,56.1c0.6,0.5,1,1.4,0.9,2.2c-0.1,0.7-0.7,0.9-1.2,0.5c-0.6-0.5-1-1.4-0.9-2.1
						C22.8,55.9,23.3,55.7,23.9,56.1z"/>
				</g>
			</g>
			<g>
				<path class="st14" d="M23.8,56.5c0.4,0.3,0.7,1.1,0.6,1.6s-0.5,0.7-0.9,0.4s-0.7-1.1-0.6-1.6C23,56.3,23.4,56.1,23.8,56.5z"/>
			</g>
			<g>
				<g>
					<path class="st17" d="M23.8,56.9c0.2,0.2,0.4,0.6,0.4,0.9c0,0.3-0.3,0.4-0.5,0.2s-0.4-0.6-0.4-0.9S23.5,56.7,23.8,56.9z"/>
				</g>
			</g>
		</g>
	</g>
	<g>
		<g>
			<polygon class="st40" points="62,42.4 62,27.1 65.6,25.1 65.6,20.1 65.8,20.1 65.8,25.2 62.3,27.2 62.3,42.4 			"/>
		</g>
		<g>
			<polygon class="st40" points="45.1,54.9 45.1,34.7 20.5,48.8 20.5,32.2 20.8,32.2 20.8,48.4 45.3,34.3 45.3,54.9 			"/>
		</g>
		<g>
			<polygon class="st40" points="5.9,44.6 5.9,37 6.2,37 6.2,44.2 20.6,35.8 20.8,36 			"/>
		</g>
		<g>
			<polygon class="st40" points="51.4,35.9 51.4,19 36.9,27.2 36.9,17.5 37.2,17.5 37.2,26.8 51.6,18.6 51.6,35.9 			"/>
		</g>
		<g>
			<rect x="54.3" y="11.5" class="st40" width="0.2" height="21"/>
		</g>
		<g>
			<rect x="61.3" y="32" transform="matrix(0.866 -0.5 0.5 0.866 -7.0942 37.7736)" class="st40" width="11.3" height="0.2"/>
		</g>
		<g>
			<rect x="14.1" y="48.1" transform="matrix(0.866 -0.5 0.5 0.866 -19.971 21.8611)" class="st40" width="33.4" height="0.2"/>
		</g>
		<g>
			<g>
				<path class="st40" d="M6.9,37c0,0.5-0.4,1.1-0.8,1.4c-0.4,0.3-0.8,0-0.8-0.5s0.4-1.1,0.8-1.4C6.5,36.3,6.9,36.5,6.9,37z"/>
			</g>
			<g>
				<path class="st40" d="M21.5,32.4c0,0.5-0.4,1.1-0.8,1.4c-0.4,0.3-0.8,0-0.8-0.5s0.4-1.1,0.8-1.4C21.1,31.7,21.5,31.9,21.5,32.4z
					"/>
			</g>
			<g>
				<path class="st40" d="M17.5,56c0,0.5-0.4,1.1-0.8,1.4c-0.4,0.3-0.8,0-0.8-0.5s0.4-1.1,0.8-1.4C17.2,55.2,17.5,55.4,17.5,56z"/>
			</g>
			<g>
				<path class="st40" d="M37.9,17.1c0,0.5-0.4,1.1-0.8,1.4c-0.4,0.3-0.8,0-0.8-0.5s0.4-1.1,0.8-1.4C37.6,16.3,37.9,16.5,37.9,17.1z
					"/>
			</g>
			<g>
				<path class="st40" d="M55.2,11.2c0,0.5-0.4,1.1-0.8,1.4c-0.4,0.3-0.8,0-0.8-0.5s0.4-1.1,0.8-1.4C54.9,10.4,55.2,10.6,55.2,11.2z
					"/>
			</g>
			<g>
				<path class="st40" d="M66.4,19.9c0,0.5-0.4,1.1-0.8,1.4s-0.8,0-0.8-0.5s0.4-1.1,0.8-1.4S66.4,19.3,66.4,19.9z"/>
			</g>
			<g>
				<path class="st40" d="M72.6,28.9c0,0.5-0.4,1.1-0.8,1.4s-0.8,0-0.8-0.5s0.4-1.1,0.8-1.4C72.3,28.2,72.6,28.4,72.6,28.9z"/>
			</g>
		</g>
	</g>
	<g>
		<ellipse class="st41" cx="53.5" cy="71" rx="6.4" ry="3.7"/>
		<g>
			<g class="st1">
				<g>
					<path class="st18" d="M58.4,68.1c2.1,1.2,2.2,3.2,0,4.5c-2.1,1.2-5.6,1.2-7.8,0c-2.1-1.2-2.2-3.2,0-4.5
						C52.8,66.9,56.3,66.9,58.4,68.1z"/>
				</g>
			</g>
		</g>
		<g>
			<g class="st1">
				<g class="st1">
					<g>
						<defs>
							<path id="SVGID_00000093140087312411867900000003885306820289842864_" d="M60,70v0.8c0,0.8-0.5,1.6-1.6,2.2
								c-2.1,1.2-5.6,1.2-7.8,0c-1.1-0.6-1.6-1.4-1.6-2.3v-0.8c0,0.8,0.5,1.6,1.6,2.3c2.1,1.2,5.6,1.2,7.8,0
								C59.5,71.6,60,70.8,60,70z"/>
						</defs>
						<clipPath id="SVGID_00000026879798673293653040000009175062421063081871_">
							<use xlink:href="#SVGID_00000093140087312411867900000003885306820289842864_"  style="overflow:visible;"/>
						</clipPath>
						<g style="clip-path:url(#SVGID_00000026879798673293653040000009175062421063081871_);enable-background:new    ;">
							<path class="st13" d="M60,70v0.8c0,0.4-0.1,0.8-0.4,1.2v-0.8C59.9,70.8,60,70.4,60,70L60,70z"/>
							<path class="st13" d="M59.6,71.2V72c-0.3,0.4-0.6,0.7-1.2,1c-1,0.6-2.4,0.9-3.8,0.9v-0.8c1.4,0,2.7-0.3,3.8-0.9
								C58.9,71.9,59.3,71.6,59.6,71.2L59.6,71.2z"/>
							<path class="st13" d="M54.7,73.1v0.8c-1.4,0-2.9-0.3-4-0.9s-1.6-1.4-1.6-2.3v-0.8c0,0.8,0.5,1.6,1.6,2.3
								C51.8,72.8,53.2,73.1,54.7,73.1L54.7,73.1z"/>
						</g>
					</g>
				</g>
			</g>
		</g>
		<g>
			<g class="st1">
				<g class="st1">
					<g>
						<path id="SVGID_00000159427767580636495790000007298399939261363086_" class="st17" d="M67.3,37.7l0.9,0.5
							c-0.2-0.1-0.4-0.1-0.7,0.1l-0.9-0.5C66.9,37.6,67.1,37.6,67.3,37.7z"/>
					</g>
					<g>
						<defs>
							<path id="SVGID_00000161629004146524966570000010891210655604448662_" d="M67.3,37.7l0.9,0.5c-0.2-0.1-0.4-0.1-0.7,0.1
								l-0.9-0.5C66.9,37.6,67.1,37.6,67.3,37.7z"/>
						</defs>
						<clipPath id="SVGID_00000177477302111766730430000009112520087152634281_">
							<use xlink:href="#SVGID_00000161629004146524966570000010891210655604448662_"  style="overflow:visible;"/>
						</clipPath>
						<g style="clip-path:url(#SVGID_00000177477302111766730430000009112520087152634281_);enable-background:new    ;">
							<path class="st17" d="M67.5,38.3l-0.9-0.5c0.3-0.2,0.5-0.2,0.7-0.1l0.9,0.5C68,38.1,67.8,38.1,67.5,38.3L67.5,38.3z"/>
						</g>
					</g>
				</g>
				<g class="st1">
					<g>
						<path id="SVGID_00000003091058400758318210000015638111109967433867_" class="st17" d="M42.1,73.3l-0.9-0.5
							c-0.2-0.1-0.3-0.3-0.3-0.7l0.9,0.5C41.8,73,41.9,73.2,42.1,73.3z"/>
					</g>
					<g>
						<defs>
							<path id="SVGID_00000178896099484620376220000015792243651599537804_" d="M42.1,73.3l-0.9-0.5c-0.2-0.1-0.3-0.3-0.3-0.7
								l0.9,0.5C41.8,73,41.9,73.2,42.1,73.3z"/>
						</defs>
						<clipPath id="SVGID_00000128481919861602024580000001837742378005577088_">
							<use xlink:href="#SVGID_00000178896099484620376220000015792243651599537804_"  style="overflow:visible;"/>
						</clipPath>
						<g style="clip-path:url(#SVGID_00000128481919861602024580000001837742378005577088_);">
							<path class="st12" d="M42.1,73.3l-0.9-0.5c-0.2-0.1-0.3-0.3-0.3-0.7l0.9,0.5C41.8,73,41.9,73.2,42.1,73.3L42.1,73.3z"/>
						</g>
					</g>
				</g>
				<g>
					<polygon class="st12" points="41.8,72.6 40.9,72.1 40.8,53.8 41.7,54.3 					"/>
				</g>
				<g>
					<polygon class="st17" points="42.8,52.5 41.9,52 66.6,37.7 67.5,38.3 					"/>
				</g>
				<g>
					<g>
						<path id="SVGID_00000160886674030928789290000004242522410012270984_" class="st12" d="M41.7,54.3l-0.9-0.5
							c0-0.7,0.5-1.5,1-1.8l0.9,0.5C42.2,52.9,41.7,53.7,41.7,54.3z"/>
					</g>
					<g>
						<defs>
							<path id="SVGID_00000062899623962945428990000013432166190927379113_" d="M41.7,54.3l-0.9-0.5c0-0.7,0.5-1.5,1-1.8l0.9,0.5
								C42.2,52.9,41.7,53.7,41.7,54.3z"/>
						</defs>
						<clipPath id="SVGID_00000183231626356545119780000012504251928479705230_">
							<use xlink:href="#SVGID_00000062899623962945428990000013432166190927379113_"  style="overflow:visible;"/>
						</clipPath>
						<g style="clip-path:url(#SVGID_00000183231626356545119780000012504251928479705230_);enable-background:new    ;">
							<path class="st12" d="M41.7,54.3l-0.9-0.5c0-0.7,0.5-1.5,1-1.8l0.9,0.5C42.2,52.9,41.7,53.7,41.7,54.3L41.7,54.3z"/>
						</g>
					</g>
				</g>
				<path class="st13" d="M67.5,38.3c0.6-0.3,1-0.1,1,0.6l0.1,18.3c0,0.7-0.5,1.5-1,1.8L42.8,73.2c-0.6,0.3-1,0.1-1-0.6l-0.1-18.3
					c0-0.7,0.5-1.5,1-1.8L67.5,38.3z"/>
			</g>
		</g>
		<g>
			<g class="st1">
				<g>
					<polygon class="st12" points="54.3,72.7 53,71.9 54.6,62.7 56,63.4 					"/>
				</g>
				<g>
					<polygon class="st17" points="56,63.4 54.6,62.7 59.3,60 60.6,60.8 					"/>
				</g>
				<g>
					<polygon class="st13" points="60.6,60.8 59,70 54.3,72.7 56,63.4 					"/>
				</g>
			</g>
		</g>
	</g>
	<g>
		<g>
			<g class="st1">
				<g>
					<polygon class="st46" points="51.3,34 50.9,33.8 58,29.7 58.4,29.9 					"/>
				</g>
				<g>
					<polygon class="st47" points="46.8,46.2 46.5,46 46.5,35.3 46.8,35.5 					"/>
				</g>
				<g>
					<polygon class="st46" points="46.8,35.5 46.5,35.3 50.5,33 50.8,33.2 					"/>
				</g>
				<g>
					<polygon class="st48" points="50.8,33.2 51.3,34 58.4,29.9 58.4,39.5 46.8,46.2 46.8,35.5 					"/>
				</g>
			</g>
		</g>
		<g>
			<g class="st1">
				<g>
					<polygon class="st17" points="47.9,46.3 47.1,45.8 47,37 47.9,37.5 					"/>
				</g>
				<g>
					<polygon class="st29" points="47.9,37.5 47,37 58.1,30.6 58.9,31.1 					"/>
				</g>
				<g>
					<polygon class="st49" points="58.9,31.1 59,40 47.9,46.3 47.9,37.5 					"/>
				</g>
			</g>
		</g>
		<g>
			<polygon class="st48" points="46.8,45.1 46.8,45.4 46.8,45.4 46.8,45.5 46.5,45.5 46.5,45.7 47.9,46.6 47.9,45.7 			"/>
		</g>
		<g>
			<g class="st1">
				<g>
					<polygon class="st47" points="47.9,46.8 47.6,46.6 47.6,37.7 47.9,37.8 					"/>
				</g>
				<g>
					<polygon class="st46" points="47.9,37.8 47.6,37.7 59.1,31 59.4,31.2 					"/>
				</g>
				<g>
					<polygon class="st48" points="59.4,31.2 59.5,40.1 47.9,46.8 47.9,37.8 					"/>
				</g>
			</g>
		</g>
		<g>
			<polygon class="st47" points="47.9,46.8 46.5,46 46.5,45.1 47.9,46 			"/>
		</g>
	</g>
	<g>
		<g>
			<path class="st14" d="M52,10.6l4-2.3c0.8-0.4,1.4-1.5,1.4-2.4v-5c0-0.9-0.6-1.2-1.4-0.8l-4,2.3c-0.8,0.4-1.4,1.5-1.4,2.4v5
				C50.6,10.7,51.2,11.1,52,10.6z"/>
			<g>
				<path class="st17" d="M53.5,7.5C53.6,7.2,53.8,7,54,6.8c0.2-0.1,0.4-0.1,0.5,0s0.1,0.2,0.1,0.3c0,0.4-0.3,0.9-0.6,1.1
					c-0.3,0.2-0.6,0-0.6-0.4C53.4,7.7,53.4,7.6,53.5,7.5z"/>
				<g>
					<path class="st17" d="M56.8,2.3l-0.3,0.5C55.9,2.5,55,2.5,54,3.1s-1.9,1.6-2.6,2.7l-0.3-0.2c0.7-1.3,1.7-2.4,2.9-3
						C55.1,2,56.1,1.9,56.8,2.3z"/>
					<path class="st17" d="M55.9,3.9l-0.3,0.5c-0.4-0.2-1-0.2-1.7,0.2c-0.6,0.4-1.2,1-1.7,1.8L52,6.2c0.5-0.9,1.2-1.6,2-2.1
						C54.7,3.7,55.4,3.6,55.9,3.9z"/>
					<path class="st17" d="M55,5.5L54.7,6c-0.2-0.1-0.5-0.1-0.8,0.1s-0.6,0.5-0.8,0.8l-0.3-0.2c0.3-0.5,0.6-0.9,1.1-1.1
						C54.4,5.3,54.8,5.3,55,5.5z"/>
				</g>
			</g>
		</g>
		<g>
			<polygon class="st5" points="31.7,17.5 40.6,12.4 40.6,2.1 31.7,7.2 			"/>
			<polygon class="st17" points="33.5,12.1 35.5,13.4 38.7,7 40.6,9.7 40.6,12.4 31.7,17.5 31.7,15 			"/>
			<path class="st17" d="M33.5,9c0-0.8,0.5-1.7,1.2-2.1s1.2-0.1,1.2,0.7s-0.5,1.7-1.2,2.1C34,10.1,33.5,9.8,33.5,9z"/>
		</g>
		<g>
			<polygon class="st14" points="0,39.3 10,33.5 10,24.3 6,26.6 5.1,28.4 0,31.4 			"/>
			<polygon class="st5" points="0.2,29.2 9.8,23.7 9.8,24.5 6,26.6 5.1,28.4 0.2,31.3 			"/>
		</g>
		<g>
			<polygon class="st14" points="14.7,33.8 24.9,27.9 24.9,10.6 14.7,16.5 			"/>
			<g>
				<polygon class="st17" points="18.7,17 22.7,14.7 22.7,14 18.7,16.3 				"/>
				<path class="st17" d="M23.1,13.9c0-0.3,0.2-0.8,0.5-0.9c0.3-0.2,0.5,0,0.5,0.3s-0.2,0.8-0.5,0.9C23.3,14.3,23.1,14.2,23.1,13.9z
					"/>
				<polygon class="st17" points="15.4,23.3 22.7,19.2 22.7,18.4 15.4,22.6 				"/>
				<path class="st17" d="M23.1,18.3c0-0.3,0.2-0.8,0.5-0.9c0.3-0.2,0.5,0,0.5,0.3s-0.2,0.8-0.5,0.9C23.3,18.8,23.1,18.6,23.1,18.3z
					"/>
				<path class="st17" d="M23.1,22.8c0-0.3,0.2-0.8,0.5-0.9c0.3-0.2,0.5,0,0.5,0.3s-0.2,0.8-0.5,0.9C23.3,23.3,23.1,23.2,23.1,22.8z
					"/>
				<polygon class="st17" points="20.9,17.4 16.9,19.7 16.9,18.9 20.9,16.6 				"/>
				<polygon class="st17" points="24.1,16.7 16.9,20.9 16.9,20.1 24.1,16 				"/>
				<path class="st17" d="M16.5,19.3c0-0.3-0.2-0.5-0.5-0.3c-0.3,0.2-0.5,0.6-0.5,0.9s0.2,0.5,0.5,0.3C16.3,20,16.5,19.6,16.5,19.3z
					"/>
				<polygon class="st17" points="20.9,21.8 16.9,24.1 16.9,23.4 20.9,21.1 				"/>
				<polygon class="st17" points="24.1,21.2 16.9,25.3 16.9,24.6 24.1,20.4 				"/>
				<polygon class="st17" points="18.7,26.1 22.7,23.8 22.7,23 18.7,25.3 				"/>
				<polygon class="st17" points="15.5,29.1 22.7,25 22.7,24.2 15.5,28.4 				"/>
				<polygon class="st17" points="15.5,30.3 22.7,26.2 22.7,25.4 15.5,29.6 				"/>
				<path class="st17" d="M16.5,23.7c0-0.3-0.2-0.5-0.5-0.3c-0.3,0.2-0.5,0.6-0.5,0.9s0.2,0.5,0.5,0.3
					C16.3,24.5,16.5,24.1,16.5,23.7z"/>
				<polygon class="st17" points="20.9,28.7 16.9,31 16.9,30.3 20.9,28 				"/>
				<path class="st17" d="M16.5,30.6c0-0.3-0.2-0.5-0.5-0.3c-0.3,0.2-0.5,0.6-0.5,0.9s0.2,0.5,0.5,0.3C16.3,31.4,16.5,31,16.5,30.6z
					"/>
			</g>
		</g>
		<g>
			<g>
				<polygon class="st14" points="60.3,21.4 69.3,16.2 69.3,8.9 60.3,14.1 				"/>
				<polygon class="st5" points="69.3,8.9 60.3,14.1 64.8,15.7 				"/>
			</g>
			<g>
				<g>
					<g>
						<path class="st40" d="M63.9,7.7c0.3-0.2,0.5-0.1,0.5,0.3v0.1c0,0.2-0.1,0.4-0.2,0.6c0.2,0,0.2,0.1,0.2,0.3v0.2
							c0,0.3-0.2,0.7-0.5,0.8c-0.3,0.2-0.5,0.1-0.5-0.3V9.6c0-0.2,0.1-0.4,0.2-0.6c-0.2,0-0.2-0.1-0.2-0.3V8.5
							C63.4,8.2,63.6,7.9,63.9,7.7z M63.9,7.9c-0.2,0.1-0.2,0.2-0.2,0.5v0.1c0,0.2,0.1,0.3,0.2,0.2c0.2-0.1,0.2-0.2,0.2-0.5V8.1
							C64.1,7.9,64,7.9,63.9,7.9z M63.9,8.9c-0.2,0.1-0.2,0.2-0.2,0.5v0.2c0,0.2,0.1,0.3,0.2,0.2c0.2-0.1,0.2-0.3,0.2-0.5V9.1
							C64.1,8.9,64,8.8,63.9,8.9z"/>
					</g>
				</g>
				<g>
					<path class="st40" d="M62.5,9.7c0-0.9,0.6-2,1.4-2.4s1.4-0.1,1.4,0.8s-0.6,2-1.4,2.4C63.1,11,62.5,10.6,62.5,9.7z M62.6,9.6
						c0,0.8,0.6,1.2,1.3,0.7c0.7-0.4,1.3-1.4,1.3-2.2S64.6,7,63.9,7.4C63.2,7.8,62.6,8.8,62.6,9.6z"/>
				</g>
			</g>
		</g>
		<g>
			<polygon class="st5" points="1,70.4 15.3,62.2 15.3,51.2 1,59.4 			"/>
			<g>
				<g>
					<path class="st17" d="M1.9,65.2L1.9,65.2c-0.1,0-0.1-0.1-0.1-0.1c0.1-0.2,0.8-1.8,1.3-2.1c0.2-0.1,0.4,0.1,0.6,0.2
						c0.2,0.2,0.3,0.3,0.4,0.2c0.4-0.3,0.8-1.3,1.2-2.2c0.4-1,0.8-2,1.3-2.3c0.3-0.2,0.5,0.1,0.7,0.3s0.4,0.3,0.5,0.2
						c0.3-0.2,0.5-0.8,0.7-1.5c0.3-1,0.7-2.2,1.5-2.5c0.5-0.2,0.9-0.1,1.3,0.3c0.3,0.3,0.6,0.8,0.8,1.2c0.5,0.8,0.8,1.3,1.3,1.1
						c0.4-0.2,0.7-1.1,0.9-1.4l0.1-0.1l0.1,0.1c0,0.1-0.5,1.3-1,1.5c-0.3,0.1-0.6,0.1-0.9-0.2c-0.2-0.2-0.4-0.6-0.6-1
						c-0.5-0.9-1-1.8-1.9-1.4c-0.7,0.3-1,1.4-1.4,2.4c-0.3,0.8-0.5,1.4-0.8,1.6c-0.3,0.2-0.5-0.1-0.7-0.3C7,59.1,6.8,59,6.7,59.1
						c-0.4,0.3-0.8,1.3-1.2,2.2c-0.4,1-0.8,2-1.3,2.3c-0.2,0.1-0.4-0.1-0.6-0.2c-0.2-0.2-0.3-0.3-0.4-0.2
						C2.8,63.4,2.2,64.7,1.9,65.2C2,65.2,1.9,65.2,1.9,65.2z"/>
				</g>
				<g>
					<polygon class="st17" points="5,67.4 2.9,68.6 2.9,64.8 5,63.6 					"/>
					<polygon class="st17" points="8.1,65.6 6.1,66.8 6.1,61.1 8.1,59.9 					"/>
					<polygon class="st17" points="14.4,62 12.3,63.2 12.3,59.7 14.4,58.5 					"/>
					<polygon class="st17" points="11.3,63.8 9.2,65 9.2,57.8 11.3,56.6 					"/>
				</g>
			</g>
		</g>
		<g>
			<g>
				<polygon class="st5" points="73.3,32.5 79.4,28.9 79.4,21.8 73.3,25.3 				"/>
			</g>
			<path class="st17" d="M74.8,27.8v2.1c0,0.4,0.3,0.5,0.6,0.3l2.2-1.3c0.3-0.2,0.6-0.6,0.6-1v-2.1c0-0.2-0.1-0.4-0.3-0.4V25
				c0-0.9-0.6-1.3-1.4-0.8c-0.8,0.4-1.4,1.5-1.4,2.4V27C74.9,27.2,74.8,27.5,74.8,27.8z M77.4,25.2v0.4l-2,1.1v-0.4
				c0-0.6,0.4-1.4,1-1.7S77.4,24.6,77.4,25.2z M76,28c0-0.3,0.2-0.7,0.5-0.8c0.3-0.2,0.5,0,0.5,0.3c0,0.2-0.1,0.4-0.2,0.6v0.6
				L76.2,29v-0.6C76,28.3,76,28.2,76,28z"/>
		</g>
	</g>
</g>
</svg>
